STARTFONT 2.1
FONT -FreeType-Baekmuksmall-Medium-R-Normal--9-90-75-75-P-38-ISO10646-1
SIZE 9 75 75
FONTBOUNDINGBOX 9 9 0 -2

STARTPROPERTIES 24
FOUNDRY "FreeType"
FAMILY_NAME "Baekmuksmall"
WEIGHT_NAME "Medium"
SLANT "R"
SETWIDTH_NAME "Normal"
ADD_STYLE_NAME ""
PIXEL_SIZE 9
POINT_SIZE 90
RESOLUTION_X 75
RESOLUTION_Y 75
SPACING "P"
AVERAGE_WIDTH 38
CHARSET_REGISTRY "ISO10646"
CHARSET_ENCODING "1"
COPYRIGHT "(c) Copyright 1986-2002 Jeong-Hwan Kim"
_OTF_FONTFILE "Dotum.ttf"
_OTF_PSNAME "Baekmuk-Dotum"
_GBDFED_INFO "Edited with gbdfed 1.6."
WEIGHT 10
X_HEIGHT 0
QUAD_WIDTH 4
DEFAULT_CHAR 0
FONT_DESCENT 1
FONT_ASCENT 7
ENDPROPERTIES

CHARS 17237

STARTCHAR 0020
ENCODING 32
SWIDTH 426 0
DWIDTH 4 0
BBX 0 0 0 0
BITMAP
ENDCHAR

STARTCHAR 0021
ENCODING 33
SWIDTH 213 0
DWIDTH 2 0
BBX 1 6 1 0
BITMAP
80
80
80
00
00
80
ENDCHAR

STARTCHAR 0022
ENCODING 34
SWIDTH 426 0
DWIDTH 4 0
BBX 2 1 1 5
BITMAP
C0
ENDCHAR

STARTCHAR 0023
ENCODING 35
SWIDTH 640 0
DWIDTH 6 0
BBX 4 5 1 1
BITMAP
50
70
A0
F0
80
ENDCHAR

STARTCHAR 0024
ENCODING 36
SWIDTH 426 0
DWIDTH 4 0
BBX 4 7 0 0
BITMAP
F0
C0
40
70
D0
50
20
ENDCHAR

STARTCHAR 0025
ENCODING 37
SWIDTH 746 0
DWIDTH 7 0
BBX 7 6 0 0
BITMAP
E0
B8
50
2E
32
0E
ENDCHAR

STARTCHAR 0026
ENCODING 38
SWIDTH 533 0
DWIDTH 5 0
BBX 5 6 0 0
BITMAP
70
50
60
A8
90
F8
ENDCHAR

STARTCHAR 0027
ENCODING 39
SWIDTH 320 0
DWIDTH 3 0
BBX 1 2 1 5
BITMAP
80
80
ENDCHAR

STARTCHAR 0028
ENCODING 40
SWIDTH 320 0
DWIDTH 3 0
BBX 2 7 1 -1
BITMAP
40
80
80
80
80
80
80
ENDCHAR

STARTCHAR 0029
ENCODING 41
SWIDTH 320 0
DWIDTH 3 0
BBX 2 7 1 0
BITMAP
80
80
40
40
80
80
80
ENDCHAR

STARTCHAR 002A
ENCODING 42
SWIDTH 426 0
DWIDTH 4 0
BBX 3 3 1 1
BITMAP
40
40
A0
ENDCHAR

STARTCHAR 002B
ENCODING 43
SWIDTH 746 0
DWIDTH 7 0
BBX 6 6 1 0
BITMAP
20
20
20
FC
20
20
ENDCHAR

STARTCHAR 002C
ENCODING 44
SWIDTH 106 0
DWIDTH 1 0
BBX 0 0 0 0
BITMAP
ENDCHAR

STARTCHAR 002D
ENCODING 45
SWIDTH 746 0
DWIDTH 7 0
BBX 6 1 1 2
BITMAP
FC
ENDCHAR

STARTCHAR 002E
ENCODING 46
SWIDTH 106 0
DWIDTH 1 0
BBX 0 0 0 0
BITMAP
ENDCHAR

STARTCHAR 002F
ENCODING 47
SWIDTH 853 0
DWIDTH 8 0
BBX 8 7 0 0
BITMAP
03
04
08
10
20
40
80
ENDCHAR

STARTCHAR 0030
ENCODING 48
SWIDTH 426 0
DWIDTH 4 0
BBX 4 6 0 0
BITMAP
F0
90
90
90
90
70
ENDCHAR

STARTCHAR 0031
ENCODING 49
SWIDTH 426 0
DWIDTH 4 0
BBX 1 6 2 0
BITMAP
80
80
80
80
80
80
ENDCHAR

STARTCHAR 0032
ENCODING 50
SWIDTH 426 0
DWIDTH 4 0
BBX 4 6 0 0
BITMAP
F0
90
10
20
C0
F0
ENDCHAR

STARTCHAR 0033
ENCODING 51
SWIDTH 426 0
DWIDTH 4 0
BBX 4 6 0 1
BITMAP
F0
10
20
10
90
70
ENDCHAR

STARTCHAR 0034
ENCODING 52
SWIDTH 426 0
DWIDTH 4 0
BBX 4 6 0 0
BITMAP
30
50
50
90
70
10
ENDCHAR

STARTCHAR 0035
ENCODING 53
SWIDTH 426 0
DWIDTH 4 0
BBX 4 6 0 0
BITMAP
60
80
70
10
90
70
ENDCHAR

STARTCHAR 0036
ENCODING 54
SWIDTH 426 0
DWIDTH 4 0
BBX 4 6 0 0
BITMAP
F0
80
F0
90
90
70
ENDCHAR

STARTCHAR 0037
ENCODING 55
SWIDTH 426 0
DWIDTH 4 0
BBX 3 6 1 0
BITMAP
E0
40
40
80
80
80
ENDCHAR

STARTCHAR 0038
ENCODING 56
SWIDTH 426 0
DWIDTH 4 0
BBX 4 6 0 0
BITMAP
F0
90
60
90
90
70
ENDCHAR

STARTCHAR 0039
ENCODING 57
SWIDTH 426 0
DWIDTH 4 0
BBX 4 6 0 0
BITMAP
F0
90
90
70
10
70
ENDCHAR

STARTCHAR 003A
ENCODING 58
SWIDTH 213 0
DWIDTH 2 0
BBX 0 0 0 0
BITMAP
ENDCHAR

STARTCHAR 003B
ENCODING 59
SWIDTH 213 0
DWIDTH 2 0
BBX 0 0 0 0
BITMAP
ENDCHAR

STARTCHAR 003C
ENCODING 60
SWIDTH 640 0
DWIDTH 6 0
BBX 4 5 1 1
BITMAP
10
60
80
60
10
ENDCHAR

STARTCHAR 003D
ENCODING 61
SWIDTH 746 0
DWIDTH 7 0
BBX 6 2 1 2
BITMAP
FC
78
ENDCHAR

STARTCHAR 003E
ENCODING 62
SWIDTH 640 0
DWIDTH 6 0
BBX 5 5 1 1
BITMAP
40
30
08
30
C0
ENDCHAR

STARTCHAR 003F
ENCODING 63
SWIDTH 426 0
DWIDTH 4 0
BBX 4 6 0 0
BITMAP
F0
90
10
20
00
20
ENDCHAR

STARTCHAR 0040
ENCODING 64
SWIDTH 746 0
DWIDTH 7 0
BBX 7 6 0 0
BITMAP
7C
BA
CA
CA
B4
7C
ENDCHAR

STARTCHAR 0041
ENCODING 65
SWIDTH 533 0
DWIDTH 5 0
BBX 5 6 0 0
BITMAP
30
30
50
48
B8
88
ENDCHAR

STARTCHAR 0042
ENCODING 66
SWIDTH 533 0
DWIDTH 5 0
BBX 5 6 0 0
BITMAP
F0
88
F0
88
88
F0
ENDCHAR

STARTCHAR 0043
ENCODING 67
SWIDTH 533 0
DWIDTH 5 0
BBX 6 6 0 0
BITMAP
78
84
80
80
84
78
ENDCHAR

STARTCHAR 0044
ENCODING 68
SWIDTH 533 0
DWIDTH 5 0
BBX 5 6 0 0
BITMAP
F8
88
88
88
88
F0
ENDCHAR

STARTCHAR 0045
ENCODING 69
SWIDTH 426 0
DWIDTH 4 0
BBX 4 6 0 0
BITMAP
F0
80
F0
80
80
F0
ENDCHAR

STARTCHAR 0046
ENCODING 70
SWIDTH 426 0
DWIDTH 4 0
BBX 4 6 0 0
BITMAP
F0
80
80
E0
80
80
ENDCHAR

STARTCHAR 0047
ENCODING 71
SWIDTH 640 0
DWIDTH 6 0
BBX 6 6 0 0
BITMAP
78
84
80
8C
84
7C
ENDCHAR

STARTCHAR 0048
ENCODING 72
SWIDTH 533 0
DWIDTH 5 0
BBX 5 6 0 0
BITMAP
88
88
F8
88
88
88
ENDCHAR

STARTCHAR 0049
ENCODING 73
SWIDTH 106 0
DWIDTH 1 0
BBX 1 6 0 0
BITMAP
80
80
80
80
80
80
ENDCHAR

STARTCHAR 004A
ENCODING 74
SWIDTH 320 0
DWIDTH 3 0
BBX 4 6 0 0
BITMAP
10
10
10
10
90
E0
ENDCHAR

STARTCHAR 004B
ENCODING 75
SWIDTH 533 0
DWIDTH 5 0
BBX 5 6 0 0
BITMAP
90
A0
C0
A0
90
88
ENDCHAR

STARTCHAR 004C
ENCODING 76
SWIDTH 426 0
DWIDTH 4 0
BBX 4 6 0 0
BITMAP
80
80
80
80
80
F0
ENDCHAR

STARTCHAR 004D
ENCODING 77
SWIDTH 640 0
DWIDTH 6 0
BBX 6 6 0 0
BITMAP
84
CC
CC
D4
B4
94
ENDCHAR

STARTCHAR 004E
ENCODING 78
SWIDTH 533 0
DWIDTH 5 0
BBX 5 6 0 0
BITMAP
88
C8
A8
A8
98
88
ENDCHAR

STARTCHAR 004F
ENCODING 79
SWIDTH 640 0
DWIDTH 6 0
BBX 6 6 0 1
BITMAP
78
84
84
84
84
78
ENDCHAR

STARTCHAR 0050
ENCODING 80
SWIDTH 426 0
DWIDTH 4 0
BBX 5 6 0 0
BITMAP
F0
88
90
E0
80
80
ENDCHAR

STARTCHAR 0051
ENCODING 81
SWIDTH 640 0
DWIDTH 6 0
BBX 6 7 0 -1
BITMAP
78
84
84
84
84
48
34
ENDCHAR

STARTCHAR 0052
ENCODING 82
SWIDTH 533 0
DWIDTH 5 0
BBX 5 6 0 0
BITMAP
F8
88
90
F0
88
88
ENDCHAR

STARTCHAR 0053
ENCODING 83
SWIDTH 426 0
DWIDTH 4 0
BBX 5 6 0 0
BITMAP
F0
80
60
18
88
70
ENDCHAR

STARTCHAR 0054
ENCODING 84
SWIDTH 533 0
DWIDTH 5 0
BBX 3 6 1 0
BITMAP
E0
40
40
40
40
40
ENDCHAR

STARTCHAR 0055
ENCODING 85
SWIDTH 533 0
DWIDTH 5 0
BBX 5 6 0 0
BITMAP
88
88
88
88
88
70
ENDCHAR

STARTCHAR 0056
ENCODING 86
SWIDTH 533 0
DWIDTH 5 0
BBX 5 6 0 0
BITMAP
88
88
50
50
50
20
ENDCHAR

STARTCHAR 0057
ENCODING 87
SWIDTH 746 0
DWIDTH 7 0
BBX 8 6 0 0
BITMAP
91
9A
AA
6A
64
24
ENDCHAR

STARTCHAR 0058
ENCODING 88
SWIDTH 533 0
DWIDTH 5 0
BBX 5 6 0 0
BITMAP
90
50
20
60
50
88
ENDCHAR

STARTCHAR 0059
ENCODING 89
SWIDTH 533 0
DWIDTH 5 0
BBX 5 6 0 0
BITMAP
88
50
20
20
20
20
ENDCHAR

STARTCHAR 005A
ENCODING 90
SWIDTH 533 0
DWIDTH 5 0
BBX 5 6 0 0
BITMAP
38
10
20
40
40
F8
ENDCHAR

STARTCHAR 005B
ENCODING 91
SWIDTH 320 0
DWIDTH 3 0
BBX 2 8 1 -1
BITMAP
C0
80
80
80
80
80
80
80
ENDCHAR

STARTCHAR 005C
ENCODING 92
SWIDTH 960 0
DWIDTH 9 0
BBX 9 6 0 0
BITMAP
4900
FF80
5500
FF80
2600
2200
ENDCHAR

STARTCHAR 005D
ENCODING 93
SWIDTH 320 0
DWIDTH 3 0
BBX 1 8 1 -1
BITMAP
80
80
80
80
80
80
80
80
ENDCHAR

STARTCHAR 005E
ENCODING 94
SWIDTH 320 0
DWIDTH 3 0
BBX 2 1 1 6
BITMAP
C0
ENDCHAR

STARTCHAR 005F
ENCODING 95
SWIDTH 960 0
DWIDTH 9 0
BBX 7 1 1 -1
BITMAP
FE
ENDCHAR

STARTCHAR 0060
ENCODING 96
SWIDTH 426 0
DWIDTH 4 0
BBX 2 3 1 4
BITMAP
80
80
40
ENDCHAR

STARTCHAR 0061
ENCODING 97
SWIDTH 426 0
DWIDTH 4 0
BBX 4 5 0 0
BITMAP
60
90
30
D0
F0
ENDCHAR

STARTCHAR 0062
ENCODING 98
SWIDTH 426 0
DWIDTH 4 0
BBX 4 6 0 0
BITMAP
80
A0
D0
90
90
F0
ENDCHAR

STARTCHAR 0063
ENCODING 99
SWIDTH 426 0
DWIDTH 4 0
BBX 4 5 0 0
BITMAP
20
D0
80
80
70
ENDCHAR

STARTCHAR 0064
ENCODING 100
SWIDTH 426 0
DWIDTH 4 0
BBX 4 6 0 0
BITMAP
10
30
D0
90
90
70
ENDCHAR

STARTCHAR 0065
ENCODING 101
SWIDTH 426 0
DWIDTH 4 0
BBX 4 5 0 0
BITMAP
20
D0
F0
80
70
ENDCHAR

STARTCHAR 0066
ENCODING 102
SWIDTH 213 0
DWIDTH 2 0
BBX 1 6 1 0
BITMAP
80
80
80
80
80
80
ENDCHAR

STARTCHAR 0067
ENCODING 103
SWIDTH 426 0
DWIDTH 4 0
BBX 4 7 0 -2
BITMAP
20
D0
90
90
50
B0
60
ENDCHAR

STARTCHAR 0068
ENCODING 104
SWIDTH 320 0
DWIDTH 3 0
BBX 4 6 0 0
BITMAP
80
80
F0
90
90
90
ENDCHAR

STARTCHAR 0069
ENCODING 105
SWIDTH 0 0
DWIDTH 0 0
BBX 1 5 0 1
BITMAP
80
80
80
80
80
ENDCHAR

STARTCHAR 006A
ENCODING 106
SWIDTH 106 0
DWIDTH 1 0
BBX 2 7 0 -1
BITMAP
40
40
40
40
40
40
80
ENDCHAR

STARTCHAR 006B
ENCODING 107
SWIDTH 426 0
DWIDTH 4 0
BBX 4 6 0 0
BITMAP
80
90
A0
C0
A0
90
ENDCHAR

STARTCHAR 006C
ENCODING 108
SWIDTH 0 0
DWIDTH 0 0
BBX 1 6 0 0
BITMAP
80
80
80
80
80
80
ENDCHAR

STARTCHAR 006D
ENCODING 109
SWIDTH 640 0
DWIDTH 6 0
BBX 6 5 0 0
BITMAP
28
D4
A4
A4
A4
ENDCHAR

STARTCHAR 006E
ENCODING 110
SWIDTH 320 0
DWIDTH 3 0
BBX 4 5 0 0
BITMAP
20
D0
90
90
90
ENDCHAR

STARTCHAR 006F
ENCODING 111
SWIDTH 426 0
DWIDTH 4 0
BBX 4 5 0 0
BITMAP
20
D0
90
90
70
ENDCHAR

STARTCHAR 0070
ENCODING 112
SWIDTH 426 0
DWIDTH 4 0
BBX 4 7 0 -2
BITMAP
20
D0
90
90
D0
A0
80
ENDCHAR

STARTCHAR 0071
ENCODING 113
SWIDTH 426 0
DWIDTH 4 0
BBX 4 6 0 -2
BITMAP
20
D0
90
90
50
30
ENDCHAR

STARTCHAR 0072
ENCODING 114
SWIDTH 213 0
DWIDTH 2 0
BBX 2 4 0 1
BITMAP
C0
80
80
80
ENDCHAR

STARTCHAR 0073
ENCODING 115
SWIDTH 320 0
DWIDTH 3 0
BBX 4 5 0 0
BITMAP
60
90
40
30
E0
ENDCHAR

STARTCHAR 0074
ENCODING 116
SWIDTH 213 0
DWIDTH 2 0
BBX 2 5 0 1
BITMAP
80
80
80
80
C0
ENDCHAR

STARTCHAR 0075
ENCODING 117
SWIDTH 320 0
DWIDTH 3 0
BBX 4 4 0 0
BITMAP
90
90
90
F0
ENDCHAR

STARTCHAR 0076
ENCODING 118
SWIDTH 426 0
DWIDTH 4 0
BBX 4 4 0 0
BITMAP
10
A0
60
20
ENDCHAR

STARTCHAR 0077
ENCODING 119
SWIDTH 640 0
DWIDTH 6 0
BBX 6 4 0 0
BITMAP
94
B4
78
48
ENDCHAR

STARTCHAR 0078
ENCODING 120
SWIDTH 426 0
DWIDTH 4 0
BBX 4 4 0 0
BITMAP
70
20
60
90
ENDCHAR

STARTCHAR 0079
ENCODING 121
SWIDTH 426 0
DWIDTH 4 0
BBX 4 6 0 -2
BITMAP
90
60
60
20
40
40
ENDCHAR

STARTCHAR 007A
ENCODING 122
SWIDTH 426 0
DWIDTH 4 0
BBX 3 4 0 0
BITMAP
60
40
40
E0
ENDCHAR

STARTCHAR 007B
ENCODING 123
SWIDTH 320 0
DWIDTH 3 0
BBX 2 8 1 -1
BITMAP
80
80
80
80
80
80
80
40
ENDCHAR

STARTCHAR 007C
ENCODING 124
SWIDTH 213 0
DWIDTH 2 0
BBX 1 7 1 -1
BITMAP
80
80
80
80
80
80
80
ENDCHAR

STARTCHAR 007D
ENCODING 125
SWIDTH 320 0
DWIDTH 3 0
BBX 2 8 1 -2
BITMAP
80
80
80
80
C0
80
80
80
ENDCHAR

STARTCHAR 007E
ENCODING 126
SWIDTH 426 0
DWIDTH 4 0
BBX 4 1 0 2
BITMAP
F0
ENDCHAR

STARTCHAR 007F
ENCODING 127
SWIDTH 960 0
DWIDTH 9 0
BBX 0 0 0 0
BITMAP
ENDCHAR

STARTCHAR 00A0
ENCODING 160
SWIDTH 426 0
DWIDTH 4 0
BBX 0 0 0 0
BITMAP
ENDCHAR

STARTCHAR 00A1
ENCODING 161
SWIDTH 960 0
DWIDTH 9 0
BBX 1 7 4 -1
BITMAP
80
00
80
80
80
80
80
ENDCHAR

STARTCHAR 00A4
ENCODING 164
SWIDTH 960 0
DWIDTH 9 0
BBX 7 7 1 -1
BITMAP
82
7C
84
84
84
4C
B2
ENDCHAR

STARTCHAR 00A7
ENCODING 167
SWIDTH 960 0
DWIDTH 9 0
BBX 3 8 3 -1
BITMAP
40
A0
80
E0
A0
E0
20
E0
ENDCHAR

STARTCHAR 00A8
ENCODING 168
SWIDTH 960 0
DWIDTH 9 0
BBX 0 0 0 0
BITMAP
ENDCHAR

STARTCHAR 00AA
ENCODING 170
SWIDTH 960 0
DWIDTH 9 0
BBX 5 6 2 0
BITMAP
60
10
70
90
68
70
ENDCHAR

STARTCHAR 00AD
ENCODING 173
SWIDTH 960 0
DWIDTH 9 0
BBX 1 1 4 2
BITMAP
80
ENDCHAR

STARTCHAR 00B0
ENCODING 176
SWIDTH 960 0
DWIDTH 9 0
BBX 2 2 3 5
BITMAP
C0
C0
ENDCHAR

STARTCHAR 00B1
ENCODING 177
SWIDTH 960 0
DWIDTH 9 0
BBX 3 6 3 0
BITMAP
40
40
40
E0
40
E0
ENDCHAR

STARTCHAR 00B2
ENCODING 178
SWIDTH 960 0
DWIDTH 9 0
BBX 3 4 3 3
BITMAP
40
20
40
C0
ENDCHAR

STARTCHAR 00B3
ENCODING 179
SWIDTH 960 0
DWIDTH 9 0
BBX 3 4 3 3
BITMAP
C0
20
20
E0
ENDCHAR

STARTCHAR 00B4
ENCODING 180
SWIDTH 960 0
DWIDTH 9 0
BBX 1 1 4 6
BITMAP
80
ENDCHAR

STARTCHAR 00B6
ENCODING 182
SWIDTH 960 0
DWIDTH 9 0
BBX 5 7 2 -1
BITMAP
20
E8
A8
A8
68
28
28
ENDCHAR

STARTCHAR 00B7
ENCODING 183
SWIDTH 960 0
DWIDTH 9 0
BBX 1 1 4 2
BITMAP
80
ENDCHAR

STARTCHAR 00B8
ENCODING 184
SWIDTH 960 0
DWIDTH 9 0
BBX 1 1 4 -1
BITMAP
80
ENDCHAR

STARTCHAR 00B9
ENCODING 185
SWIDTH 960 0
DWIDTH 9 0
BBX 1 2 4 4
BITMAP
80
80
ENDCHAR

STARTCHAR 00BA
ENCODING 186
SWIDTH 960 0
DWIDTH 9 0
BBX 5 5 2 0
BITMAP
F0
88
90
50
70
ENDCHAR

STARTCHAR 00BC
ENCODING 188
SWIDTH 960 0
DWIDTH 9 0
BBX 5 5 2 1
BITMAP
90
A0
A8
58
08
ENDCHAR

STARTCHAR 00BD
ENCODING 189
SWIDTH 960 0
DWIDTH 9 0
BBX 6 6 2 0
BITMAP
80
B0
A0
DC
48
18
ENDCHAR

STARTCHAR 00BE
ENCODING 190
SWIDTH 960 0
DWIDTH 9 0
BBX 6 6 1 0
BITMAP
64
28
28
B4
6C
20
ENDCHAR

STARTCHAR 00BF
ENCODING 191
SWIDTH 960 0
DWIDTH 9 0
BBX 3 7 3 -1
BITMAP
20
00
00
40
80
80
40
ENDCHAR

STARTCHAR 00C6
ENCODING 198
SWIDTH 960 0
DWIDTH 9 0
BBX 8 6 0 0
BITMAP
0F
18
28
3E
48
8F
ENDCHAR

STARTCHAR 00D0
ENCODING 208
SWIDTH 960 0
DWIDTH 9 0
BBX 6 6 2 0
BITMAP
F8
88
84
C4
88
F8
ENDCHAR

STARTCHAR 00D7
ENCODING 215
SWIDTH 853 0
DWIDTH 8 0
BBX 5 5 2 0
BITMAP
88
50
20
50
88
ENDCHAR

STARTCHAR 00D8
ENCODING 216
SWIDTH 960 0
DWIDTH 9 0
BBX 7 8 1 -1
BITMAP
12
6C
8C
94
A4
44
68
10
ENDCHAR

STARTCHAR 00DE
ENCODING 222
SWIDTH 960 0
DWIDTH 9 0
BBX 5 6 2 0
BITMAP
80
F0
88
90
E0
80
ENDCHAR

STARTCHAR 00DF
ENCODING 223
SWIDTH 960 0
DWIDTH 9 0
BBX 3 6 3 0
BITMAP
E0
A0
C0
A0
A0
A0
ENDCHAR

STARTCHAR 00E6
ENCODING 230
SWIDTH 960 0
DWIDTH 9 0
BBX 7 5 1 0
BITMAP
6C
92
7E
90
FC
ENDCHAR

STARTCHAR 00F0
ENCODING 240
SWIDTH 960 0
DWIDTH 9 0
BBX 3 6 3 0
BITMAP
40
20
E0
A0
A0
E0
ENDCHAR

STARTCHAR 00F7
ENCODING 247
SWIDTH 960 0
DWIDTH 9 0
BBX 5 6 2 0
BITMAP
20
20
00
F8
00
20
ENDCHAR

STARTCHAR 00F8
ENCODING 248
SWIDTH 960 0
DWIDTH 9 0
BBX 5 5 2 0
BITMAP
28
D0
A8
48
F0
ENDCHAR

STARTCHAR 00FE
ENCODING 254
SWIDTH 960 0
DWIDTH 9 0
BBX 5 7 2 -1
BITMAP
80
A0
D0
88
90
D0
A0
ENDCHAR

STARTCHAR 0111
ENCODING 273
SWIDTH 960 0
DWIDTH 9 0
BBX 5 6 2 0
BITMAP
38
70
90
90
90
F0
ENDCHAR

STARTCHAR 0126
ENCODING 294
SWIDTH 960 0
DWIDTH 9 0
BBX 5 6 2 0
BITMAP
88
F8
F8
88
88
88
ENDCHAR

STARTCHAR 0127
ENCODING 295
SWIDTH 960 0
DWIDTH 9 0
BBX 5 6 2 0
BITMAP
E0
70
48
48
48
48
ENDCHAR

STARTCHAR 0131
ENCODING 305
SWIDTH 960 0
DWIDTH 9 0
BBX 1 5 4 0
BITMAP
80
80
80
80
80
ENDCHAR

STARTCHAR 0132
ENCODING 306
SWIDTH 960 0
DWIDTH 9 0
BBX 5 6 2 0
BITMAP
88
88
88
88
C8
F0
ENDCHAR

STARTCHAR 0133
ENCODING 307
SWIDTH 960 0
DWIDTH 9 0
BBX 3 7 3 -1
BITMAP
A0
A0
A0
A0
A0
20
20
ENDCHAR

STARTCHAR 0138
ENCODING 312
SWIDTH 960 0
DWIDTH 9 0
BBX 3 4 3 0
BITMAP
E0
C0
C0
A0
ENDCHAR

STARTCHAR 013F
ENCODING 319
SWIDTH 960 0
DWIDTH 9 0
BBX 2 6 3 0
BITMAP
80
80
C0
80
80
C0
ENDCHAR

STARTCHAR 0140
ENCODING 320
SWIDTH 960 0
DWIDTH 9 0
BBX 3 6 3 0
BITMAP
80
80
A0
80
80
80
ENDCHAR

STARTCHAR 0141
ENCODING 321
SWIDTH 960 0
DWIDTH 9 0
BBX 4 6 2 0
BITMAP
40
60
40
40
C0
70
ENDCHAR

STARTCHAR 0142
ENCODING 322
SWIDTH 960 0
DWIDTH 9 0
BBX 3 6 3 0
BITMAP
40
60
40
40
C0
40
ENDCHAR

STARTCHAR 0149
ENCODING 329
SWIDTH 960 0
DWIDTH 9 0
BBX 5 5 2 0
BITMAP
80
58
48
48
48
ENDCHAR

STARTCHAR 014A
ENCODING 330
SWIDTH 960 0
DWIDTH 9 0
BBX 5 6 2 0
BITMAP
F0
88
88
88
88
90
ENDCHAR

STARTCHAR 014B
ENCODING 331
SWIDTH 960 0
DWIDTH 9 0
BBX 3 7 3 -2
BITMAP
60
A0
A0
A0
A0
20
20
ENDCHAR

STARTCHAR 0152
ENCODING 338
SWIDTH 960 0
DWIDTH 9 0
BBX 8 6 0 1
BITMAP
7F
88
88
8E
88
7F
ENDCHAR

STARTCHAR 0153
ENCODING 339
SWIDTH 960 0
DWIDTH 9 0
BBX 7 5 1 0
BITMAP
64
9A
9E
90
EE
ENDCHAR

STARTCHAR 0166
ENCODING 358
SWIDTH 960 0
DWIDTH 9 0
BBX 3 6 3 0
BITMAP
E0
40
40
40
40
40
ENDCHAR

STARTCHAR 0167
ENCODING 359
SWIDTH 960 0
DWIDTH 9 0
BBX 1 6 4 0
BITMAP
80
80
80
80
80
80
ENDCHAR

STARTCHAR 02C7
ENCODING 711
SWIDTH 960 0
DWIDTH 9 0
BBX 3 1 3 6
BITMAP
E0
ENDCHAR

STARTCHAR 02D0
ENCODING 720
SWIDTH 960 0
DWIDTH 9 0
BBX 1 4 4 1
BITMAP
80
80
00
80
ENDCHAR

STARTCHAR 02D8
ENCODING 728
SWIDTH 960 0
DWIDTH 9 0
BBX 3 1 3 6
BITMAP
E0
ENDCHAR

STARTCHAR 02D9
ENCODING 729
SWIDTH 960 0
DWIDTH 9 0
BBX 1 1 4 6
BITMAP
80
ENDCHAR

STARTCHAR 02DA
ENCODING 730
SWIDTH 960 0
DWIDTH 9 0
BBX 1 1 4 6
BITMAP
80
ENDCHAR

STARTCHAR 02DB
ENCODING 731
SWIDTH 960 0
DWIDTH 9 0
BBX 0 0 0 0
BITMAP
ENDCHAR

STARTCHAR 02DD
ENCODING 733
SWIDTH 960 0
DWIDTH 9 0
BBX 1 1 3 6
BITMAP
80
ENDCHAR

STARTCHAR 0391
ENCODING 913
SWIDTH 960 0
DWIDTH 9 0
BBX 6 6 1 0
BITMAP
0C
14
14
24
5C
84
ENDCHAR

STARTCHAR 0392
ENCODING 914
SWIDTH 960 0
DWIDTH 9 0
BBX 5 6 2 0
BITMAP
78
48
70
88
88
F0
ENDCHAR

STARTCHAR 0393
ENCODING 915
SWIDTH 960 0
DWIDTH 9 0
BBX 4 6 2 0
BITMAP
70
40
40
80
80
80
ENDCHAR

STARTCHAR 0394
ENCODING 916
SWIDTH 960 0
DWIDTH 9 0
BBX 5 6 2 0
BITMAP
08
38
28
48
88
F8
ENDCHAR

STARTCHAR 0395
ENCODING 917
SWIDTH 960 0
DWIDTH 9 0
BBX 5 6 2 0
BITMAP
78
40
70
80
80
E0
ENDCHAR

STARTCHAR 0396
ENCODING 918
SWIDTH 960 0
DWIDTH 9 0
BBX 6 6 1 0
BITMAP
1C
08
10
20
40
F0
ENDCHAR

STARTCHAR 0397
ENCODING 919
SWIDTH 960 0
DWIDTH 9 0
BBX 7 6 1 0
BITMAP
42
44
44
7C
88
88
ENDCHAR

STARTCHAR 0398
ENCODING 920
SWIDTH 960 0
DWIDTH 9 0
BBX 5 6 2 0
BITMAP
78
88
F8
88
88
F0
ENDCHAR

STARTCHAR 0399
ENCODING 921
SWIDTH 960 0
DWIDTH 9 0
BBX 3 6 3 0
BITMAP
20
40
40
40
80
80
ENDCHAR

STARTCHAR 039A
ENCODING 922
SWIDTH 960 0
DWIDTH 9 0
BBX 6 6 1 0
BITMAP
24
58
20
60
90
88
ENDCHAR

STARTCHAR 039B
ENCODING 923
SWIDTH 960 0
DWIDTH 9 0
BBX 5 6 2 0
BITMAP
18
28
28
48
88
88
ENDCHAR

STARTCHAR 039C
ENCODING 924
SWIDTH 960 0
DWIDTH 9 0
BBX 8 6 0 0
BITMAP
21
53
55
55
9A
92
ENDCHAR

STARTCHAR 039D
ENCODING 925
SWIDTH 960 0
DWIDTH 9 0
BBX 7 6 1 0
BITMAP
62
64
54
94
98
88
ENDCHAR

STARTCHAR 039E
ENCODING 926
SWIDTH 960 0
DWIDTH 9 0
BBX 3 6 3 0
BITMAP
60
00
E0
00
00
C0
ENDCHAR

STARTCHAR 039F
ENCODING 927
SWIDTH 960 0
DWIDTH 9 0
BBX 5 6 2 1
BITMAP
78
88
88
88
88
F0
ENDCHAR

STARTCHAR 03A0
ENCODING 928
SWIDTH 960 0
DWIDTH 9 0
BBX 7 6 1 0
BITMAP
3E
44
44
44
88
88
ENDCHAR

STARTCHAR 03A1
ENCODING 929
SWIDTH 960 0
DWIDTH 9 0
BBX 5 6 2 0
BITMAP
78
48
88
F0
80
80
ENDCHAR

STARTCHAR 03A3
ENCODING 931
SWIDTH 960 0
DWIDTH 9 0
BBX 4 6 2 0
BITMAP
70
20
20
40
80
E0
ENDCHAR

STARTCHAR 03A4
ENCODING 932
SWIDTH 960 0
DWIDTH 9 0
BBX 4 6 2 0
BITMAP
70
40
40
40
40
80
ENDCHAR

STARTCHAR 03A5
ENCODING 933
SWIDTH 960 0
DWIDTH 9 0
BBX 5 6 2 0
BITMAP
88
90
A0
40
40
80
ENDCHAR

STARTCHAR 03A6
ENCODING 934
SWIDTH 960 0
DWIDTH 9 0
BBX 7 6 1 0
BITMAP
3C
54
92
94
A4
78
ENDCHAR

STARTCHAR 03A7
ENCODING 935
SWIDTH 960 0
DWIDTH 9 0
BBX 6 6 1 0
BITMAP
24
28
10
30
48
88
ENDCHAR

STARTCHAR 03A8
ENCODING 936
SWIDTH 960 0
DWIDTH 9 0
BBX 6 6 1 0
BITMAP
94
94
A4
A8
70
40
ENDCHAR

STARTCHAR 03A9
ENCODING 937
SWIDTH 960 0
DWIDTH 9 0
BBX 6 6 2 0
BITMAP
78
84
84
88
50
F0
ENDCHAR

STARTCHAR 03B1
ENCODING 945
SWIDTH 960 0
DWIDTH 9 0
BBX 5 4 2 0
BITMAP
78
90
90
F0
ENDCHAR

STARTCHAR 03B2
ENCODING 946
SWIDTH 960 0
DWIDTH 9 0
BBX 5 7 2 -2
BITMAP
38
48
50
48
88
D0
A0
ENDCHAR

STARTCHAR 03B3
ENCODING 947
SWIDTH 960 0
DWIDTH 9 0
BBX 3 5 3 -2
BITMAP
A0
C0
C0
80
80
ENDCHAR

STARTCHAR 03B4
ENCODING 948
SWIDTH 960 0
DWIDTH 9 0
BBX 4 6 2 0
BITMAP
30
20
D0
90
90
E0
ENDCHAR

STARTCHAR 03B5
ENCODING 949
SWIDTH 960 0
DWIDTH 9 0
BBX 3 4 3 0
BITMAP
C0
60
80
E0
ENDCHAR

STARTCHAR 03B6
ENCODING 950
SWIDTH 960 0
DWIDTH 9 0
BBX 4 8 2 -2
BITMAP
10
20
40
80
80
80
60
40
ENDCHAR

STARTCHAR 03B7
ENCODING 951
SWIDTH 960 0
DWIDTH 9 0
BBX 5 4 2 0
BITMAP
78
48
90
90
ENDCHAR

STARTCHAR 03B8
ENCODING 952
SWIDTH 960 0
DWIDTH 9 0
BBX 5 6 2 0
BITMAP
78
48
78
90
90
E0
ENDCHAR

STARTCHAR 03B9
ENCODING 953
SWIDTH 960 0
DWIDTH 9 0
BBX 1 4 4 0
BITMAP
80
80
80
80
ENDCHAR

STARTCHAR 03BA
ENCODING 954
SWIDTH 960 0
DWIDTH 9 0
BBX 4 4 2 0
BITMAP
50
60
A0
90
ENDCHAR

STARTCHAR 03BB
ENCODING 955
SWIDTH 960 0
DWIDTH 9 0
BBX 4 6 2 0
BITMAP
10
10
10
30
50
90
ENDCHAR

STARTCHAR 03BC
ENCODING 956
SWIDTH 960 0
DWIDTH 9 0
BBX 5 5 2 -2
BITMAP
48
48
90
E0
80
ENDCHAR

STARTCHAR 03BD
ENCODING 957
SWIDTH 960 0
DWIDTH 9 0
BBX 4 4 2 0
BITMAP
90
A0
A0
40
ENDCHAR

STARTCHAR 03BE
ENCODING 958
SWIDTH 960 0
DWIDTH 9 0
BBX 4 8 2 -2
BITMAP
10
60
30
C0
80
80
60
40
ENDCHAR

STARTCHAR 03BF
ENCODING 959
SWIDTH 960 0
DWIDTH 9 0
BBX 5 4 2 0
BITMAP
78
88
90
F0
ENDCHAR

STARTCHAR 03C0
ENCODING 960
SWIDTH 960 0
DWIDTH 9 0
BBX 5 4 2 0
BITMAP
78
50
90
90
ENDCHAR

STARTCHAR 03C1
ENCODING 961
SWIDTH 960 0
DWIDTH 9 0
BBX 5 6 2 -1
BITMAP
78
48
48
D0
A0
80
ENDCHAR

STARTCHAR 03C3
ENCODING 963
SWIDTH 960 0
DWIDTH 9 0
BBX 4 4 2 0
BITMAP
70
90
90
E0
ENDCHAR

STARTCHAR 03C4
ENCODING 964
SWIDTH 960 0
DWIDTH 9 0
BBX 3 4 3 0
BITMAP
E0
80
80
80
ENDCHAR

STARTCHAR 03C5
ENCODING 965
SWIDTH 960 0
DWIDTH 9 0
BBX 4 4 2 0
BITMAP
50
90
90
E0
ENDCHAR

STARTCHAR 03C6
ENCODING 966
SWIDTH 960 0
DWIDTH 9 0
BBX 5 6 2 -2
BITMAP
F8
A8
A8
D0
60
40
ENDCHAR

STARTCHAR 03C7
ENCODING 967
SWIDTH 960 0
DWIDTH 9 0
BBX 4 4 2 0
BITMAP
50
20
60
90
ENDCHAR

STARTCHAR 03C8
ENCODING 968
SWIDTH 960 0
DWIDTH 9 0
BBX 6 5 1 -2
BITMAP
54
94
A8
68
30
ENDCHAR

STARTCHAR 03C9
ENCODING 969
SWIDTH 960 0
DWIDTH 9 0
BBX 5 4 2 0
BITMAP
88
A8
A8
F0
ENDCHAR

STARTCHAR 0401
ENCODING 1025
SWIDTH 960 0
DWIDTH 9 0
BBX 5 7 2 0
BITMAP
50
F8
80
80
E0
80
F0
ENDCHAR

STARTCHAR 0410
ENCODING 1040
SWIDTH 960 0
DWIDTH 9 0
BBX 5 6 2 0
BITMAP
60
50
50
90
E8
88
ENDCHAR

STARTCHAR 0411
ENCODING 1041
SWIDTH 960 0
DWIDTH 9 0
BBX 5 6 2 0
BITMAP
E0
80
E0
98
88
F0
ENDCHAR

STARTCHAR 0412
ENCODING 1042
SWIDTH 960 0
DWIDTH 9 0
BBX 5 6 2 0
BITMAP
F0
88
F0
88
88
F0
ENDCHAR

STARTCHAR 0413
ENCODING 1043
SWIDTH 960 0
DWIDTH 9 0
BBX 3 6 3 0
BITMAP
E0
80
80
80
80
80
ENDCHAR

STARTCHAR 0414
ENCODING 1044
SWIDTH 960 0
DWIDTH 9 0
BBX 7 8 1 -2
BITMAP
7C
44
44
44
44
FE
82
82
ENDCHAR

STARTCHAR 0415
ENCODING 1045
SWIDTH 960 0
DWIDTH 9 0
BBX 4 6 2 0
BITMAP
F0
80
F0
80
80
F0
ENDCHAR

STARTCHAR 0416
ENCODING 1046
SWIDTH 960 0
DWIDTH 9 0
BBX 7 6 1 0
BITMAP
54
54
38
D4
92
92
ENDCHAR

STARTCHAR 0417
ENCODING 1047
SWIDTH 960 0
DWIDTH 9 0
BBX 5 6 2 0
BITMAP
F8
88
10
08
88
78
ENDCHAR

STARTCHAR 0418
ENCODING 1048
SWIDTH 960 0
DWIDTH 9 0
BBX 5 6 2 0
BITMAP
88
98
A8
C8
C8
88
ENDCHAR

STARTCHAR 0419
ENCODING 1049
SWIDTH 960 0
DWIDTH 9 0
BBX 5 7 2 0
BITMAP
50
A8
88
B8
A8
C8
88
ENDCHAR

STARTCHAR 041A
ENCODING 1050
SWIDTH 960 0
DWIDTH 9 0
BBX 4 6 2 0
BITMAP
90
A0
E0
90
90
90
ENDCHAR

STARTCHAR 041B
ENCODING 1051
SWIDTH 960 0
DWIDTH 9 0
BBX 5 6 2 0
BITMAP
F8
88
88
88
88
88
ENDCHAR

STARTCHAR 041C
ENCODING 1052
SWIDTH 960 0
DWIDTH 9 0
BBX 6 6 2 0
BITMAP
8C
94
94
54
64
24
ENDCHAR

STARTCHAR 041D
ENCODING 1053
SWIDTH 960 0
DWIDTH 9 0
BBX 5 6 2 0
BITMAP
88
88
F8
88
88
88
ENDCHAR

STARTCHAR 041E
ENCODING 1054
SWIDTH 960 0
DWIDTH 9 0
BBX 5 6 2 0
BITMAP
F8
88
88
88
88
70
ENDCHAR

STARTCHAR 041F
ENCODING 1055
SWIDTH 960 0
DWIDTH 9 0
BBX 5 6 2 0
BITMAP
F8
88
88
88
88
88
ENDCHAR

STARTCHAR 0420
ENCODING 1056
SWIDTH 960 0
DWIDTH 9 0
BBX 5 6 2 0
BITMAP
F0
88
90
E0
80
80
ENDCHAR

STARTCHAR 0421
ENCODING 1057
SWIDTH 960 0
DWIDTH 9 0
BBX 5 6 2 0
BITMAP
F8
88
80
80
88
70
ENDCHAR

STARTCHAR 0422
ENCODING 1058
SWIDTH 960 0
DWIDTH 9 0
BBX 3 6 3 0
BITMAP
E0
40
40
40
40
40
ENDCHAR

STARTCHAR 0423
ENCODING 1059
SWIDTH 960 0
DWIDTH 9 0
BBX 5 6 2 0
BITMAP
88
90
50
60
20
40
ENDCHAR

STARTCHAR 0424
ENCODING 1060
SWIDTH 960 0
DWIDTH 9 0
BBX 7 6 1 0
BITMAP
38
D4
92
92
54
38
ENDCHAR

STARTCHAR 0425
ENCODING 1061
SWIDTH 960 0
DWIDTH 9 0
BBX 5 6 2 0
BITMAP
90
50
20
60
50
88
ENDCHAR

STARTCHAR 0426
ENCODING 1062
SWIDTH 960 0
DWIDTH 9 0
BBX 5 7 2 -2
BITMAP
90
90
90
90
90
F8
08
ENDCHAR

STARTCHAR 0427
ENCODING 1063
SWIDTH 960 0
DWIDTH 9 0
BBX 4 6 3 0
BITMAP
90
90
90
F0
10
10
ENDCHAR

STARTCHAR 0428
ENCODING 1064
SWIDTH 960 0
DWIDTH 9 0
BBX 5 6 2 0
BITMAP
A8
A8
A8
A8
A8
F8
ENDCHAR

STARTCHAR 0429
ENCODING 1065
SWIDTH 960 0
DWIDTH 9 0
BBX 7 8 1 -2
BITMAP
A4
A4
A4
A4
A4
A4
5A
02
ENDCHAR

STARTCHAR 042A
ENCODING 1066
SWIDTH 960 0
DWIDTH 9 0
BBX 4 6 3 0
BITMAP
80
80
E0
90
90
F0
ENDCHAR

STARTCHAR 042B
ENCODING 1067
SWIDTH 960 0
DWIDTH 9 0
BBX 5 6 2 0
BITMAP
88
88
C8
A8
98
E8
ENDCHAR

STARTCHAR 042C
ENCODING 1068
SWIDTH 960 0
DWIDTH 9 0
BBX 5 6 2 0
BITMAP
80
80
E0
98
88
F0
ENDCHAR

STARTCHAR 042D
ENCODING 1069
SWIDTH 960 0
DWIDTH 9 0
BBX 5 6 2 0
BITMAP
F8
08
08
18
08
F0
ENDCHAR

STARTCHAR 042E
ENCODING 1070
SWIDTH 960 0
DWIDTH 9 0
BBX 7 6 1 0
BITMAP
BE
C2
C2
C2
C2
BC
ENDCHAR

STARTCHAR 042F
ENCODING 1071
SWIDTH 960 0
DWIDTH 9 0
BBX 5 6 2 0
BITMAP
F8
88
48
B8
88
88
ENDCHAR

STARTCHAR 0430
ENCODING 1072
SWIDTH 960 0
DWIDTH 9 0
BBX 4 5 2 0
BITMAP
60
10
30
D0
F0
ENDCHAR

STARTCHAR 0431
ENCODING 1073
SWIDTH 960 0
DWIDTH 9 0
BBX 5 6 2 1
BITMAP
60
80
F0
88
88
70
ENDCHAR

STARTCHAR 0432
ENCODING 1074
SWIDTH 960 0
DWIDTH 9 0
BBX 3 5 3 0
BITMAP
C0
A0
C0
A0
E0
ENDCHAR

STARTCHAR 0433
ENCODING 1075
SWIDTH 960 0
DWIDTH 9 0
BBX 3 5 3 0
BITMAP
E0
80
80
80
80
ENDCHAR

STARTCHAR 0434
ENCODING 1076
SWIDTH 960 0
DWIDTH 9 0
BBX 5 7 2 -2
BITMAP
70
90
90
90
F0
88
88
ENDCHAR

STARTCHAR 0435
ENCODING 1077
SWIDTH 960 0
DWIDTH 9 0
BBX 5 5 2 0
BITMAP
20
D0
F8
80
70
ENDCHAR

STARTCHAR 0436
ENCODING 1078
SWIDTH 960 0
DWIDTH 9 0
BBX 5 5 2 0
BITMAP
20
B8
70
A8
A8
ENDCHAR

STARTCHAR 0437
ENCODING 1079
SWIDTH 960 0
DWIDTH 9 0
BBX 3 5 3 0
BITMAP
E0
20
60
20
E0
ENDCHAR

STARTCHAR 0438
ENCODING 1080
SWIDTH 960 0
DWIDTH 9 0
BBX 3 4 3 1
BITMAP
A0
E0
A0
A0
ENDCHAR

STARTCHAR 0439
ENCODING 1081
SWIDTH 960 0
DWIDTH 9 0
BBX 3 6 3 0
BITMAP
A0
40
A0
E0
A0
A0
ENDCHAR

STARTCHAR 043A
ENCODING 1082
SWIDTH 960 0
DWIDTH 9 0
BBX 3 4 3 1
BITMAP
E0
C0
A0
20
ENDCHAR

STARTCHAR 043B
ENCODING 1083
SWIDTH 960 0
DWIDTH 9 0
BBX 3 5 3 0
BITMAP
E0
A0
A0
A0
80
ENDCHAR

STARTCHAR 043C
ENCODING 1084
SWIDTH 960 0
DWIDTH 9 0
BBX 5 5 2 0
BITMAP
88
88
D8
E8
A8
ENDCHAR

STARTCHAR 043D
ENCODING 1085
SWIDTH 960 0
DWIDTH 9 0
BBX 3 4 3 1
BITMAP
A0
E0
A0
A0
ENDCHAR

STARTCHAR 043E
ENCODING 1086
SWIDTH 960 0
DWIDTH 9 0
BBX 5 5 2 0
BITMAP
70
90
88
90
70
ENDCHAR

STARTCHAR 043F
ENCODING 1087
SWIDTH 960 0
DWIDTH 9 0
BBX 3 4 3 0
BITMAP
E0
A0
A0
A0
ENDCHAR

STARTCHAR 0440
ENCODING 1088
SWIDTH 960 0
DWIDTH 9 0
BBX 5 7 2 -2
BITMAP
B0
D0
88
90
D0
A0
80
ENDCHAR

STARTCHAR 0441
ENCODING 1089
SWIDTH 960 0
DWIDTH 9 0
BBX 5 5 2 0
BITMAP
20
D0
80
88
70
ENDCHAR

STARTCHAR 0442
ENCODING 1090
SWIDTH 960 0
DWIDTH 9 0
BBX 3 5 3 0
BITMAP
E0
40
40
40
40
ENDCHAR

STARTCHAR 0443
ENCODING 1091
SWIDTH 960 0
DWIDTH 9 0
BBX 4 6 2 -1
BITMAP
90
50
60
20
20
40
ENDCHAR

STARTCHAR 0444
ENCODING 1092
SWIDTH 960 0
DWIDTH 9 0
BBX 7 8 1 -2
BITMAP
10
7C
92
92
92
94
78
10
ENDCHAR

STARTCHAR 0445
ENCODING 1093
SWIDTH 960 0
DWIDTH 9 0
BBX 3 4 3 1
BITMAP
A0
40
C0
A0
ENDCHAR

STARTCHAR 0446
ENCODING 1094
SWIDTH 960 0
DWIDTH 9 0
BBX 5 7 2 -2
BITMAP
90
90
90
90
90
68
08
ENDCHAR

STARTCHAR 0447
ENCODING 1095
SWIDTH 960 0
DWIDTH 9 0
BBX 3 3 3 1
BITMAP
A0
A0
60
ENDCHAR

STARTCHAR 0448
ENCODING 1096
SWIDTH 960 0
DWIDTH 9 0
BBX 5 5 2 0
BITMAP
A8
A8
A8
A8
F8
ENDCHAR

STARTCHAR 0449
ENCODING 1097
SWIDTH 960 0
DWIDTH 9 0
BBX 5 6 2 -2
BITMAP
08
C8
C8
C8
C8
38
ENDCHAR

STARTCHAR 044A
ENCODING 1098
SWIDTH 960 0
DWIDTH 9 0
BBX 5 5 2 0
BITMAP
C0
40
30
48
78
ENDCHAR

STARTCHAR 044B
ENCODING 1099
SWIDTH 960 0
DWIDTH 9 0
BBX 5 5 2 0
BITMAP
88
88
E8
A8
E8
ENDCHAR

STARTCHAR 044C
ENCODING 1100
SWIDTH 960 0
DWIDTH 9 0
BBX 3 4 3 1
BITMAP
80
E0
A0
E0
ENDCHAR

STARTCHAR 044D
ENCODING 1101
SWIDTH 960 0
DWIDTH 9 0
BBX 4 5 3 0
BITMAP
C0
20
70
20
E0
ENDCHAR

STARTCHAR 044E
ENCODING 1102
SWIDTH 960 0
DWIDTH 9 0
BBX 5 5 2 0
BITMAP
30
C8
C8
C8
F8
ENDCHAR

STARTCHAR 044F
ENCODING 1103
SWIDTH 960 0
DWIDTH 9 0
BBX 3 5 3 0
BITMAP
60
A0
A0
E0
80
ENDCHAR

STARTCHAR 0451
ENCODING 1105
SWIDTH 960 0
DWIDTH 9 0
BBX 5 6 2 0
BITMAP
50
20
D0
F8
80
70
ENDCHAR

STARTCHAR 2015
ENCODING 8213
SWIDTH 960 0
DWIDTH 9 0
BBX 7 1 1 2
BITMAP
FE
ENDCHAR

STARTCHAR 2018
ENCODING 8216
SWIDTH 960 0
DWIDTH 9 0
BBX 1 1 6 6
BITMAP
80
ENDCHAR

STARTCHAR 2019
ENCODING 8217
SWIDTH 960 0
DWIDTH 9 0
BBX 1 1 2 5
BITMAP
80
ENDCHAR

STARTCHAR 201C
ENCODING 8220
SWIDTH 960 0
DWIDTH 9 0
BBX 3 1 4 6
BITMAP
A0
ENDCHAR

STARTCHAR 201D
ENCODING 8221
SWIDTH 960 0
DWIDTH 9 0
BBX 3 2 2 5
BITMAP
A0
80
ENDCHAR

STARTCHAR 2020
ENCODING 8224
SWIDTH 960 0
DWIDTH 9 0
BBX 5 8 2 -1
BITMAP
20
20
F8
20
20
20
20
20
ENDCHAR

STARTCHAR 2021
ENCODING 8225
SWIDTH 960 0
DWIDTH 9 0
BBX 3 8 3 -1
BITMAP
40
40
E0
E0
40
40
40
40
ENDCHAR

STARTCHAR 2025
ENCODING 8229
SWIDTH 960 0
DWIDTH 9 0
BBX 5 1 2 2
BITMAP
88
ENDCHAR

STARTCHAR 2026
ENCODING 8230
SWIDTH 960 0
DWIDTH 9 0
BBX 7 1 1 2
BITMAP
92
ENDCHAR

STARTCHAR 2030
ENCODING 8240
SWIDTH 960 0
DWIDTH 9 0
BBX 7 8 1 -1
BITMAP
C4
C8
D0
E0
36
6E
AE
3E
ENDCHAR

STARTCHAR 2032
ENCODING 8242
SWIDTH 960 0
DWIDTH 9 0
BBX 1 1 4 5
BITMAP
80
ENDCHAR

STARTCHAR 2033
ENCODING 8243
SWIDTH 960 0
DWIDTH 9 0
BBX 3 1 3 5
BITMAP
A0
ENDCHAR

STARTCHAR 203B
ENCODING 8251
SWIDTH 960 0
DWIDTH 9 0
BBX 5 5 2 1
BITMAP
A8
50
A8
50
A8
ENDCHAR

STARTCHAR 2074
ENCODING 8308
SWIDTH 960 0
DWIDTH 9 0
BBX 2 2 3 4
BITMAP
C0
C0
ENDCHAR

STARTCHAR 207F
ENCODING 8319
SWIDTH 960 0
DWIDTH 9 0
BBX 3 3 3 3
BITMAP
E0
A0
A0
ENDCHAR

STARTCHAR 2081
ENCODING 8321
SWIDTH 960 0
DWIDTH 9 0
BBX 1 2 4 -1
BITMAP
80
80
ENDCHAR

STARTCHAR 2082
ENCODING 8322
SWIDTH 960 0
DWIDTH 9 0
BBX 3 3 3 -1
BITMAP
E0
40
C0
ENDCHAR

STARTCHAR 2083
ENCODING 8323
SWIDTH 960 0
DWIDTH 9 0
BBX 3 3 3 -1
BITMAP
E0
40
E0
ENDCHAR

STARTCHAR 2084
ENCODING 8324
SWIDTH 960 0
DWIDTH 9 0
BBX 2 2 3 -1
BITMAP
40
C0
ENDCHAR

STARTCHAR 2103
ENCODING 8451
SWIDTH 960 0
DWIDTH 9 0
BBX 7 7 1 0
BITMAP
C0
FC
42
40
40
42
3C
ENDCHAR

STARTCHAR 2109
ENCODING 8457
SWIDTH 960 0
DWIDTH 9 0
BBX 7 6 1 0
BITMAP
DE
90
10
1C
10
10
ENDCHAR

STARTCHAR 2113
ENCODING 8467
SWIDTH 960 0
DWIDTH 9 0
BBX 3 6 3 1
BITMAP
E0
A0
A0
C0
C0
E0
ENDCHAR

STARTCHAR 2116
ENCODING 8470
SWIDTH 960 0
DWIDTH 9 0
BBX 9 6 0 0
BITMAP
8000
D200
DD00
B900
B900
9780
ENDCHAR

STARTCHAR 2121
ENCODING 8481
SWIDTH 960 0
DWIDTH 9 0
BBX 6 6 2 0
BITMAP
80
94
EC
BC
C4
B8
ENDCHAR

STARTCHAR 2122
ENCODING 8482
SWIDTH 960 0
DWIDTH 9 0
BBX 6 6 2 0
BITMAP
A4
94
9C
BC
BC
88
ENDCHAR

STARTCHAR 2126
ENCODING 8486
SWIDTH 960 0
DWIDTH 9 0
BBX 5 6 2 0
BITMAP
F8
88
88
88
50
50
ENDCHAR

STARTCHAR 212B
ENCODING 8491
SWIDTH 960 0
DWIDTH 9 0
BBX 6 7 1 0
BITMAP
30
00
10
28
48
74
84
ENDCHAR

STARTCHAR 2153
ENCODING 8531
SWIDTH 960 0
DWIDTH 9 0
BBX 6 7 2 -1
BITMAP
80
B0
A0
DC
48
14
08
ENDCHAR

STARTCHAR 2154
ENCODING 8532
SWIDTH 960 0
DWIDTH 9 0
BBX 7 7 1 -1
BITMAP
C4
28
50
92
E4
2A
04
ENDCHAR

STARTCHAR 215B
ENCODING 8539
SWIDTH 960 0
DWIDTH 9 0
BBX 6 7 2 -1
BITMAP
80
B0
A0
DC
48
34
18
ENDCHAR

STARTCHAR 215C
ENCODING 8540
SWIDTH 960 0
DWIDTH 9 0
BBX 7 7 1 -1
BITMAP
C0
48
50
DE
26
2A
04
ENDCHAR

STARTCHAR 215D
ENCODING 8541
SWIDTH 960 0
DWIDTH 9 0
BBX 7 7 1 -1
BITMAP
C0
C8
30
DE
24
0A
04
ENDCHAR

STARTCHAR 215E
ENCODING 8542
SWIDTH 960 0
DWIDTH 9 0
BBX 7 7 1 -1
BITMAP
E8
50
50
2C
2C
12
0C
ENDCHAR

STARTCHAR 2160
ENCODING 8544
SWIDTH 960 0
DWIDTH 9 0
BBX 1 6 4 0
BITMAP
80
80
80
80
80
80
ENDCHAR

STARTCHAR 2161
ENCODING 8545
SWIDTH 960 0
DWIDTH 9 0
BBX 3 6 3 0
BITMAP
A0
A0
A0
A0
A0
A0
ENDCHAR

STARTCHAR 2162
ENCODING 8546
SWIDTH 960 0
DWIDTH 9 0
BBX 5 6 2 0
BITMAP
A8
A8
A8
A8
A8
A8
ENDCHAR

STARTCHAR 2163
ENCODING 8547
SWIDTH 960 0
DWIDTH 9 0
BBX 5 6 2 0
BITMAP
C8
C8
B0
B0
90
90
ENDCHAR

STARTCHAR 2164
ENCODING 8548
SWIDTH 960 0
DWIDTH 9 0
BBX 3 6 3 0
BITMAP
A0
A0
A0
C0
C0
40
ENDCHAR

STARTCHAR 2165
ENCODING 8549
SWIDTH 960 0
DWIDTH 9 0
BBX 5 6 2 0
BITMAP
A8
A8
A8
A8
48
48
ENDCHAR

STARTCHAR 2166
ENCODING 8550
SWIDTH 960 0
DWIDTH 9 0
BBX 7 6 1 0
BITMAP
9A
AA
AA
6A
2A
4A
ENDCHAR

STARTCHAR 2167
ENCODING 8551
SWIDTH 960 0
DWIDTH 9 0
BBX 7 6 1 0
BITMAP
B6
B6
D6
D6
56
56
ENDCHAR

STARTCHAR 2168
ENCODING 8552
SWIDTH 960 0
DWIDTH 9 0
BBX 5 6 2 0
BITMAP
A8
B0
90
90
B0
C8
ENDCHAR

STARTCHAR 2169
ENCODING 8553
SWIDTH 960 0
DWIDTH 9 0
BBX 3 6 3 0
BITMAP
A0
C0
40
C0
A0
A0
ENDCHAR

STARTCHAR 2170
ENCODING 8560
SWIDTH 960 0
DWIDTH 9 0
BBX 1 6 4 0
BITMAP
80
00
80
80
80
80
ENDCHAR

STARTCHAR 2171
ENCODING 8561
SWIDTH 960 0
DWIDTH 9 0
BBX 3 3 3 3
BITMAP
A0
A0
A0
ENDCHAR

STARTCHAR 2172
ENCODING 8562
SWIDTH 960 0
DWIDTH 9 0
BBX 5 6 2 0
BITMAP
A8
00
A8
A8
A8
A8
ENDCHAR

STARTCHAR 2173
ENCODING 8563
SWIDTH 960 0
DWIDTH 9 0
BBX 5 6 2 0
BITMAP
80
00
88
B0
B0
90
ENDCHAR

STARTCHAR 2174
ENCODING 8564
SWIDTH 960 0
DWIDTH 9 0
BBX 3 4 3 0
BITMAP
A0
A0
C0
40
ENDCHAR

STARTCHAR 2175
ENCODING 8565
SWIDTH 960 0
DWIDTH 9 0
BBX 5 4 2 2
BITMAP
A8
C8
C8
48
ENDCHAR

STARTCHAR 2176
ENCODING 8566
SWIDTH 960 0
DWIDTH 9 0
BBX 7 6 1 0
BITMAP
0A
00
88
AC
4C
4C
ENDCHAR

STARTCHAR 2177
ENCODING 8567
SWIDTH 960 0
DWIDTH 9 0
BBX 7 6 1 0
BITMAP
16
00
B2
DA
5A
5A
ENDCHAR

STARTCHAR 2178
ENCODING 8568
SWIDTH 960 0
DWIDTH 9 0
BBX 5 6 2 0
BITMAP
80
00
A8
B0
90
A8
ENDCHAR

STARTCHAR 2179
ENCODING 8569
SWIDTH 960 0
DWIDTH 9 0
BBX 3 4 3 0
BITMAP
A0
C0
C0
A0
ENDCHAR

STARTCHAR 2190
ENCODING 8592
SWIDTH 960 0
DWIDTH 9 0
BBX 7 3 1 1
BITMAP
80
FE
40
ENDCHAR

STARTCHAR 2191
ENCODING 8593
SWIDTH 960 0
DWIDTH 9 0
BBX 1 8 4 -1
BITMAP
80
80
80
80
80
80
80
80
ENDCHAR

STARTCHAR 2192
ENCODING 8594
SWIDTH 960 0
DWIDTH 9 0
BBX 7 3 1 1
BITMAP
04
FA
04
ENDCHAR

STARTCHAR 2193
ENCODING 8595
SWIDTH 960 0
DWIDTH 9 0
BBX 3 8 3 -1
BITMAP
40
40
40
40
40
40
E0
40
ENDCHAR

STARTCHAR 2194
ENCODING 8596
SWIDTH 960 0
DWIDTH 9 0
BBX 7 1 1 2
BITMAP
FE
ENDCHAR

STARTCHAR 2195
ENCODING 8597
SWIDTH 960 0
DWIDTH 9 0
BBX 1 7 4 -1
BITMAP
80
80
80
80
80
80
80
ENDCHAR

STARTCHAR 2196
ENCODING 8598
SWIDTH 960 0
DWIDTH 9 0
BBX 5 5 2 0
BITMAP
80
40
20
10
08
ENDCHAR

STARTCHAR 2197
ENCODING 8599
SWIDTH 960 0
DWIDTH 9 0
BBX 5 5 2 0
BITMAP
08
10
20
40
80
ENDCHAR

STARTCHAR 2198
ENCODING 8600
SWIDTH 960 0
DWIDTH 9 0
BBX 4 4 3 1
BITMAP
80
40
20
10
ENDCHAR

STARTCHAR 2199
ENCODING 8601
SWIDTH 960 0
DWIDTH 9 0
BBX 4 4 2 1
BITMAP
30
40
80
80
ENDCHAR

STARTCHAR 21D2
ENCODING 8658
SWIDTH 960 0
DWIDTH 9 0
BBX 8 4 0 0
BITMAP
02
FF
01
7E
ENDCHAR

STARTCHAR 21D4
ENCODING 8660
SWIDTH 960 0
DWIDTH 9 0
BBX 7 3 1 1
BITMAP
7C
82
FC
ENDCHAR

STARTCHAR 2200
ENCODING 8704
SWIDTH 960 0
DWIDTH 9 0
BBX 6 6 1 0
BITMAP
84
78
48
28
30
10
ENDCHAR

STARTCHAR 2202
ENCODING 8706
SWIDTH 960 0
DWIDTH 9 0
BBX 3 7 3 -1
BITMAP
60
20
20
E0
A0
C0
80
ENDCHAR

STARTCHAR 2203
ENCODING 8707
SWIDTH 960 0
DWIDTH 9 0
BBX 5 6 2 0
BITMAP
F8
08
08
78
08
78
ENDCHAR

STARTCHAR 2207
ENCODING 8711
SWIDTH 960 0
DWIDTH 9 0
BBX 7 6 1 0
BITMAP
FE
84
44
48
30
30
ENDCHAR

STARTCHAR 2208
ENCODING 8712
SWIDTH 960 0
DWIDTH 9 0
BBX 7 5 1 0
BITMAP
7C
80
FC
80
7E
ENDCHAR

STARTCHAR 220B
ENCODING 8715
SWIDTH 960 0
DWIDTH 9 0
BBX 7 5 1 0
BITMAP
7C
02
7E
04
F8
ENDCHAR

STARTCHAR 220F
ENCODING 8719
SWIDTH 960 0
DWIDTH 9 0
BBX 5 7 2 -1
BITMAP
F8
88
88
88
88
88
88
ENDCHAR

STARTCHAR 2211
ENCODING 8721
SWIDTH 960 0
DWIDTH 9 0
BBX 7 8 1 -1
BITMAP
FE
C2
22
10
10
20
40
FE
ENDCHAR

STARTCHAR 221A
ENCODING 8730
SWIDTH 960 0
DWIDTH 9 0
BBX 7 8 1 -1
BITMAP
0E
10
20
20
20
C0
C0
40
ENDCHAR

STARTCHAR 221D
ENCODING 8733
SWIDTH 960 0
DWIDTH 9 0
BBX 6 3 1 1
BITMAP
FC
90
EC
ENDCHAR

STARTCHAR 221E
ENCODING 8734
SWIDTH 960 0
DWIDTH 9 0
BBX 7 3 1 1
BITMAP
FE
92
EE
ENDCHAR

STARTCHAR 2220
ENCODING 8736
SWIDTH 960 0
DWIDTH 9 0
BBX 5 5 2 1
BITMAP
10
20
40
80
F8
ENDCHAR

STARTCHAR 2225
ENCODING 8741
SWIDTH 960 0
DWIDTH 9 0
BBX 3 7 3 -1
BITMAP
A0
A0
A0
A0
A0
A0
A0
ENDCHAR

STARTCHAR 2227
ENCODING 8743
SWIDTH 960 0
DWIDTH 9 0
BBX 5 6 2 0
BITMAP
20
60
50
90
88
08
ENDCHAR

STARTCHAR 2228
ENCODING 8744
SWIDTH 960 0
DWIDTH 9 0
BBX 5 5 2 1
BITMAP
88
90
90
60
60
ENDCHAR

STARTCHAR 2229
ENCODING 8745
SWIDTH 960 0
DWIDTH 9 0
BBX 5 6 2 -1
BITMAP
70
88
88
88
88
88
ENDCHAR

STARTCHAR 222A
ENCODING 8746
SWIDTH 960 0
DWIDTH 9 0
BBX 5 6 2 0
BITMAP
88
88
88
88
88
70
ENDCHAR

STARTCHAR 222B
ENCODING 8747
SWIDTH 960 0
DWIDTH 9 0
BBX 1 8 4 -1
BITMAP
80
80
80
80
80
80
80
80
ENDCHAR

STARTCHAR 222C
ENCODING 8748
SWIDTH 960 0
DWIDTH 9 0
BBX 3 8 3 -1
BITMAP
A0
C0
C0
A0
A0
A0
A0
A0
ENDCHAR

STARTCHAR 222E
ENCODING 8750
SWIDTH 960 0
DWIDTH 9 0
BBX 2 7 3 -1
BITMAP
40
40
40
C0
40
80
80
ENDCHAR

STARTCHAR 2234
ENCODING 8756
SWIDTH 960 0
DWIDTH 9 0
BBX 5 4 2 1
BITMAP
20
00
00
88
ENDCHAR

STARTCHAR 2235
ENCODING 8757
SWIDTH 960 0
DWIDTH 9 0
BBX 5 4 2 1
BITMAP
88
00
00
20
ENDCHAR

STARTCHAR 223C
ENCODING 8764
SWIDTH 960 0
DWIDTH 9 0
BBX 4 1 3 2
BITMAP
F0
ENDCHAR

STARTCHAR 223D
ENCODING 8765
SWIDTH 960 0
DWIDTH 9 0
BBX 7 3 1 1
BITMAP
DE
92
E6
ENDCHAR

STARTCHAR 2252
ENCODING 8786
SWIDTH 960 0
DWIDTH 9 0
BBX 7 5 1 0
BITMAP
40
FE
00
7C
04
ENDCHAR

STARTCHAR 2260
ENCODING 8800
SWIDTH 960 0
DWIDTH 9 0
BBX 7 4 1 1
BITMAP
20
FE
10
7C
ENDCHAR

STARTCHAR 2261
ENCODING 8801
SWIDTH 960 0
DWIDTH 9 0
BBX 5 3 2 1
BITMAP
F8
F8
F8
ENDCHAR

STARTCHAR 2264
ENCODING 8804
SWIDTH 960 0
DWIDTH 9 0
BBX 5 5 2 1
BITMAP
30
C0
40
38
F8
ENDCHAR

STARTCHAR 2265
ENCODING 8805
SWIDTH 960 0
DWIDTH 9 0
BBX 6 5 1 1
BITMAP
60
1C
08
70
FC
ENDCHAR

STARTCHAR 226A
ENCODING 8810
SWIDTH 960 0
DWIDTH 9 0
BBX 7 6 1 -1
BITMAP
0A
3C
50
A0
50
3C
ENDCHAR

STARTCHAR 226B
ENCODING 8811
SWIDTH 960 0
DWIDTH 9 0
BBX 7 6 1 -1
BITMAP
A0
50
3C
0A
3C
50
ENDCHAR

STARTCHAR 2282
ENCODING 8834
SWIDTH 960 0
DWIDTH 9 0
BBX 7 5 1 0
BITMAP
7C
80
80
80
7E
ENDCHAR

STARTCHAR 2283
ENCODING 8835
SWIDTH 960 0
DWIDTH 9 0
BBX 7 5 1 0
BITMAP
7C
02
02
04
F8
ENDCHAR

STARTCHAR 2286
ENCODING 8838
SWIDTH 960 0
DWIDTH 9 0
BBX 4 5 2 0
BITMAP
F0
80
00
F0
70
ENDCHAR

STARTCHAR 2287
ENCODING 8839
SWIDTH 960 0
DWIDTH 9 0
BBX 4 5 3 0
BITMAP
F0
10
00
F0
E0
ENDCHAR

STARTCHAR 2299
ENCODING 8857
SWIDTH 960 0
DWIDTH 9 0
BBX 7 7 1 -1
BITMAP
FC
BA
FE
FE
FE
BC
78
ENDCHAR

STARTCHAR 22A5
ENCODING 8869
SWIDTH 960 0
DWIDTH 9 0
BBX 5 5 2 0
BITMAP
20
20
20
20
F8
ENDCHAR

STARTCHAR 2312
ENCODING 8978
SWIDTH 960 0
DWIDTH 9 0
BBX 4 1 2 5
BITMAP
F0
ENDCHAR

STARTCHAR 2460
ENCODING 9312
SWIDTH 960 0
DWIDTH 9 0
BBX 9 8 0 -1
BITMAP
1C00
6200
8900
8880
8880
8900
8900
7E00
ENDCHAR

STARTCHAR 2461
ENCODING 9313
SWIDTH 960 0
DWIDTH 9 0
BBX 9 8 0 -1
BITMAP
1C00
6A00
9500
8480
8880
9100
8100
7E00
ENDCHAR

STARTCHAR 2462
ENCODING 9314
SWIDTH 960 0
DWIDTH 9 0
BBX 9 8 0 -1
BITMAP
1C00
6A00
B500
8480
8480
8500
9500
7E00
ENDCHAR

STARTCHAR 2463
ENCODING 9315
SWIDTH 960 0
DWIDTH 9 0
BBX 9 8 0 -1
BITMAP
1C00
6200
8900
9880
A880
BD00
8100
7E00
ENDCHAR

STARTCHAR 2464
ENCODING 9316
SWIDTH 960 0
DWIDTH 9 0
BBX 9 8 0 -1
BITMAP
1C00
6200
9900
9080
8C80
8500
9500
7E00
ENDCHAR

STARTCHAR 2465
ENCODING 9317
SWIDTH 960 0
DWIDTH 9 0
BBX 9 8 0 -1
BITMAP
1C00
6A00
9500
A080
9C80
A500
9500
7E00
ENDCHAR

STARTCHAR 2466
ENCODING 9318
SWIDTH 960 0
DWIDTH 9 0
BBX 9 8 0 -1
BITMAP
1C00
6200
8D00
8C80
8880
8900
8100
7E00
ENDCHAR

STARTCHAR 2467
ENCODING 9319
SWIDTH 960 0
DWIDTH 9 0
BBX 9 8 0 -1
BITMAP
1C00
6A00
B500
9480
9C80
A500
9500
7E00
ENDCHAR

STARTCHAR 2468
ENCODING 9320
SWIDTH 960 0
DWIDTH 9 0
BBX 9 8 0 -1
BITMAP
1C00
6A00
9500
A480
9480
8D00
9500
7E00
ENDCHAR

STARTCHAR 2469
ENCODING 9321
SWIDTH 960 0
DWIDTH 9 0
BBX 9 8 0 -1
BITMAP
1C00
6200
8F00
AA80
AA80
8B00
8500
7E00
ENDCHAR

STARTCHAR 246A
ENCODING 9322
SWIDTH 960 0
DWIDTH 9 0
BBX 9 8 0 -1
BITMAP
1C00
6200
8300
A280
A280
8300
8100
7E00
ENDCHAR

STARTCHAR 246B
ENCODING 9323
SWIDTH 960 0
DWIDTH 9 0
BBX 9 8 0 -1
BITMAP
1C00
6200
8F00
A280
A480
8100
8500
7E00
ENDCHAR

STARTCHAR 246C
ENCODING 9324
SWIDTH 960 0
DWIDTH 9 0
BBX 9 8 0 -1
BITMAP
1C00
6200
8300
A280
A280
8B00
8500
7E00
ENDCHAR

STARTCHAR 246D
ENCODING 9325
SWIDTH 960 0
DWIDTH 9 0
BBX 9 8 0 -1
BITMAP
1C00
6200
8300
A680
AA80
A700
8300
7E00
ENDCHAR

STARTCHAR 246E
ENCODING 9326
SWIDTH 960 0
DWIDTH 9 0
BBX 9 8 0 -1
BITMAP
1C00
6200
8700
A880
A680
8300
8700
7E00
ENDCHAR

STARTCHAR 2474
ENCODING 9332
SWIDTH 960 0
DWIDTH 9 0
BBX 9 5 0 0
BITMAP
8900
8880
8880
8880
8900
ENDCHAR

STARTCHAR 2475
ENCODING 9333
SWIDTH 960 0
DWIDTH 9 0
BBX 9 7 0 -1
BITMAP
0800
9500
8480
8880
9080
8100
1800
ENDCHAR

STARTCHAR 2476
ENCODING 9334
SWIDTH 960 0
DWIDTH 9 0
BBX 9 7 0 -1
BITMAP
0800
B500
8480
8480
8480
9500
0800
ENDCHAR

STARTCHAR 2477
ENCODING 9335
SWIDTH 960 0
DWIDTH 9 0
BBX 9 5 0 0
BITMAP
8900
9880
A880
BC80
8100
ENDCHAR

STARTCHAR 2478
ENCODING 9336
SWIDTH 960 0
DWIDTH 9 0
BBX 9 6 0 0
BITMAP
9900
A080
9C80
8480
9500
0800
ENDCHAR

STARTCHAR 2479
ENCODING 9337
SWIDTH 960 0
DWIDTH 9 0
BBX 9 7 0 -1
BITMAP
0800
9500
A080
BC80
A480
9500
0800
ENDCHAR

STARTCHAR 247A
ENCODING 9338
SWIDTH 960 0
DWIDTH 9 0
BBX 9 5 0 0
BITMAP
8D00
8880
8880
9080
8100
ENDCHAR

STARTCHAR 247B
ENCODING 9339
SWIDTH 960 0
DWIDTH 9 0
BBX 9 7 0 -1
BITMAP
0800
B500
9480
9C80
A480
A500
1800
ENDCHAR

STARTCHAR 247C
ENCODING 9340
SWIDTH 960 0
DWIDTH 9 0
BBX 9 7 0 -1
BITMAP
0800
B500
A480
9480
8C80
9500
0800
ENDCHAR

STARTCHAR 247D
ENCODING 9341
SWIDTH 960 0
DWIDTH 9 0
BBX 9 7 0 -1
BITMAP
0600
AB00
AA80
AA80
AA80
8B00
0400
ENDCHAR

STARTCHAR 247E
ENCODING 9342
SWIDTH 960 0
DWIDTH 9 0
BBX 9 5 0 0
BITMAP
A500
A480
A480
A480
8100
ENDCHAR

STARTCHAR 247F
ENCODING 9343
SWIDTH 960 0
DWIDTH 9 0
BBX 9 7 0 -1
BITMAP
0600
A300
A280
A480
A880
8100
0400
ENDCHAR

STARTCHAR 2480
ENCODING 9344
SWIDTH 960 0
DWIDTH 9 0
BBX 9 6 0 -1
BITMAP
0600
A300
A280
A280
A280
8300
ENDCHAR

STARTCHAR 2481
ENCODING 9345
SWIDTH 960 0
DWIDTH 9 0
BBX 9 6 0 -1
BITMAP
0200
A300
A680
AA80
A680
8300
ENDCHAR

STARTCHAR 2482
ENCODING 9346
SWIDTH 960 0
DWIDTH 9 0
BBX 9 6 0 -1
BITMAP
0600
A900
A680
A280
A280
8300
ENDCHAR

STARTCHAR 249C
ENCODING 9372
SWIDTH 960 0
DWIDTH 9 0
BBX 9 5 0 0
BITMAP
9900
8480
9C80
A480
9900
ENDCHAR

STARTCHAR 249D
ENCODING 9373
SWIDTH 960 0
DWIDTH 9 0
BBX 9 6 0 0
BITMAP
A100
BC80
A480
A480
9500
0800
ENDCHAR

STARTCHAR 249E
ENCODING 9374
SWIDTH 960 0
DWIDTH 9 0
BBX 9 5 0 0
BITMAP
8D00
B080
A080
9480
8900
ENDCHAR

STARTCHAR 249F
ENCODING 9375
SWIDTH 960 0
DWIDTH 9 0
BBX 9 5 0 0
BITMAP
8500
BC80
A480
A480
9900
ENDCHAR

STARTCHAR 24A0
ENCODING 9376
SWIDTH 960 0
DWIDTH 9 0
BBX 9 5 0 0
BITMAP
8900
B480
B880
9480
8900
ENDCHAR

STARTCHAR 24A1
ENCODING 9377
SWIDTH 960 0
DWIDTH 9 0
BBX 9 5 0 0
BITMAP
8900
9880
8880
8880
8900
ENDCHAR

STARTCHAR 24A2
ENCODING 9378
SWIDTH 960 0
DWIDTH 9 0
BBX 9 6 0 0
BITMAP
BD00
A480
A480
9C80
9500
0800
ENDCHAR

STARTCHAR 24A3
ENCODING 9379
SWIDTH 960 0
DWIDTH 9 0
BBX 9 6 0 -1
BITMAP
1000
9100
9C80
9480
9480
9100
ENDCHAR

STARTCHAR 24A4
ENCODING 9380
SWIDTH 960 0
DWIDTH 9 0
BBX 9 5 0 0
BITMAP
8100
8880
8880
8880
8900
ENDCHAR

STARTCHAR 24A5
ENCODING 9381
SWIDTH 960 0
DWIDTH 9 0
BBX 9 6 0 0
BITMAP
8900
8880
8880
8880
8900
0800
ENDCHAR

STARTCHAR 24A6
ENCODING 9382
SWIDTH 960 0
DWIDTH 9 0
BBX 9 6 0 -1
BITMAP
1000
9100
9480
9880
9880
9500
ENDCHAR

STARTCHAR 24A7
ENCODING 9383
SWIDTH 960 0
DWIDTH 9 0
BBX 9 6 0 -1
BITMAP
0800
8900
8880
8880
8880
8900
ENDCHAR

STARTCHAR 24A8
ENCODING 9384
SWIDTH 960 0
DWIDTH 9 0
BBX 9 5 0 0
BITMAP
9700
CA80
CA80
8880
8100
ENDCHAR

STARTCHAR 24A9
ENCODING 9385
SWIDTH 960 0
DWIDTH 9 0
BBX 9 5 0 0
BITMAP
8D00
A480
A480
8080
8100
ENDCHAR

STARTCHAR 24AA
ENCODING 9386
SWIDTH 960 0
DWIDTH 9 0
BBX 9 5 0 0
BITMAP
9D00
A480
A480
A480
9900
ENDCHAR

STARTCHAR 24AB
ENCODING 9387
SWIDTH 960 0
DWIDTH 9 0
BBX 9 5 0 0
BITMAP
9D00
9280
9280
9C80
9100
ENDCHAR

STARTCHAR 24AC
ENCODING 9388
SWIDTH 960 0
DWIDTH 9 0
BBX 9 5 0 0
BITMAP
B900
A480
A480
9C80
8100
ENDCHAR

STARTCHAR 24AD
ENCODING 9389
SWIDTH 960 0
DWIDTH 9 0
BBX 9 5 0 0
BITMAP
8500
9880
9080
8080
8100
ENDCHAR

STARTCHAR 24AE
ENCODING 9390
SWIDTH 960 0
DWIDTH 9 0
BBX 9 5 0 0
BITMAP
8900
9080
8C80
9480
8900
ENDCHAR

STARTCHAR 24AF
ENCODING 9391
SWIDTH 960 0
DWIDTH 9 0
BBX 9 5 0 0
BITMAP
8100
9080
9080
9080
8900
ENDCHAR

STARTCHAR 24B0
ENCODING 9392
SWIDTH 960 0
DWIDTH 9 0
BBX 9 5 0 0
BITMAP
8100
8080
A480
A480
9900
ENDCHAR

STARTCHAR 24B1
ENCODING 9393
SWIDTH 960 0
DWIDTH 9 0
BBX 9 5 0 0
BITMAP
8100
8480
9880
9880
8100
ENDCHAR

STARTCHAR 24B2
ENCODING 9394
SWIDTH 960 0
DWIDTH 9 0
BBX 9 5 0 0
BITMAP
8100
B880
BA80
9480
8100
ENDCHAR

STARTCHAR 24B3
ENCODING 9395
SWIDTH 960 0
DWIDTH 9 0
BBX 9 5 0 0
BITMAP
8500
9880
8880
9480
8100
ENDCHAR

STARTCHAR 24B4
ENCODING 9396
SWIDTH 960 0
DWIDTH 9 0
BBX 9 5 0 0
BITMAP
9100
9480
9880
8880
8900
ENDCHAR

STARTCHAR 24B5
ENCODING 9397
SWIDTH 960 0
DWIDTH 9 0
BBX 9 5 0 0
BITMAP
9D00
8880
8880
9080
8900
ENDCHAR

STARTCHAR 24D0
ENCODING 9424
SWIDTH 960 0
DWIDTH 9 0
BBX 9 8 0 -1
BITMAP
1C00
6200
8900
9480
9C80
A500
9900
7E00
ENDCHAR

STARTCHAR 24D1
ENCODING 9425
SWIDTH 960 0
DWIDTH 9 0
BBX 9 8 0 -1
BITMAP
1C00
7200
9100
9C80
9280
9300
9500
7E00
ENDCHAR

STARTCHAR 24D2
ENCODING 9426
SWIDTH 960 0
DWIDTH 9 0
BBX 9 8 0 -1
BITMAP
1C00
6200
8D00
B080
A080
9500
8900
7E00
ENDCHAR

STARTCHAR 24D3
ENCODING 9427
SWIDTH 960 0
DWIDTH 9 0
BBX 9 8 0 -1
BITMAP
1C00
6600
8500
BC80
A480
A500
A500
7E00
ENDCHAR

STARTCHAR 24D4
ENCODING 9428
SWIDTH 960 0
DWIDTH 9 0
BBX 9 8 0 -1
BITMAP
1C00
6200
8900
B480
B880
A100
9D00
7E00
ENDCHAR

STARTCHAR 24D5
ENCODING 9429
SWIDTH 960 0
DWIDTH 9 0
BBX 9 8 0 -1
BITMAP
1C00
6200
8900
8880
8880
8900
8900
7E00
ENDCHAR

STARTCHAR 24D6
ENCODING 9430
SWIDTH 960 0
DWIDTH 9 0
BBX 9 8 0 -1
BITMAP
1C00
6200
9D00
A480
A480
9D00
9500
7E00
ENDCHAR

STARTCHAR 24D7
ENCODING 9431
SWIDTH 960 0
DWIDTH 9 0
BBX 9 8 0 -1
BITMAP
1C00
7200
9100
9C80
9480
9500
9100
7E00
ENDCHAR

STARTCHAR 24D8
ENCODING 9432
SWIDTH 960 0
DWIDTH 9 0
BBX 9 8 0 -1
BITMAP
1C00
6200
8100
8880
8880
8900
8900
7E00
ENDCHAR

STARTCHAR 24D9
ENCODING 9433
SWIDTH 960 0
DWIDTH 9 0
BBX 9 8 0 -1
BITMAP
1C00
6200
8900
8880
8880
8900
8900
7E00
ENDCHAR

STARTCHAR 24DA
ENCODING 9434
SWIDTH 960 0
DWIDTH 9 0
BBX 9 8 0 -1
BITMAP
1C00
7200
9100
9480
9880
9500
9100
7E00
ENDCHAR

STARTCHAR 24DB
ENCODING 9435
SWIDTH 960 0
DWIDTH 9 0
BBX 9 8 0 -1
BITMAP
1C00
6200
8900
8880
8880
8900
8900
7E00
ENDCHAR

STARTCHAR 24DC
ENCODING 9436
SWIDTH 960 0
DWIDTH 9 0
BBX 9 8 0 -1
BITMAP
1C00
6200
9700
CA80
CA80
8900
8100
7E00
ENDCHAR

STARTCHAR 24DD
ENCODING 9437
SWIDTH 960 0
DWIDTH 9 0
BBX 9 8 0 -1
BITMAP
1C00
6200
8D00
B480
A480
8100
8100
7E00
ENDCHAR

STARTCHAR 24DE
ENCODING 9438
SWIDTH 960 0
DWIDTH 9 0
BBX 9 8 0 -1
BITMAP
1C00
6200
9D00
A480
A480
A500
9900
7E00
ENDCHAR

STARTCHAR 24DF
ENCODING 9439
SWIDTH 960 0
DWIDTH 9 0
BBX 9 8 0 -1
BITMAP
1C00
6200
9D00
9280
9280
9D00
9100
7E00
ENDCHAR

STARTCHAR 24E0
ENCODING 9440
SWIDTH 960 0
DWIDTH 9 0
BBX 9 8 0 -1
BITMAP
1C00
6200
BD00
A480
A480
9D00
8100
7E00
ENDCHAR

STARTCHAR 24E1
ENCODING 9441
SWIDTH 960 0
DWIDTH 9 0
BBX 9 8 0 -1
BITMAP
1C00
6200
8500
8880
9080
8100
8100
7E00
ENDCHAR

STARTCHAR 24E2
ENCODING 9442
SWIDTH 960 0
DWIDTH 9 0
BBX 9 8 0 -1
BITMAP
1C00
6200
8D00
9080
8C80
9500
8900
7E00
ENDCHAR

STARTCHAR 24E3
ENCODING 9443
SWIDTH 960 0
DWIDTH 9 0
BBX 9 8 0 -1
BITMAP
1C00
6200
8900
8880
8880
8900
8900
7E00
ENDCHAR

STARTCHAR 24E4
ENCODING 9444
SWIDTH 960 0
DWIDTH 9 0
BBX 9 8 0 -1
BITMAP
1C00
6200
8100
8080
A480
A500
8900
7E00
ENDCHAR

STARTCHAR 24E5
ENCODING 9445
SWIDTH 960 0
DWIDTH 9 0
BBX 9 8 0 -1
BITMAP
1C00
6200
8100
9480
9480
9900
8100
7E00
ENDCHAR

STARTCHAR 24E6
ENCODING 9446
SWIDTH 960 0
DWIDTH 9 0
BBX 9 8 0 -1
BITMAP
1C00
6200
8100
A880
BA80
B500
9100
7E00
ENDCHAR

STARTCHAR 24E7
ENCODING 9447
SWIDTH 960 0
DWIDTH 9 0
BBX 9 8 0 -1
BITMAP
1C00
6200
8100
9C80
8880
9500
8100
7E00
ENDCHAR

STARTCHAR 24E8
ENCODING 9448
SWIDTH 960 0
DWIDTH 9 0
BBX 9 8 0 -1
BITMAP
1C00
6200
9100
9480
9880
8900
8900
7E00
ENDCHAR

STARTCHAR 24E9
ENCODING 9449
SWIDTH 960 0
DWIDTH 9 0
BBX 9 8 0 -1
BITMAP
1C00
6200
9D00
8880
8880
9100
8900
7E00
ENDCHAR

STARTCHAR 2500
ENCODING 9472
SWIDTH 960 0
DWIDTH 9 0
BBX 7 1 1 2
BITMAP
FE
ENDCHAR

STARTCHAR 2501
ENCODING 9473
SWIDTH 960 0
DWIDTH 9 0
BBX 9 1 0 2
BITMAP
FF80
ENDCHAR

STARTCHAR 2502
ENCODING 9474
SWIDTH 960 0
DWIDTH 9 0
BBX 1 9 4 -2
BITMAP
80
80
80
80
80
80
80
80
80
ENDCHAR

STARTCHAR 2503
ENCODING 9475
SWIDTH 960 0
DWIDTH 9 0
BBX 1 9 4 -2
BITMAP
80
80
80
80
80
80
80
80
80
ENDCHAR

STARTCHAR 250C
ENCODING 9484
SWIDTH 960 0
DWIDTH 9 0
BBX 4 5 4 -2
BITMAP
F0
80
80
80
80
ENDCHAR

STARTCHAR 250D
ENCODING 9485
SWIDTH 960 0
DWIDTH 9 0
BBX 5 5 4 -2
BITMAP
F8
80
80
80
80
ENDCHAR

STARTCHAR 250E
ENCODING 9486
SWIDTH 960 0
DWIDTH 9 0
BBX 4 5 4 -2
BITMAP
F0
80
80
80
80
ENDCHAR

STARTCHAR 250F
ENCODING 9487
SWIDTH 960 0
DWIDTH 9 0
BBX 5 5 4 -2
BITMAP
F8
80
80
80
80
ENDCHAR

STARTCHAR 2510
ENCODING 9488
SWIDTH 960 0
DWIDTH 9 0
BBX 4 5 1 -2
BITMAP
F0
10
10
10
10
ENDCHAR

STARTCHAR 2511
ENCODING 9489
SWIDTH 960 0
DWIDTH 9 0
BBX 5 5 0 -2
BITMAP
F8
08
08
08
08
ENDCHAR

STARTCHAR 2512
ENCODING 9490
SWIDTH 960 0
DWIDTH 9 0
BBX 4 5 1 -2
BITMAP
F0
10
10
10
10
ENDCHAR

STARTCHAR 2513
ENCODING 9491
SWIDTH 960 0
DWIDTH 9 0
BBX 5 5 0 -2
BITMAP
F8
08
08
08
08
ENDCHAR

STARTCHAR 2514
ENCODING 9492
SWIDTH 960 0
DWIDTH 9 0
BBX 4 4 4 3
BITMAP
80
80
80
F0
ENDCHAR

STARTCHAR 2515
ENCODING 9493
SWIDTH 960 0
DWIDTH 9 0
BBX 5 5 4 2
BITMAP
80
80
80
80
F8
ENDCHAR

STARTCHAR 2516
ENCODING 9494
SWIDTH 960 0
DWIDTH 9 0
BBX 4 4 4 3
BITMAP
80
80
80
F0
ENDCHAR

STARTCHAR 2517
ENCODING 9495
SWIDTH 960 0
DWIDTH 9 0
BBX 5 5 4 2
BITMAP
80
80
80
80
F8
ENDCHAR

STARTCHAR 2518
ENCODING 9496
SWIDTH 960 0
DWIDTH 9 0
BBX 4 4 1 3
BITMAP
10
10
10
F0
ENDCHAR

STARTCHAR 2519
ENCODING 9497
SWIDTH 960 0
DWIDTH 9 0
BBX 5 5 0 2
BITMAP
08
08
08
08
F8
ENDCHAR

STARTCHAR 251A
ENCODING 9498
SWIDTH 960 0
DWIDTH 9 0
BBX 4 4 1 3
BITMAP
10
10
10
F0
ENDCHAR

STARTCHAR 251B
ENCODING 9499
SWIDTH 960 0
DWIDTH 9 0
BBX 5 5 0 2
BITMAP
08
08
08
08
F8
ENDCHAR

STARTCHAR 251C
ENCODING 9500
SWIDTH 960 0
DWIDTH 9 0
BBX 4 9 4 -2
BITMAP
80
80
80
80
F0
80
80
80
80
ENDCHAR

STARTCHAR 251D
ENCODING 9501
SWIDTH 960 0
DWIDTH 9 0
BBX 5 9 4 -2
BITMAP
80
80
80
80
F8
80
80
80
80
ENDCHAR

STARTCHAR 251E
ENCODING 9502
SWIDTH 960 0
DWIDTH 9 0
BBX 4 9 4 -2
BITMAP
80
80
80
80
F0
80
80
80
80
ENDCHAR

STARTCHAR 251F
ENCODING 9503
SWIDTH 960 0
DWIDTH 9 0
BBX 4 9 4 -2
BITMAP
80
80
80
80
F0
80
80
80
80
ENDCHAR

STARTCHAR 2520
ENCODING 9504
SWIDTH 960 0
DWIDTH 9 0
BBX 4 9 4 -2
BITMAP
80
80
80
80
F0
80
80
80
80
ENDCHAR

STARTCHAR 2521
ENCODING 9505
SWIDTH 960 0
DWIDTH 9 0
BBX 5 9 4 -2
BITMAP
80
80
80
80
F8
80
80
80
80
ENDCHAR

STARTCHAR 2522
ENCODING 9506
SWIDTH 960 0
DWIDTH 9 0
BBX 5 9 4 -2
BITMAP
80
80
80
80
F8
80
80
80
80
ENDCHAR

STARTCHAR 2523
ENCODING 9507
SWIDTH 960 0
DWIDTH 9 0
BBX 5 9 4 -2
BITMAP
80
80
80
80
F8
80
80
80
80
ENDCHAR

STARTCHAR 2524
ENCODING 9508
SWIDTH 960 0
DWIDTH 9 0
BBX 4 9 1 -2
BITMAP
10
10
10
10
F0
10
10
10
10
ENDCHAR

STARTCHAR 2525
ENCODING 9509
SWIDTH 960 0
DWIDTH 9 0
BBX 5 9 0 -2
BITMAP
08
08
08
08
F8
08
08
08
08
ENDCHAR

STARTCHAR 2526
ENCODING 9510
SWIDTH 960 0
DWIDTH 9 0
BBX 4 9 1 -2
BITMAP
10
10
10
10
F0
10
10
10
10
ENDCHAR

STARTCHAR 2527
ENCODING 9511
SWIDTH 960 0
DWIDTH 9 0
BBX 4 9 1 -2
BITMAP
10
10
10
10
F0
10
10
10
10
ENDCHAR

STARTCHAR 2528
ENCODING 9512
SWIDTH 960 0
DWIDTH 9 0
BBX 4 9 1 -2
BITMAP
10
10
10
10
F0
10
10
10
10
ENDCHAR

STARTCHAR 2529
ENCODING 9513
SWIDTH 960 0
DWIDTH 9 0
BBX 5 9 0 -2
BITMAP
08
08
08
08
F8
08
08
08
08
ENDCHAR

STARTCHAR 252A
ENCODING 9514
SWIDTH 960 0
DWIDTH 9 0
BBX 5 9 0 -2
BITMAP
08
08
08
08
F8
08
08
08
08
ENDCHAR

STARTCHAR 252B
ENCODING 9515
SWIDTH 960 0
DWIDTH 9 0
BBX 5 9 0 -2
BITMAP
08
08
08
08
F8
08
08
08
08
ENDCHAR

STARTCHAR 252C
ENCODING 9516
SWIDTH 960 0
DWIDTH 9 0
BBX 7 5 1 -2
BITMAP
FE
10
10
10
10
ENDCHAR

STARTCHAR 252D
ENCODING 9517
SWIDTH 960 0
DWIDTH 9 0
BBX 8 5 0 -2
BITMAP
FF
08
08
08
08
ENDCHAR

STARTCHAR 252E
ENCODING 9518
SWIDTH 960 0
DWIDTH 9 0
BBX 8 5 1 -2
BITMAP
FF
10
10
10
10
ENDCHAR

STARTCHAR 252F
ENCODING 9519
SWIDTH 960 0
DWIDTH 9 0
BBX 9 5 0 -2
BITMAP
FF80
0800
0800
0800
0800
ENDCHAR

STARTCHAR 2530
ENCODING 9520
SWIDTH 960 0
DWIDTH 9 0
BBX 7 5 1 -2
BITMAP
FE
10
10
10
10
ENDCHAR

STARTCHAR 2531
ENCODING 9521
SWIDTH 960 0
DWIDTH 9 0
BBX 8 5 0 -2
BITMAP
FF
08
08
08
08
ENDCHAR

STARTCHAR 2532
ENCODING 9522
SWIDTH 960 0
DWIDTH 9 0
BBX 8 5 1 -2
BITMAP
FF
10
10
10
10
ENDCHAR

STARTCHAR 2533
ENCODING 9523
SWIDTH 960 0
DWIDTH 9 0
BBX 9 5 0 -2
BITMAP
FF80
0800
0800
0800
0800
ENDCHAR

STARTCHAR 2534
ENCODING 9524
SWIDTH 960 0
DWIDTH 9 0
BBX 7 4 1 3
BITMAP
10
10
10
FE
ENDCHAR

STARTCHAR 2535
ENCODING 9525
SWIDTH 960 0
DWIDTH 9 0
BBX 8 5 0 2
BITMAP
08
08
08
08
FF
ENDCHAR

STARTCHAR 2536
ENCODING 9526
SWIDTH 960 0
DWIDTH 9 0
BBX 8 5 1 2
BITMAP
10
10
10
10
FF
ENDCHAR

STARTCHAR 2537
ENCODING 9527
SWIDTH 960 0
DWIDTH 9 0
BBX 9 5 0 2
BITMAP
0800
0800
0800
0800
FF80
ENDCHAR

STARTCHAR 2538
ENCODING 9528
SWIDTH 960 0
DWIDTH 9 0
BBX 7 4 1 3
BITMAP
10
10
10
FE
ENDCHAR

STARTCHAR 2539
ENCODING 9529
SWIDTH 960 0
DWIDTH 9 0
BBX 8 5 0 2
BITMAP
08
08
08
08
FF
ENDCHAR

STARTCHAR 253A
ENCODING 9530
SWIDTH 960 0
DWIDTH 9 0
BBX 8 5 1 2
BITMAP
10
10
10
10
FF
ENDCHAR

STARTCHAR 253B
ENCODING 9531
SWIDTH 960 0
DWIDTH 9 0
BBX 9 5 0 2
BITMAP
0800
0800
0800
0800
FF80
ENDCHAR

STARTCHAR 253C
ENCODING 9532
SWIDTH 960 0
DWIDTH 9 0
BBX 7 9 1 -2
BITMAP
10
10
10
10
FE
10
10
10
10
ENDCHAR

STARTCHAR 253D
ENCODING 9533
SWIDTH 960 0
DWIDTH 9 0
BBX 8 9 0 -2
BITMAP
08
08
08
08
FF
08
08
08
08
ENDCHAR

STARTCHAR 253E
ENCODING 9534
SWIDTH 960 0
DWIDTH 9 0
BBX 8 9 1 -2
BITMAP
10
10
10
10
FF
10
10
10
10
ENDCHAR

STARTCHAR 253F
ENCODING 9535
SWIDTH 960 0
DWIDTH 9 0
BBX 9 9 0 -2
BITMAP
0800
0800
0800
0800
FF80
0800
0800
0800
0800
ENDCHAR

STARTCHAR 2540
ENCODING 9536
SWIDTH 960 0
DWIDTH 9 0
BBX 7 9 1 -2
BITMAP
10
10
10
10
FE
10
10
10
10
ENDCHAR

STARTCHAR 2541
ENCODING 9537
SWIDTH 960 0
DWIDTH 9 0
BBX 7 9 1 -2
BITMAP
10
10
10
10
FE
10
10
10
10
ENDCHAR

STARTCHAR 2542
ENCODING 9538
SWIDTH 960 0
DWIDTH 9 0
BBX 7 9 1 -2
BITMAP
10
10
10
10
FE
10
10
10
10
ENDCHAR

STARTCHAR 2543
ENCODING 9539
SWIDTH 960 0
DWIDTH 9 0
BBX 8 9 0 -2
BITMAP
08
08
08
08
FF
08
08
08
08
ENDCHAR

STARTCHAR 2544
ENCODING 9540
SWIDTH 960 0
DWIDTH 9 0
BBX 8 9 1 -2
BITMAP
10
10
10
10
FF
10
10
10
10
ENDCHAR

STARTCHAR 2545
ENCODING 9541
SWIDTH 960 0
DWIDTH 9 0
BBX 8 9 0 -2
BITMAP
08
08
08
08
FF
08
08
08
08
ENDCHAR

STARTCHAR 2546
ENCODING 9542
SWIDTH 960 0
DWIDTH 9 0
BBX 8 9 1 -2
BITMAP
10
10
10
10
FF
10
10
10
10
ENDCHAR

STARTCHAR 2547
ENCODING 9543
SWIDTH 960 0
DWIDTH 9 0
BBX 9 9 0 -2
BITMAP
0800
0800
0800
0800
FF80
0800
0800
0800
0800
ENDCHAR

STARTCHAR 2548
ENCODING 9544
SWIDTH 960 0
DWIDTH 9 0
BBX 9 9 0 -2
BITMAP
0800
0800
0800
0800
FF80
0800
0800
0800
0800
ENDCHAR

STARTCHAR 2549
ENCODING 9545
SWIDTH 960 0
DWIDTH 9 0
BBX 8 9 0 -2
BITMAP
08
08
08
08
FF
08
08
08
08
ENDCHAR

STARTCHAR 254A
ENCODING 9546
SWIDTH 960 0
DWIDTH 9 0
BBX 8 9 1 -2
BITMAP
10
10
10
10
FF
10
10
10
10
ENDCHAR

STARTCHAR 254B
ENCODING 9547
SWIDTH 960 0
DWIDTH 9 0
BBX 9 9 0 -2
BITMAP
0800
0800
0800
0800
FF80
0800
0800
0800
0800
ENDCHAR

STARTCHAR 2592
ENCODING 9618
SWIDTH 960 0
DWIDTH 9 0
BBX 7 7 1 -1
BITMAP
FE
82
8A
82
82
A2
FE
ENDCHAR

STARTCHAR 25A0
ENCODING 9632
SWIDTH 960 0
DWIDTH 9 0
BBX 7 7 1 -1
BITMAP
FE
FE
FE
FE
FE
FE
FE
ENDCHAR

STARTCHAR 25A1
ENCODING 9633
SWIDTH 960 0
DWIDTH 9 0
BBX 7 7 1 -1
BITMAP
FE
82
82
82
82
82
FE
ENDCHAR

STARTCHAR 25A3
ENCODING 9635
SWIDTH 960 0
DWIDTH 9 0
BBX 7 7 1 -1
BITMAP
FE
BA
BA
BA
BA
82
FE
ENDCHAR

STARTCHAR 25A4
ENCODING 9636
SWIDTH 960 0
DWIDTH 9 0
BBX 7 7 1 -1
BITMAP
FE
82
FE
FE
82
FE
FE
ENDCHAR

STARTCHAR 25A5
ENCODING 9637
SWIDTH 960 0
DWIDTH 9 0
BBX 7 7 1 -1
BITMAP
FE
DA
DA
DA
DA
DA
FE
ENDCHAR

STARTCHAR 25A6
ENCODING 9638
SWIDTH 960 0
DWIDTH 9 0
BBX 7 7 1 -1
BITMAP
FE
FE
DA
FE
DA
FE
FE
ENDCHAR

STARTCHAR 25A7
ENCODING 9639
SWIDTH 960 0
DWIDTH 9 0
BBX 7 7 1 -1
BITMAP
FE
CA
A6
92
CA
A6
FE
ENDCHAR

STARTCHAR 25A8
ENCODING 9640
SWIDTH 960 0
DWIDTH 9 0
BBX 7 7 1 -1
BITMAP
FE
CA
92
A2
C6
8A
FE
ENDCHAR

STARTCHAR 25A9
ENCODING 9641
SWIDTH 960 0
DWIDTH 9 0
BBX 7 7 1 -1
BITMAP
FE
CA
B6
B2
CE
AE
FE
ENDCHAR

STARTCHAR 25B2
ENCODING 9650
SWIDTH 960 0
DWIDTH 9 0
BBX 7 7 1 -1
BITMAP
10
10
38
7C
7C
FE
FE
ENDCHAR

STARTCHAR 25B3
ENCODING 9651
SWIDTH 960 0
DWIDTH 9 0
BBX 7 7 1 -1
BITMAP
10
30
48
44
84
82
FE
ENDCHAR

STARTCHAR 25B6
ENCODING 9654
SWIDTH 960 0
DWIDTH 9 0
BBX 5 6 2 -1
BITMAP
80
C0
F0
F8
F0
C0
ENDCHAR

STARTCHAR 25B7
ENCODING 9655
SWIDTH 960 0
DWIDTH 9 0
BBX 5 6 2 -1
BITMAP
80
C0
B0
88
B0
C0
ENDCHAR

STARTCHAR 25BC
ENCODING 9660
SWIDTH 960 0
DWIDTH 9 0
BBX 7 6 1 0
BITMAP
FE
FE
7C
38
38
10
ENDCHAR

STARTCHAR 25BD
ENCODING 9661
SWIDTH 960 0
DWIDTH 9 0
BBX 7 6 1 0
BITMAP
FE
82
84
48
28
30
ENDCHAR

STARTCHAR 25C0
ENCODING 9664
SWIDTH 960 0
DWIDTH 9 0
BBX 5 6 2 -1
BITMAP
08
18
78
F8
38
18
ENDCHAR

STARTCHAR 25C1
ENCODING 9665
SWIDTH 960 0
DWIDTH 9 0
BBX 5 6 2 -1
BITMAP
08
38
C8
88
48
38
ENDCHAR

STARTCHAR 25C6
ENCODING 9670
SWIDTH 960 0
DWIDTH 9 0
BBX 7 8 1 -1
BITMAP
10
38
7C
FE
FE
7C
38
10
ENDCHAR

STARTCHAR 25C7
ENCODING 9671
SWIDTH 960 0
DWIDTH 9 0
BBX 8 8 0 -1
BITMAP
08
14
22
41
81
42
24
18
ENDCHAR

STARTCHAR 25C8
ENCODING 9672
SWIDTH 960 0
DWIDTH 9 0
BBX 8 8 0 -1
BITMAP
08
1C
3E
7F
BF
5E
2C
18
ENDCHAR

STARTCHAR 25CB
ENCODING 9675
SWIDTH 960 0
DWIDTH 9 0
BBX 7 7 1 -1
BITMAP
FC
82
82
82
82
82
7C
ENDCHAR

STARTCHAR 25CE
ENCODING 9678
SWIDTH 960 0
DWIDTH 9 0
BBX 7 7 1 -1
BITMAP
FC
FA
86
86
C6
AA
7C
ENDCHAR

STARTCHAR 25CF
ENCODING 9679
SWIDTH 960 0
DWIDTH 9 0
BBX 7 7 1 -1
BITMAP
7C
FE
FE
FE
FE
7E
38
ENDCHAR

STARTCHAR 25D0
ENCODING 9680
SWIDTH 960 0
DWIDTH 9 0
BBX 7 7 1 -1
BITMAP
7C
E2
E2
E2
E2
64
38
ENDCHAR

STARTCHAR 25D1
ENCODING 9681
SWIDTH 960 0
DWIDTH 9 0
BBX 7 7 1 -1
BITMAP
FC
8E
8E
8E
8E
8C
78
ENDCHAR

STARTCHAR 2605
ENCODING 9733
SWIDTH 960 0
DWIDTH 9 0
BBX 7 7 1 -1
BITMAP
10
10
FE
7C
38
68
44
ENDCHAR

STARTCHAR 2606
ENCODING 9734
SWIDTH 960 0
DWIDTH 9 0
BBX 7 7 1 -1
BITMAP
30
30
CE
44
48
74
4C
ENDCHAR

STARTCHAR 260E
ENCODING 9742
SWIDTH 960 0
DWIDTH 9 0
BBX 9 6 0 0
BITMAP
1C00
7700
DD80
2200
6200
7F00
ENDCHAR

STARTCHAR 260F
ENCODING 9743
SWIDTH 960 0
DWIDTH 9 0
BBX 9 6 0 0
BITMAP
1C00
F700
EE80
7700
6600
FF00
ENDCHAR

STARTCHAR 261C
ENCODING 9756
SWIDTH 960 0
DWIDTH 9 0
BBX 9 4 0 1
BITMAP
1C00
F380
3D80
1E80
ENDCHAR

STARTCHAR 261E
ENCODING 9758
SWIDTH 960 0
DWIDTH 9 0
BBX 9 4 0 1
BITMAP
1800
E780
9C00
FC00
ENDCHAR

STARTCHAR 2640
ENCODING 9792
SWIDTH 960 0
DWIDTH 9 0
BBX 4 8 2 -1
BITMAP
20
D0
90
60
20
70
20
20
ENDCHAR

STARTCHAR 2642
ENCODING 9794
SWIDTH 960 0
DWIDTH 9 0
BBX 4 8 2 -1
BITMAP
20
20
70
20
20
50
90
F0
ENDCHAR

STARTCHAR 2660
ENCODING 9824
SWIDTH 960 0
DWIDTH 9 0
BBX 7 8 1 -1
BITMAP
10
10
38
7C
7E
FE
7C
10
ENDCHAR

STARTCHAR 2661
ENCODING 9825
SWIDTH 960 0
DWIDTH 9 0
BBX 7 7 1 -1
BITMAP
6C
92
82
84
44
28
10
ENDCHAR

STARTCHAR 2663
ENCODING 9827
SWIDTH 960 0
DWIDTH 9 0
BBX 7 8 1 -1
BITMAP
10
38
38
54
FE
FE
D6
10
ENDCHAR

STARTCHAR 2664
ENCODING 9828
SWIDTH 960 0
DWIDTH 9 0
BBX 7 8 1 -1
BITMAP
10
30
48
44
84
82
6C
30
ENDCHAR

STARTCHAR 2665
ENCODING 9829
SWIDTH 960 0
DWIDTH 9 0
BBX 7 7 1 0
BITMAP
EE
FE
FE
7C
7C
38
10
ENDCHAR

STARTCHAR 2667
ENCODING 9831
SWIDTH 960 0
DWIDTH 9 0
BBX 7 8 1 -1
BITMAP
10
68
48
74
8A
82
FE
30
ENDCHAR

STARTCHAR 2668
ENCODING 9832
SWIDTH 960 0
DWIDTH 9 0
BBX 7 7 1 0
BITMAP
10
58
58
38
BA
8A
7C
ENDCHAR

STARTCHAR 2669
ENCODING 9833
SWIDTH 960 0
DWIDTH 9 0
BBX 1 6 4 0
BITMAP
80
80
80
80
80
80
ENDCHAR

STARTCHAR 266A
ENCODING 9834
SWIDTH 960 0
DWIDTH 9 0
BBX 5 7 2 0
BITMAP
20
50
48
48
40
40
C0
ENDCHAR

STARTCHAR 266C
ENCODING 9836
SWIDTH 960 0
DWIDTH 9 0
BBX 7 7 1 -1
BITMAP
3E
42
7E
42
42
46
84
ENDCHAR

STARTCHAR 266D
ENCODING 9837
SWIDTH 960 0
DWIDTH 9 0
BBX 3 5 3 1
BITMAP
80
E0
A0
A0
C0
ENDCHAR

STARTCHAR 3000
ENCODING 12288
SWIDTH 960 0
DWIDTH 9 0
BBX 0 0 0 0
BITMAP
ENDCHAR

STARTCHAR 3001
ENCODING 12289
SWIDTH 960 0
DWIDTH 9 0
BBX 1 1 4 5
BITMAP
80
ENDCHAR

STARTCHAR 3002
ENCODING 12290
SWIDTH 960 0
DWIDTH 9 0
BBX 1 2 4 5
BITMAP
80
80
ENDCHAR

STARTCHAR 3003
ENCODING 12291
SWIDTH 960 0
DWIDTH 9 0
BBX 3 2 3 1
BITMAP
20
C0
ENDCHAR

STARTCHAR 3008
ENCODING 12296
SWIDTH 960 0
DWIDTH 9 0
BBX 3 7 3 0
BITMAP
40
40
80
80
80
40
20
ENDCHAR

STARTCHAR 3009
ENCODING 12297
SWIDTH 960 0
DWIDTH 9 0
BBX 3 7 3 0
BITMAP
80
40
20
20
40
80
80
ENDCHAR

STARTCHAR 300A
ENCODING 12298
SWIDTH 960 0
DWIDTH 9 0
BBX 3 6 3 0
BITMAP
60
C0
80
80
C0
C0
ENDCHAR

STARTCHAR 300B
ENCODING 12299
SWIDTH 960 0
DWIDTH 9 0
BBX 3 6 3 0
BITMAP
C0
C0
60
60
40
C0
ENDCHAR

STARTCHAR 300C
ENCODING 12300
SWIDTH 960 0
DWIDTH 9 0
BBX 2 4 5 3
BITMAP
C0
80
80
80
ENDCHAR

STARTCHAR 300D
ENCODING 12301
SWIDTH 960 0
DWIDTH 9 0
BBX 3 5 1 -2
BITMAP
20
20
20
20
E0
ENDCHAR

STARTCHAR 300E
ENCODING 12302
SWIDTH 960 0
DWIDTH 9 0
BBX 3 4 5 3
BITMAP
E0
C0
80
80
ENDCHAR

STARTCHAR 300F
ENCODING 12303
SWIDTH 960 0
DWIDTH 9 0
BBX 3 5 1 -2
BITMAP
20
20
20
20
E0
ENDCHAR

STARTCHAR 3010
ENCODING 12304
SWIDTH 960 0
DWIDTH 9 0
BBX 2 8 6 -1
BITMAP
C0
80
80
80
80
80
80
C0
ENDCHAR

STARTCHAR 3011
ENCODING 12305
SWIDTH 960 0
DWIDTH 9 0
BBX 2 8 1 -1
BITMAP
C0
40
40
40
40
40
40
C0
ENDCHAR

STARTCHAR 3013
ENCODING 12307
SWIDTH 960 0
DWIDTH 9 0
BBX 7 2 1 2
BITMAP
FE
7C
ENDCHAR

STARTCHAR 3014
ENCODING 12308
SWIDTH 960 0
DWIDTH 9 0
BBX 2 8 6 -1
BITMAP
40
80
80
80
80
80
80
80
ENDCHAR

STARTCHAR 3015
ENCODING 12309
SWIDTH 960 0
DWIDTH 9 0
BBX 2 8 1 -1
BITMAP
80
40
40
40
40
40
40
40
ENDCHAR

STARTCHAR 3041
ENCODING 12353
SWIDTH 960 0
DWIDTH 9 0
BBX 5 4 2 0
BITMAP
60
78
A8
D0
ENDCHAR

STARTCHAR 3042
ENCODING 12354
SWIDTH 960 0
DWIDTH 9 0
BBX 7 6 1 0
BITMAP
30
28
76
B2
A2
4C
ENDCHAR

STARTCHAR 3043
ENCODING 12355
SWIDTH 960 0
DWIDTH 9 0
BBX 5 4 2 -1
BITMAP
80
80
88
40
ENDCHAR

STARTCHAR 3044
ENCODING 12356
SWIDTH 960 0
DWIDTH 9 0
BBX 7 5 1 0
BITMAP
80
84
82
80
60
ENDCHAR

STARTCHAR 3045
ENCODING 12357
SWIDTH 960 0
DWIDTH 9 0
BBX 2 3 4 0
BITMAP
C0
40
40
ENDCHAR

STARTCHAR 3046
ENCODING 12358
SWIDTH 960 0
DWIDTH 9 0
BBX 5 7 2 -1
BITMAP
30
00
F8
08
08
10
20
ENDCHAR

STARTCHAR 3047
ENCODING 12359
SWIDTH 960 0
DWIDTH 9 0
BBX 4 5 2 -1
BITMAP
20
00
20
60
B0
ENDCHAR

STARTCHAR 3048
ENCODING 12360
SWIDTH 960 0
DWIDTH 9 0
BBX 6 7 2 -1
BITMAP
30
00
E0
40
60
90
1C
ENDCHAR

STARTCHAR 3049
ENCODING 12361
SWIDTH 960 0
DWIDTH 9 0
BBX 5 5 2 -1
BITMAP
40
C8
70
C8
D0
ENDCHAR

STARTCHAR 304A
ENCODING 12362
SWIDTH 960 0
DWIDTH 9 0
BBX 7 6 1 0
BITMAP
B2
40
3C
C4
C4
48
ENDCHAR

STARTCHAR 304B
ENCODING 12363
SWIDTH 960 0
DWIDTH 9 0
BBX 7 7 1 -1
BITMAP
40
44
F2
50
90
90
20
ENDCHAR

STARTCHAR 304C
ENCODING 12364
SWIDTH 960 0
DWIDTH 9 0
BBX 7 8 1 -1
BITMAP
02
42
44
F2
50
90
90
20
ENDCHAR

STARTCHAR 304D
ENCODING 12365
SWIDTH 960 0
DWIDTH 9 0
BBX 5 7 2 -1
BITMAP
20
70
30
50
E8
80
70
ENDCHAR

STARTCHAR 304E
ENCODING 12366
SWIDTH 960 0
DWIDTH 9 0
BBX 7 7 1 -1
BITMAP
26
70
38
10
E8
80
70
ENDCHAR

STARTCHAR 304F
ENCODING 12367
SWIDTH 960 0
DWIDTH 9 0
BBX 3 7 3 -1
BITMAP
20
40
80
80
40
40
20
ENDCHAR

STARTCHAR 3050
ENCODING 12368
SWIDTH 960 0
DWIDTH 9 0
BBX 5 7 2 -1
BITMAP
20
58
80
80
40
40
20
ENDCHAR

STARTCHAR 3051
ENCODING 12369
SWIDTH 960 0
DWIDTH 9 0
BBX 7 6 1 -1
BITMAP
08
86
88
88
88
88
ENDCHAR

STARTCHAR 3052
ENCODING 12370
SWIDTH 960 0
DWIDTH 9 0
BBX 7 8 1 -1
BITMAP
02
88
84
98
88
88
88
10
ENDCHAR

STARTCHAR 3053
ENCODING 12371
SWIDTH 960 0
DWIDTH 9 0
BBX 5 6 2 0
BITMAP
08
30
00
00
00
F8
ENDCHAR

STARTCHAR 3054
ENCODING 12372
SWIDTH 960 0
DWIDTH 9 0
BBX 5 6 1 0
BITMAP
48
30
00
00
00
F8
ENDCHAR

STARTCHAR 3055
ENCODING 12373
SWIDTH 960 0
DWIDTH 9 0
BBX 5 7 2 -1
BITMAP
20
30
50
28
D0
80
70
ENDCHAR

STARTCHAR 3056
ENCODING 12374
SWIDTH 960 0
DWIDTH 9 0
BBX 6 7 1 0
BITMAP
24
38
50
28
D0
80
70
ENDCHAR

STARTCHAR 3057
ENCODING 12375
SWIDTH 960 0
DWIDTH 9 0
BBX 5 7 2 -1
BITMAP
80
80
80
80
88
90
60
ENDCHAR

STARTCHAR 3058
ENCODING 12376
SWIDTH 960 0
DWIDTH 9 0
BBX 4 7 2 -1
BITMAP
80
90
80
80
80
90
60
ENDCHAR

STARTCHAR 3059
ENCODING 12377
SWIDTH 960 0
DWIDTH 9 0
BBX 6 7 1 -1
BITMAP
10
FC
30
50
50
30
20
ENDCHAR

STARTCHAR 305A
ENCODING 12378
SWIDTH 960 0
DWIDTH 9 0
BBX 6 7 1 0
BITMAP
10
FC
30
50
50
30
20
ENDCHAR

STARTCHAR 305B
ENCODING 12379
SWIDTH 960 0
DWIDTH 9 0
BBX 6 5 1 1
BITMAP
48
FC
48
48
38
ENDCHAR

STARTCHAR 305C
ENCODING 12380
SWIDTH 960 0
DWIDTH 9 0
BBX 6 6 1 0
BITMAP
40
48
FC
48
40
38
ENDCHAR

STARTCHAR 305D
ENCODING 12381
SWIDTH 960 0
DWIDTH 9 0
BBX 5 7 2 -1
BITMAP
90
20
78
A0
40
20
10
ENDCHAR

STARTCHAR 305E
ENCODING 12382
SWIDTH 960 0
DWIDTH 9 0
BBX 4 7 2 -1
BITMAP
90
20
70
C0
40
40
30
ENDCHAR

STARTCHAR 305F
ENCODING 12383
SWIDTH 960 0
DWIDTH 9 0
BBX 7 6 1 0
BITMAP
20
30
4E
40
40
9C
ENDCHAR

STARTCHAR 3060
ENCODING 12384
SWIDTH 960 0
DWIDTH 9 0
BBX 7 6 1 0
BITMAP
42
60
4C
40
80
B8
ENDCHAR

STARTCHAR 3061
ENCODING 12385
SWIDTH 960 0
DWIDTH 9 0
BBX 7 6 1 0
BITMAP
F0
40
5C
22
04
18
ENDCHAR

STARTCHAR 3062
ENCODING 12386
SWIDTH 960 0
DWIDTH 9 0
BBX 7 7 1 -1
BITMAP
02
E0
40
7C
44
04
18
ENDCHAR

STARTCHAR 3063
ENCODING 12387
SWIDTH 960 0
DWIDTH 9 0
BBX 4 4 3 -1
BITMAP
20
D0
10
20
ENDCHAR

STARTCHAR 3064
ENCODING 12388
SWIDTH 960 0
DWIDTH 9 0
BBX 6 5 2 0
BITMAP
F8
04
04
08
30
ENDCHAR

STARTCHAR 3065
ENCODING 12389
SWIDTH 960 0
DWIDTH 9 0
BBX 6 5 1 1
BITMAP
7C
84
04
04
18
ENDCHAR

STARTCHAR 3066
ENCODING 12390
SWIDTH 960 0
DWIDTH 9 0
BBX 6 6 2 0
BITMAP
3C
E0
20
40
20
10
ENDCHAR

STARTCHAR 3067
ENCODING 12391
SWIDTH 960 0
DWIDTH 9 0
BBX 5 6 2 0
BITMAP
38
E0
48
40
40
30
ENDCHAR

STARTCHAR 3068
ENCODING 12392
SWIDTH 960 0
DWIDTH 9 0
BBX 5 6 2 0
BITMAP
40
48
30
C0
80
F0
ENDCHAR

STARTCHAR 3069
ENCODING 12393
SWIDTH 960 0
DWIDTH 9 0
BBX 7 6 1 0
BITMAP
46
48
30
40
80
F0
ENDCHAR

STARTCHAR 306A
ENCODING 12394
SWIDTH 960 0
DWIDTH 9 0
BBX 7 6 1 0
BITMAP
E2
48
88
88
3C
10
ENDCHAR

STARTCHAR 306B
ENCODING 12395
SWIDTH 960 0
DWIDTH 9 0
BBX 7 5 1 1
BITMAP
88
80
80
80
9E
ENDCHAR

STARTCHAR 306C
ENCODING 12396
SWIDTH 960 0
DWIDTH 9 0
BBX 7 6 1 0
BITMAP
10
98
E4
E2
A4
DE
ENDCHAR

STARTCHAR 306D
ENCODING 12397
SWIDTH 960 0
DWIDTH 9 0
BBX 7 7 1 -1
BITMAP
40
4C
74
44
CC
56
48
ENDCHAR

STARTCHAR 306E
ENCODING 12398
SWIDTH 960 0
DWIDTH 9 0
BBX 7 5 1 1
BITMAP
7C
92
A2
A2
44
ENDCHAR

STARTCHAR 306F
ENCODING 12399
SWIDTH 960 0
DWIDTH 9 0
BBX 7 7 1 -1
BITMAP
88
8A
8C
88
88
BE
18
ENDCHAR

STARTCHAR 3070
ENCODING 12400
SWIDTH 960 0
DWIDTH 9 0
BBX 7 8 1 -1
BITMAP
02
88
8C
98
88
88
BC
90
ENDCHAR

STARTCHAR 3071
ENCODING 12401
SWIDTH 960 0
DWIDTH 9 0
BBX 7 8 1 -1
BITMAP
06
8E
88
98
88
88
B4
98
ENDCHAR

STARTCHAR 3072
ENCODING 12402
SWIDTH 960 0
DWIDTH 9 0
BBX 7 6 1 0
BITMAP
44
8A
88
88
88
70
ENDCHAR

STARTCHAR 3073
ENCODING 12403
SWIDTH 960 0
DWIDTH 9 0
BBX 7 7 1 -1
BITMAP
48
84
8A
88
88
90
60
ENDCHAR

STARTCHAR 3074
ENCODING 12404
SWIDTH 960 0
DWIDTH 9 0
BBX 7 7 1 -1
BITMAP
4E
44
8A
88
88
90
60
ENDCHAR

STARTCHAR 3075
ENCODING 12405
SWIDTH 960 0
DWIDTH 9 0
BBX 7 6 1 0
BITMAP
10
00
00
20
12
C8
ENDCHAR

STARTCHAR 3076
ENCODING 12406
SWIDTH 960 0
DWIDTH 9 0
BBX 7 6 1 0
BITMAP
10
00
00
20
12
C8
ENDCHAR

STARTCHAR 3077
ENCODING 12407
SWIDTH 960 0
DWIDTH 9 0
BBX 7 6 1 0
BITMAP
10
06
00
20
12
C8
ENDCHAR

STARTCHAR 3078
ENCODING 12408
SWIDTH 960 0
DWIDTH 9 0
BBX 7 3 1 2
BITMAP
70
88
06
ENDCHAR

STARTCHAR 3079
ENCODING 12409
SWIDTH 960 0
DWIDTH 9 0
BBX 7 4 1 1
BITMAP
02
70
88
06
ENDCHAR

STARTCHAR 307A
ENCODING 12410
SWIDTH 960 0
DWIDTH 9 0
BBX 7 4 1 1
BITMAP
0E
74
88
06
ENDCHAR

STARTCHAR 307B
ENCODING 12411
SWIDTH 960 0
DWIDTH 9 0
BBX 6 7 1 -1
BITMAP
9C
88
9C
88
88
BC
98
ENDCHAR

STARTCHAR 307C
ENCODING 12412
SWIDTH 960 0
DWIDTH 9 0
BBX 7 7 1 -1
BITMAP
BE
88
B8
88
88
FC
B0
ENDCHAR

STARTCHAR 307D
ENCODING 12413
SWIDTH 960 0
DWIDTH 9 0
BBX 7 7 1 -1
BITMAP
BA
8E
B8
88
88
FC
B0
ENDCHAR

STARTCHAR 307E
ENCODING 12414
SWIDTH 960 0
DWIDTH 9 0
BBX 5 7 2 -1
BITMAP
20
70
20
30
20
F8
60
ENDCHAR

STARTCHAR 307F
ENCODING 12415
SWIDTH 960 0
DWIDTH 9 0
BBX 7 6 1 -1
BITMAP
30
10
24
7C
CA
C8
ENDCHAR

STARTCHAR 3080
ENCODING 12416
SWIDTH 960 0
DWIDTH 9 0
BBX 7 7 1 -1
BITMAP
20
42
40
A0
C0
44
38
ENDCHAR

STARTCHAR 3081
ENCODING 12417
SWIDTH 960 0
DWIDTH 9 0
BBX 7 6 1 0
BITMAP
08
58
76
D2
A2
C4
ENDCHAR

STARTCHAR 3082
ENCODING 12418
SWIDTH 960 0
DWIDTH 9 0
BBX 5 7 2 -1
BITMAP
40
E0
80
E8
88
88
70
ENDCHAR

STARTCHAR 3083
ENCODING 12419
SWIDTH 960 0
DWIDTH 9 0
BBX 5 5 2 -1
BITMAP
20
38
C8
40
20
ENDCHAR

STARTCHAR 3084
ENCODING 12420
SWIDTH 960 0
DWIDTH 9 0
BBX 7 7 1 -1
BITMAP
10
4E
72
A2
24
10
10
ENDCHAR

STARTCHAR 3085
ENCODING 12421
SWIDTH 960 0
DWIDTH 9 0
BBX 5 4 2 0
BITMAP
B0
E8
A8
30
ENDCHAR

STARTCHAR 3086
ENCODING 12422
SWIDTH 960 0
DWIDTH 9 0
BBX 7 6 1 -1
BITMAP
08
9C
EA
8A
94
98
ENDCHAR

STARTCHAR 3087
ENCODING 12423
SWIDTH 960 0
DWIDTH 9 0
BBX 3 5 3 -1
BITMAP
40
60
40
C0
C0
ENDCHAR

STARTCHAR 3088
ENCODING 12424
SWIDTH 960 0
DWIDTH 9 0
BBX 5 7 2 -1
BITMAP
20
38
20
20
60
B8
C0
ENDCHAR

STARTCHAR 3089
ENCODING 12425
SWIDTH 960 0
DWIDTH 9 0
BBX 5 7 2 -1
BITMAP
20
80
80
F8
88
08
30
ENDCHAR

STARTCHAR 308A
ENCODING 12426
SWIDTH 960 0
DWIDTH 9 0
BBX 4 6 2 0
BITMAP
90
90
90
10
10
20
ENDCHAR

STARTCHAR 308B
ENCODING 12427
SWIDTH 960 0
DWIDTH 9 0
BBX 5 7 2 -1
BITMAP
F0
20
70
88
08
E8
50
ENDCHAR

STARTCHAR 308C
ENCODING 12428
SWIDTH 960 0
DWIDTH 9 0
BBX 7 7 1 -1
BITMAP
40
5C
64
48
C8
4A
44
ENDCHAR

STARTCHAR 308D
ENCODING 12429
SWIDTH 960 0
DWIDTH 9 0
BBX 4 7 3 -1
BITMAP
E0
40
80
F0
10
10
20
ENDCHAR

STARTCHAR 308E
ENCODING 12430
SWIDTH 960 0
DWIDTH 9 0
BBX 5 5 2 -1
BITMAP
40
40
78
C8
50
ENDCHAR

STARTCHAR 308F
ENCODING 12431
SWIDTH 960 0
DWIDTH 9 0
BBX 7 6 1 -1
BITMAP
40
60
7E
42
C2
44
ENDCHAR

STARTCHAR 3090
ENCODING 12432
SWIDTH 960 0
DWIDTH 9 0
BBX 7 7 1 -1
BITMAP
30
10
3C
62
A2
FC
18
ENDCHAR

STARTCHAR 3091
ENCODING 12433
SWIDTH 960 0
DWIDTH 9 0
BBX 5 6 2 -1
BITMAP
30
60
78
68
50
F8
ENDCHAR

STARTCHAR 3092
ENCODING 12434
SWIDTH 960 0
DWIDTH 9 0
BBX 6 6 1 0
BITMAP
20
30
CC
30
40
38
ENDCHAR

STARTCHAR 3093
ENCODING 12435
SWIDTH 960 0
DWIDTH 9 0
BBX 7 6 1 0
BITMAP
10
20
20
30
50
8E
ENDCHAR

STARTCHAR 30A1
ENCODING 12449
SWIDTH 960 0
DWIDTH 9 0
BBX 4 4 3 -1
BITMAP
F0
00
80
80
ENDCHAR

STARTCHAR 30A2
ENCODING 12450
SWIDTH 960 0
DWIDTH 9 0
BBX 7 6 1 0
BITMAP
FC
06
08
20
20
40
ENDCHAR

STARTCHAR 30A3
ENCODING 12451
SWIDTH 960 0
DWIDTH 9 0
BBX 4 4 3 -1
BITMAP
10
60
C0
40
ENDCHAR

STARTCHAR 30A4
ENCODING 12452
SWIDTH 960 0
DWIDTH 9 0
BBX 5 6 2 -1
BITMAP
08
10
20
E0
20
20
ENDCHAR

STARTCHAR 30A5
ENCODING 12453
SWIDTH 960 0
DWIDTH 9 0
BBX 3 5 3 -1
BITMAP
40
E0
20
20
40
ENDCHAR

STARTCHAR 30A6
ENCODING 12454
SWIDTH 960 0
DWIDTH 9 0
BBX 5 7 2 -1
BITMAP
20
F8
88
08
10
10
20
ENDCHAR

STARTCHAR 30A7
ENCODING 12455
SWIDTH 960 0
DWIDTH 9 0
BBX 3 3 3 -1
BITMAP
40
40
E0
ENDCHAR

STARTCHAR 30A8
ENCODING 12456
SWIDTH 960 0
DWIDTH 9 0
BBX 5 4 2 1
BITMAP
F8
20
20
F8
ENDCHAR

STARTCHAR 30A9
ENCODING 12457
SWIDTH 960 0
DWIDTH 9 0
BBX 3 2 3 0
BITMAP
E0
C0
ENDCHAR

STARTCHAR 30AA
ENCODING 12458
SWIDTH 960 0
DWIDTH 9 0
BBX 5 6 2 0
BITMAP
10
10
78
50
90
10
ENDCHAR

STARTCHAR 30AB
ENCODING 12459
SWIDTH 960 0
DWIDTH 9 0
BBX 5 6 2 0
BITMAP
20
20
F8
48
48
88
ENDCHAR

STARTCHAR 30AC
ENCODING 12460
SWIDTH 960 0
DWIDTH 9 0
BBX 6 6 1 0
BITMAP
24
20
7C
24
44
88
ENDCHAR

STARTCHAR 30AD
ENCODING 12461
SWIDTH 960 0
DWIDTH 9 0
BBX 5 6 2 -1
BITMAP
40
78
20
78
A0
20
ENDCHAR

STARTCHAR 30AE
ENCODING 12462
SWIDTH 960 0
DWIDTH 9 0
BBX 6 8 2 -1
BITMAP
04
40
F0
40
78
A0
20
20
ENDCHAR

STARTCHAR 30AF
ENCODING 12463
SWIDTH 960 0
DWIDTH 9 0
BBX 5 7 2 -1
BITMAP
20
58
88
10
20
40
80
ENDCHAR

STARTCHAR 30B0
ENCODING 12464
SWIDTH 960 0
DWIDTH 9 0
BBX 6 7 1 0
BITMAP
20
3C
C8
10
20
40
80
ENDCHAR

STARTCHAR 30B1
ENCODING 12465
SWIDTH 960 0
DWIDTH 9 0
BBX 6 7 1 -1
BITMAP
20
40
7C
88
10
10
20
ENDCHAR

STARTCHAR 30B2
ENCODING 12466
SWIDTH 960 0
DWIDTH 9 0
BBX 7 6 1 0
BITMAP
42
40
BC
10
10
20
ENDCHAR

STARTCHAR 30B3
ENCODING 12467
SWIDTH 960 0
DWIDTH 9 0
BBX 4 5 3 0
BITMAP
F0
10
10
10
E0
ENDCHAR

STARTCHAR 30B4
ENCODING 12468
SWIDTH 960 0
DWIDTH 9 0
BBX 6 7 2 0
BITMAP
04
00
F0
10
10
10
E0
ENDCHAR

STARTCHAR 30B5
ENCODING 12469
SWIDTH 960 0
DWIDTH 9 0
BBX 5 6 2 -1
BITMAP
90
90
F8
90
10
20
ENDCHAR

STARTCHAR 30B6
ENCODING 12470
SWIDTH 960 0
DWIDTH 9 0
BBX 6 8 2 -1
BITMAP
04
98
90
F8
90
10
20
40
ENDCHAR

STARTCHAR 30B7
ENCODING 12471
SWIDTH 960 0
DWIDTH 9 0
BBX 7 5 1 1
BITMAP
20
82
44
08
30
ENDCHAR

STARTCHAR 30B8
ENCODING 12472
SWIDTH 960 0
DWIDTH 9 0
BBX 7 6 1 0
BITMAP
40
20
82
44
08
30
ENDCHAR

STARTCHAR 30B9
ENCODING 12473
SWIDTH 960 0
DWIDTH 9 0
BBX 5 5 2 0
BITMAP
70
10
30
48
80
ENDCHAR

STARTCHAR 30BA
ENCODING 12474
SWIDTH 960 0
DWIDTH 9 0
BBX 7 7 1 0
BITMAP
02
04
38
10
10
28
C4
ENDCHAR

STARTCHAR 30BB
ENCODING 12475
SWIDTH 960 0
DWIDTH 9 0
BBX 7 6 1 0
BITMAP
20
24
FE
24
20
3C
ENDCHAR

STARTCHAR 30BC
ENCODING 12476
SWIDTH 960 0
DWIDTH 9 0
BBX 7 7 1 0
BITMAP
02
04
44
FC
48
40
7C
ENDCHAR

STARTCHAR 30BD
ENCODING 12477
SWIDTH 960 0
DWIDTH 9 0
BBX 5 5 2 0
BITMAP
88
08
10
20
40
ENDCHAR

STARTCHAR 30BE
ENCODING 12478
SWIDTH 960 0
DWIDTH 9 0
BBX 7 8 1 -1
BITMAP
02
00
8C
08
10
10
20
40
ENDCHAR

STARTCHAR 30BF
ENCODING 12479
SWIDTH 960 0
DWIDTH 9 0
BBX 5 7 2 -1
BITMAP
20
58
88
30
20
40
80
ENDCHAR

STARTCHAR 30C0
ENCODING 12480
SWIDTH 960 0
DWIDTH 9 0
BBX 7 8 1 -1
BITMAP
02
24
5C
88
30
10
20
C0
ENDCHAR

STARTCHAR 30C1
ENCODING 12481
SWIDTH 960 0
DWIDTH 9 0
BBX 5 7 2 -1
BITMAP
10
60
20
F8
20
40
80
ENDCHAR

STARTCHAR 30C2
ENCODING 12482
SWIDTH 960 0
DWIDTH 9 0
BBX 6 6 2 -1
BITMAP
30
E4
20
F0
40
80
ENDCHAR

STARTCHAR 30C3
ENCODING 12483
SWIDTH 960 0
DWIDTH 9 0
BBX 5 4 2 -1
BITMAP
88
10
10
20
ENDCHAR

STARTCHAR 30C4
ENCODING 12484
SWIDTH 960 0
DWIDTH 9 0
BBX 7 6 1 0
BITMAP
A2
44
04
08
10
20
ENDCHAR

STARTCHAR 30C5
ENCODING 12485
SWIDTH 960 0
DWIDTH 9 0
BBX 7 7 1 -1
BITMAP
02
00
A4
84
08
10
20
ENDCHAR

STARTCHAR 30C6
ENCODING 12486
SWIDTH 960 0
DWIDTH 9 0
BBX 7 6 1 -1
BITMAP
7C
00
FE
10
10
20
ENDCHAR

STARTCHAR 30C7
ENCODING 12487
SWIDTH 960 0
DWIDTH 9 0
BBX 7 7 1 -1
BITMAP
7A
00
FC
10
20
20
40
ENDCHAR

STARTCHAR 30C8
ENCODING 12488
SWIDTH 960 0
DWIDTH 9 0
BBX 3 7 3 -1
BITMAP
80
80
80
E0
80
80
80
ENDCHAR

STARTCHAR 30C9
ENCODING 12489
SWIDTH 960 0
DWIDTH 9 0
BBX 2 5 3 0
BITMAP
80
80
C0
80
80
ENDCHAR

STARTCHAR 30CA
ENCODING 12490
SWIDTH 960 0
DWIDTH 9 0
BBX 5 7 2 -1
BITMAP
20
20
F8
20
40
40
80
ENDCHAR

STARTCHAR 30CB
ENCODING 12491
SWIDTH 960 0
DWIDTH 9 0
BBX 5 4 2 1
BITMAP
70
00
00
F8
ENDCHAR

STARTCHAR 30CC
ENCODING 12492
SWIDTH 960 0
DWIDTH 9 0
BBX 5 7 2 -1
BITMAP
F8
08
48
30
28
40
80
ENDCHAR

STARTCHAR 30CD
ENCODING 12493
SWIDTH 960 0
DWIDTH 9 0
BBX 7 7 1 -1
BITMAP
10
7C
08
14
F2
10
10
ENDCHAR

STARTCHAR 30CE
ENCODING 12494
SWIDTH 960 0
DWIDTH 9 0
BBX 5 6 2 0
BITMAP
08
08
10
20
20
C0
ENDCHAR

STARTCHAR 30CF
ENCODING 12495
SWIDTH 960 0
DWIDTH 9 0
BBX 7 4 1 1
BITMAP
20
44
42
82
ENDCHAR

STARTCHAR 30D0
ENCODING 12496
SWIDTH 960 0
DWIDTH 9 0
BBX 7 4 1 2
BITMAP
08
44
44
82
ENDCHAR

STARTCHAR 30D1
ENCODING 12497
SWIDTH 960 0
DWIDTH 9 0
BBX 7 5 1 1
BITMAP
06
20
44
44
82
ENDCHAR

STARTCHAR 30D2
ENCODING 12498
SWIDTH 960 0
DWIDTH 9 0
BBX 5 6 2 0
BITMAP
80
88
F0
80
80
F8
ENDCHAR

STARTCHAR 30D3
ENCODING 12499
SWIDTH 960 0
DWIDTH 9 0
BBX 6 6 1 1
BITMAP
84
88
B0
C0
80
F8
ENDCHAR

STARTCHAR 30D4
ENCODING 12500
SWIDTH 960 0
DWIDTH 9 0
BBX 7 7 1 0
BITMAP
06
8A
8C
B0
C0
80
F8
ENDCHAR

STARTCHAR 30D5
ENCODING 12501
SWIDTH 960 0
DWIDTH 9 0
BBX 5 6 2 -1
BITMAP
F8
08
10
10
20
40
ENDCHAR

STARTCHAR 30D6
ENCODING 12502
SWIDTH 960 0
DWIDTH 9 0
BBX 6 8 2 -1
BITMAP
04
00
F8
10
10
20
40
80
ENDCHAR

STARTCHAR 30D7
ENCODING 12503
SWIDTH 960 0
DWIDTH 9 0
BBX 6 8 2 -1
BITMAP
0C
04
F8
10
10
20
40
80
ENDCHAR

STARTCHAR 30D8
ENCODING 12504
SWIDTH 960 0
DWIDTH 9 0
BBX 7 4 1 1
BITMAP
20
50
8C
02
ENDCHAR

STARTCHAR 30D9
ENCODING 12505
SWIDTH 960 0
DWIDTH 9 0
BBX 7 5 1 1
BITMAP
04
20
50
8C
02
ENDCHAR

STARTCHAR 30DA
ENCODING 12506
SWIDTH 960 0
DWIDTH 9 0
BBX 7 5 1 1
BITMAP
0C
20
50
88
06
ENDCHAR

STARTCHAR 30DB
ENCODING 12507
SWIDTH 960 0
DWIDTH 9 0
BBX 7 6 1 0
BITMAP
10
10
7C
54
92
90
ENDCHAR

STARTCHAR 30DC
ENCODING 12508
SWIDTH 960 0
DWIDTH 9 0
BBX 7 6 1 1
BITMAP
12
10
7C
54
92
90
ENDCHAR

STARTCHAR 30DD
ENCODING 12509
SWIDTH 960 0
DWIDTH 9 0
BBX 7 6 1 0
BITMAP
16
10
3C
54
92
B0
ENDCHAR

STARTCHAR 30DE
ENCODING 12510
SWIDTH 960 0
DWIDTH 9 0
BBX 7 4 1 0
BITMAP
FE
04
08
30
ENDCHAR

STARTCHAR 30DF
ENCODING 12511
SWIDTH 960 0
DWIDTH 9 0
BBX 3 6 3 0
BITMAP
80
60
80
40
00
E0
ENDCHAR

STARTCHAR 30E0
ENCODING 12512
SWIDTH 960 0
DWIDTH 9 0
BBX 7 6 1 0
BITMAP
10
20
20
20
44
FA
ENDCHAR

STARTCHAR 30E1
ENCODING 12513
SWIDTH 960 0
DWIDTH 9 0
BBX 5 5 2 1
BITMAP
08
30
10
28
C0
ENDCHAR

STARTCHAR 30E2
ENCODING 12514
SWIDTH 960 0
DWIDTH 9 0
BBX 6 5 2 0
BITMAP
70
40
F8
40
7C
ENDCHAR

STARTCHAR 30E3
ENCODING 12515
SWIDTH 960 0
DWIDTH 9 0
BBX 4 5 3 -1
BITMAP
80
B0
C0
80
40
ENDCHAR

STARTCHAR 30E4
ENCODING 12516
SWIDTH 960 0
DWIDTH 9 0
BBX 7 6 1 -1
BITMAP
20
26
FC
20
20
10
ENDCHAR

STARTCHAR 30E5
ENCODING 12517
SWIDTH 960 0
DWIDTH 9 0
BBX 5 3 2 -1
BITMAP
30
10
F8
ENDCHAR

STARTCHAR 30E6
ENCODING 12518
SWIDTH 960 0
DWIDTH 9 0
BBX 5 4 2 1
BITMAP
70
10
10
F8
ENDCHAR

STARTCHAR 30E7
ENCODING 12519
SWIDTH 960 0
DWIDTH 9 0
BBX 3 4 3 -1
BITMAP
E0
20
60
E0
ENDCHAR

STARTCHAR 30E8
ENCODING 12520
SWIDTH 960 0
DWIDTH 9 0
BBX 5 5 2 0
BITMAP
78
08
78
08
F8
ENDCHAR

STARTCHAR 30E9
ENCODING 12521
SWIDTH 960 0
DWIDTH 9 0
BBX 5 7 2 -1
BITMAP
F0
00
F8
08
10
20
40
ENDCHAR

STARTCHAR 30EA
ENCODING 12522
SWIDTH 960 0
DWIDTH 9 0
BBX 2 5 4 0
BITMAP
40
40
40
40
80
ENDCHAR

STARTCHAR 30EB
ENCODING 12523
SWIDTH 960 0
DWIDTH 9 0
BBX 7 5 1 1
BITMAP
50
50
52
94
88
ENDCHAR

STARTCHAR 30EC
ENCODING 12524
SWIDTH 960 0
DWIDTH 9 0
BBX 5 5 2 1
BITMAP
80
80
88
B0
C0
ENDCHAR

STARTCHAR 30ED
ENCODING 12525
SWIDTH 960 0
DWIDTH 9 0
BBX 5 5 2 0
BITMAP
F8
88
88
88
F8
ENDCHAR

STARTCHAR 30EE
ENCODING 12526
SWIDTH 960 0
DWIDTH 9 0
BBX 5 4 2 -1
BITMAP
F8
90
10
20
ENDCHAR

STARTCHAR 30EF
ENCODING 12527
SWIDTH 960 0
DWIDTH 9 0
BBX 5 7 2 -1
BITMAP
F8
88
88
08
08
10
20
ENDCHAR

STARTCHAR 30F0
ENCODING 12528
SWIDTH 960 0
DWIDTH 9 0
BBX 7 7 1 -1
BITMAP
08
FC
48
48
BE
08
08
ENDCHAR

STARTCHAR 30F1
ENCODING 12529
SWIDTH 960 0
DWIDTH 9 0
BBX 7 5 1 1
BITMAP
3C
18
10
10
FE
ENDCHAR

STARTCHAR 30F2
ENCODING 12530
SWIDTH 960 0
DWIDTH 9 0
BBX 5 6 2 0
BITMAP
F8
08
F8
10
10
60
ENDCHAR

STARTCHAR 30F3
ENCODING 12531
SWIDTH 960 0
DWIDTH 9 0
BBX 6 5 2 1
BITMAP
80
04
08
30
C0
ENDCHAR

STARTCHAR 30F4
ENCODING 12532
SWIDTH 960 0
DWIDTH 9 0
BBX 7 8 1 -1
BITMAP
02
24
FC
84
08
08
10
20
ENDCHAR

STARTCHAR 30F5
ENCODING 12533
SWIDTH 960 0
DWIDTH 9 0
BBX 4 4 3 -1
BITMAP
40
70
90
20
ENDCHAR

STARTCHAR 30F6
ENCODING 12534
SWIDTH 960 0
DWIDTH 9 0
BBX 4 3 2 0
BITMAP
40
B0
20
ENDCHAR

STARTCHAR 3131
ENCODING 12593
SWIDTH 960 0
DWIDTH 9 0
BBX 5 4 2 0
BITMAP
F8
08
08
08
ENDCHAR

STARTCHAR 3132
ENCODING 12594
SWIDTH 960 0
DWIDTH 9 0
BBX 7 5 1 0
BITMAP
EE
22
22
22
02
ENDCHAR

STARTCHAR 3133
ENCODING 12595
SWIDTH 960 0
DWIDTH 9 0
BBX 6 5 1 0
BITMAP
E0
28
2C
2C
20
ENDCHAR

STARTCHAR 3134
ENCODING 12596
SWIDTH 960 0
DWIDTH 9 0
BBX 5 3 2 2
BITMAP
80
80
F8
ENDCHAR

STARTCHAR 3135
ENCODING 12597
SWIDTH 960 0
DWIDTH 9 0
BBX 7 5 1 0
BITMAP
9E
88
8C
94
C0
ENDCHAR

STARTCHAR 3136
ENCODING 12598
SWIDTH 960 0
DWIDTH 9 0
BBX 6 5 1 0
BITMAP
80
8C
9C
94
CC
ENDCHAR

STARTCHAR 3137
ENCODING 12599
SWIDTH 960 0
DWIDTH 9 0
BBX 5 4 2 1
BITMAP
F0
80
80
F8
ENDCHAR

STARTCHAR 3138
ENCODING 12600
SWIDTH 960 0
DWIDTH 9 0
BBX 7 4 1 1
BITMAP
EE
90
90
EC
ENDCHAR

STARTCHAR 3139
ENCODING 12601
SWIDTH 960 0
DWIDTH 9 0
BBX 5 5 2 0
BITMAP
F8
08
F0
80
F8
ENDCHAR

STARTCHAR 313A
ENCODING 12602
SWIDTH 960 0
DWIDTH 9 0
BBX 7 5 1 0
BITMAP
EE
22
C2
82
E2
ENDCHAR

STARTCHAR 313B
ENCODING 12603
SWIDTH 960 0
DWIDTH 9 0
BBX 7 5 1 0
BITMAP
EE
2A
CA
8A
EE
ENDCHAR

STARTCHAR 313C
ENCODING 12604
SWIDTH 960 0
DWIDTH 9 0
BBX 7 5 1 0
BITMAP
E2
32
DE
92
CE
ENDCHAR

STARTCHAR 313D
ENCODING 12605
SWIDTH 960 0
DWIDTH 9 0
BBX 7 5 1 0
BITMAP
E0
28
C4
8C
C2
ENDCHAR

STARTCHAR 313E
ENCODING 12606
SWIDTH 960 0
DWIDTH 9 0
BBX 7 5 1 0
BITMAP
EE
30
CE
90
EE
ENDCHAR

STARTCHAR 313F
ENCODING 12607
SWIDTH 960 0
DWIDTH 9 0
BBX 7 5 1 0
BITMAP
FE
20
D4
94
C8
ENDCHAR

STARTCHAR 3140
ENCODING 12608
SWIDTH 960 0
DWIDTH 9 0
BBX 7 5 1 0
BITMAP
E0
2C
CC
92
CC
ENDCHAR

STARTCHAR 3141
ENCODING 12609
SWIDTH 960 0
DWIDTH 9 0
BBX 5 4 2 1
BITMAP
F8
88
88
F8
ENDCHAR

STARTCHAR 3142
ENCODING 12610
SWIDTH 960 0
DWIDTH 9 0
BBX 5 3 2 2
BITMAP
88
F8
F8
ENDCHAR

STARTCHAR 3143
ENCODING 12611
SWIDTH 960 0
DWIDTH 9 0
BBX 7 4 1 1
BITMAP
AA
EA
AE
EE
ENDCHAR

STARTCHAR 3144
ENCODING 12612
SWIDTH 960 0
DWIDTH 9 0
BBX 7 5 1 0
BITMAP
A0
A8
E4
AC
42
ENDCHAR

STARTCHAR 3145
ENCODING 12613
SWIDTH 960 0
DWIDTH 9 0
BBX 7 5 1 0
BITMAP
10
10
30
48
86
ENDCHAR

STARTCHAR 3146
ENCODING 12614
SWIDTH 960 0
DWIDTH 9 0
BBX 6 3 1 2
BITMAP
48
68
84
ENDCHAR

STARTCHAR 3147
ENCODING 12615
SWIDTH 960 0
DWIDTH 9 0
BBX 5 5 2 0
BITMAP
70
88
88
88
70
ENDCHAR

STARTCHAR 3148
ENCODING 12616
SWIDTH 960 0
DWIDTH 9 0
BBX 5 4 2 0
BITMAP
F8
20
50
88
ENDCHAR

STARTCHAR 3149
ENCODING 12617
SWIDTH 960 0
DWIDTH 9 0
BBX 6 4 1 0
BITMAP
EC
48
6C
94
ENDCHAR

STARTCHAR 314A
ENCODING 12618
SWIDTH 960 0
DWIDTH 9 0
BBX 5 5 2 0
BITMAP
20
70
60
50
88
ENDCHAR

STARTCHAR 314B
ENCODING 12619
SWIDTH 960 0
DWIDTH 9 0
BBX 5 5 2 0
BITMAP
F8
08
E8
08
08
ENDCHAR

STARTCHAR 314C
ENCODING 12620
SWIDTH 960 0
DWIDTH 9 0
BBX 5 4 2 1
BITMAP
F8
80
F0
F0
ENDCHAR

STARTCHAR 314D
ENCODING 12621
SWIDTH 960 0
DWIDTH 9 0
BBX 5 4 2 1
BITMAP
F8
00
00
F8
ENDCHAR

STARTCHAR 314E
ENCODING 12622
SWIDTH 960 0
DWIDTH 9 0
BBX 5 5 2 0
BITMAP
20
70
F0
88
70
ENDCHAR

STARTCHAR 314F
ENCODING 12623
SWIDTH 960 0
DWIDTH 9 0
BBX 2 8 3 -1
BITMAP
80
80
80
80
C0
80
80
80
ENDCHAR

STARTCHAR 3150
ENCODING 12624
SWIDTH 960 0
DWIDTH 9 0
BBX 3 8 3 -1
BITMAP
20
A0
A0
A0
E0
A0
A0
A0
ENDCHAR

STARTCHAR 3151
ENCODING 12625
SWIDTH 960 0
DWIDTH 9 0
BBX 3 8 3 -1
BITMAP
80
80
80
C0
80
E0
80
80
ENDCHAR

STARTCHAR 3152
ENCODING 12626
SWIDTH 960 0
DWIDTH 9 0
BBX 3 8 3 -1
BITMAP
20
A0
A0
E0
A0
E0
A0
20
ENDCHAR

STARTCHAR 3153
ENCODING 12627
SWIDTH 960 0
DWIDTH 9 0
BBX 2 6 4 0
BITMAP
40
40
40
C0
40
40
ENDCHAR

STARTCHAR 3154
ENCODING 12628
SWIDTH 960 0
DWIDTH 9 0
BBX 4 8 3 -1
BITMAP
10
50
50
50
D0
50
50
50
ENDCHAR

STARTCHAR 3155
ENCODING 12629
SWIDTH 960 0
DWIDTH 9 0
BBX 3 6 3 0
BITMAP
20
20
60
20
E0
20
ENDCHAR

STARTCHAR 3156
ENCODING 12630
SWIDTH 960 0
DWIDTH 9 0
BBX 5 8 2 -1
BITMAP
08
28
28
68
28
E8
28
28
ENDCHAR

STARTCHAR 3157
ENCODING 12631
SWIDTH 960 0
DWIDTH 9 0
BBX 5 4 2 1
BITMAP
20
20
20
F8
ENDCHAR

STARTCHAR 3158
ENCODING 12632
SWIDTH 960 0
DWIDTH 9 0
BBX 5 8 2 -1
BITMAP
08
08
48
48
48
78
88
08
ENDCHAR

STARTCHAR 3159
ENCODING 12633
SWIDTH 960 0
DWIDTH 9 0
BBX 7 8 1 -1
BITMAP
02
02
0A
4A
46
FA
0A
02
ENDCHAR

STARTCHAR 315A
ENCODING 12634
SWIDTH 960 0
DWIDTH 9 0
BBX 6 8 2 -1
BITMAP
04
04
04
44
44
5C
A4
04
ENDCHAR

STARTCHAR 315B
ENCODING 12635
SWIDTH 960 0
DWIDTH 9 0
BBX 5 3 2 2
BITMAP
90
90
F8
ENDCHAR

STARTCHAR 315C
ENCODING 12636
SWIDTH 960 0
DWIDTH 9 0
BBX 7 6 1 -1
BITMAP
FE
10
10
10
10
10
ENDCHAR

STARTCHAR 315D
ENCODING 12637
SWIDTH 960 0
DWIDTH 9 0
BBX 6 8 2 -1
BITMAP
04
04
34
C4
5C
44
04
04
ENDCHAR

STARTCHAR 315E
ENCODING 12638
SWIDTH 960 0
DWIDTH 9 0
BBX 6 8 2 -1
BITMAP
04
04
14
D4
B4
94
14
04
ENDCHAR

STARTCHAR 315F
ENCODING 12639
SWIDTH 960 0
DWIDTH 9 0
BBX 7 8 1 -1
BITMAP
02
02
02
FE
12
12
12
02
ENDCHAR

STARTCHAR 3160
ENCODING 12640
SWIDTH 960 0
DWIDTH 9 0
BBX 5 4 2 -1
BITMAP
F8
90
90
90
ENDCHAR

STARTCHAR 3161
ENCODING 12641
SWIDTH 960 0
DWIDTH 9 0
BBX 7 1 1 2
BITMAP
FE
ENDCHAR

STARTCHAR 3162
ENCODING 12642
SWIDTH 960 0
DWIDTH 9 0
BBX 7 8 1 -1
BITMAP
02
02
02
02
02
FE
02
02
ENDCHAR

STARTCHAR 3163
ENCODING 12643
SWIDTH 960 0
DWIDTH 9 0
BBX 1 8 4 -1
BITMAP
80
80
80
80
80
80
80
80
ENDCHAR

STARTCHAR 3164
ENCODING 12644
SWIDTH 960 0
DWIDTH 9 0
BBX 0 0 0 0
BITMAP
ENDCHAR

STARTCHAR 3165
ENCODING 12645
SWIDTH 960 0
DWIDTH 9 0
BBX 6 4 1 1
BITMAP
80
90
90
C4
ENDCHAR

STARTCHAR 3166
ENCODING 12646
SWIDTH 960 0
DWIDTH 9 0
BBX 7 4 1 1
BITMAP
8E
90
90
CC
ENDCHAR

STARTCHAR 3167
ENCODING 12647
SWIDTH 960 0
DWIDTH 9 0
BBX 6 5 1 0
BITMAP
80
88
8C
94
40
ENDCHAR

STARTCHAR 3168
ENCODING 12648
SWIDTH 960 0
DWIDTH 9 0
BBX 7 3 1 2
BITMAP
8C
94
DE
ENDCHAR

STARTCHAR 3169
ENCODING 12649
SWIDTH 960 0
DWIDTH 9 0
BBX 7 5 1 0
BITMAP
F4
54
94
8A
C0
ENDCHAR

STARTCHAR 316A
ENCODING 12650
SWIDTH 960 0
DWIDTH 9 0
BBX 7 5 1 0
BITMAP
EE
30
D0
90
EE
ENDCHAR

STARTCHAR 316B
ENCODING 12651
SWIDTH 960 0
DWIDTH 9 0
BBX 7 4 1 1
BITMAP
E0
74
B4
B6
ENDCHAR

STARTCHAR 316C
ENCODING 12652
SWIDTH 960 0
DWIDTH 9 0
BBX 7 5 1 0
BITMAP
E0
24
CC
92
CC
ENDCHAR

STARTCHAR 316D
ENCODING 12653
SWIDTH 960 0
DWIDTH 9 0
BBX 7 5 1 0
BITMAP
FE
2C
D2
92
4C
ENDCHAR

STARTCHAR 316E
ENCODING 12654
SWIDTH 960 0
DWIDTH 9 0
BBX 7 4 1 1
BITMAP
E2
B2
BE
FE
ENDCHAR

STARTCHAR 316F
ENCODING 12655
SWIDTH 960 0
DWIDTH 9 0
BBX 7 4 1 1
BITMAP
E0
A8
AC
F6
ENDCHAR

STARTCHAR 3170
ENCODING 12656
SWIDTH 960 0
DWIDTH 9 0
BBX 7 4 1 1
BITMAP
E0
A4
AC
FE
ENDCHAR

STARTCHAR 3171
ENCODING 12657
SWIDTH 960 0
DWIDTH 9 0
BBX 5 6 2 0
BITMAP
F8
88
F8
20
D0
F0
ENDCHAR

STARTCHAR 3172
ENCODING 12658
SWIDTH 960 0
DWIDTH 9 0
BBX 7 4 1 1
BITMAP
8E
A2
E2
E2
ENDCHAR

STARTCHAR 3173
ENCODING 12659
SWIDTH 960 0
DWIDTH 9 0
BBX 7 4 1 1
BITMAP
2E
B0
F0
EC
ENDCHAR

STARTCHAR 3174
ENCODING 12660
SWIDTH 960 0
DWIDTH 9 0
BBX 7 4 1 1
BITMAP
86
D2
DA
EA
ENDCHAR

STARTCHAR 3175
ENCODING 12661
SWIDTH 960 0
DWIDTH 9 0
BBX 7 4 1 1
BITMAP
56
D8
D8
F4
ENDCHAR

STARTCHAR 3176
ENCODING 12662
SWIDTH 960 0
DWIDTH 9 0
BBX 7 5 1 0
BITMAP
3E
A4
EC
B4
42
ENDCHAR

STARTCHAR 3177
ENCODING 12663
SWIDTH 960 0
DWIDTH 9 0
BBX 7 4 1 1
BITMAP
2E
B0
FC
EC
ENDCHAR

STARTCHAR 3178
ENCODING 12664
SWIDTH 960 0
DWIDTH 9 0
BBX 5 7 2 -1
BITMAP
88
F8
88
70
F0
90
F0
ENDCHAR

STARTCHAR 3179
ENCODING 12665
SWIDTH 960 0
DWIDTH 9 0
BBX 5 6 2 0
BITMAP
F8
D8
00
F0
88
70
ENDCHAR

STARTCHAR 317A
ENCODING 12666
SWIDTH 960 0
DWIDTH 9 0
BBX 7 4 1 1
BITMAP
0E
42
62
90
ENDCHAR

STARTCHAR 317B
ENCODING 12667
SWIDTH 960 0
DWIDTH 9 0
BBX 6 3 1 2
BITMAP
50
50
AC
ENDCHAR

STARTCHAR 317C
ENCODING 12668
SWIDTH 960 0
DWIDTH 9 0
BBX 7 4 1 1
BITMAP
4E
50
D0
AC
ENDCHAR

STARTCHAR 317D
ENCODING 12669
SWIDTH 960 0
DWIDTH 9 0
BBX 7 4 1 1
BITMAP
08
4A
4E
AE
ENDCHAR

STARTCHAR 317E
ENCODING 12670
SWIDTH 960 0
DWIDTH 9 0
BBX 7 4 1 1
BITMAP
4E
44
CC
AA
ENDCHAR

STARTCHAR 317F
ENCODING 12671
SWIDTH 960 0
DWIDTH 9 0
BBX 5 5 2 0
BITMAP
20
50
90
88
F8
ENDCHAR

STARTCHAR 3180
ENCODING 12672
SWIDTH 960 0
DWIDTH 9 0
BBX 7 5 1 0
BITMAP
EE
B2
B2
B2
4C
ENDCHAR

STARTCHAR 3181
ENCODING 12673
SWIDTH 960 0
DWIDTH 9 0
BBX 5 4 2 1
BITMAP
20
D0
88
F0
ENDCHAR

STARTCHAR 3182
ENCODING 12674
SWIDTH 960 0
DWIDTH 9 0
BBX 7 5 1 0
BITMAP
40
A4
A4
AA
40
ENDCHAR

STARTCHAR 3183
ENCODING 12675
SWIDTH 960 0
DWIDTH 9 0
BBX 7 5 1 0
BITMAP
40
AC
B4
B2
4C
ENDCHAR

STARTCHAR 3184
ENCODING 12676
SWIDTH 960 0
DWIDTH 9 0
BBX 4 7 2 -1
BITMAP
70
00
50
20
F0
90
70
ENDCHAR

STARTCHAR 3185
ENCODING 12677
SWIDTH 960 0
DWIDTH 9 0
BBX 7 4 1 1
BITMAP
44
EE
B2
EE
ENDCHAR

STARTCHAR 3186
ENCODING 12678
SWIDTH 960 0
DWIDTH 9 0
BBX 5 5 2 0
BITMAP
F8
00
F0
88
F0
ENDCHAR

STARTCHAR 3187
ENCODING 12679
SWIDTH 960 0
DWIDTH 9 0
BBX 6 7 2 -1
BITMAP
08
A8
A8
A8
FC
08
08
ENDCHAR

STARTCHAR 3188
ENCODING 12680
SWIDTH 960 0
DWIDTH 9 0
BBX 7 7 1 -1
BITMAP
02
1A
5E
5A
FE
0A
02
ENDCHAR

STARTCHAR 3189
ENCODING 12681
SWIDTH 960 0
DWIDTH 9 0
BBX 6 7 2 -1
BITMAP
04
04
A4
A4
9C
64
04
ENDCHAR

STARTCHAR 318A
ENCODING 12682
SWIDTH 960 0
DWIDTH 9 0
BBX 6 7 2 -1
BITMAP
04
74
A4
A4
AC
04
04
ENDCHAR

STARTCHAR 318B
ENCODING 12683
SWIDTH 960 0
DWIDTH 9 0
BBX 6 7 2 -1
BITMAP
04
14
D4
D4
D4
14
04
ENDCHAR

STARTCHAR 318C
ENCODING 12684
SWIDTH 960 0
DWIDTH 9 0
BBX 7 7 1 -1
BITMAP
02
02
FE
52
52
02
02
ENDCHAR

STARTCHAR 318D
ENCODING 12685
SWIDTH 960 0
DWIDTH 9 0
BBX 1 1 4 2
BITMAP
80
ENDCHAR

STARTCHAR 318E
ENCODING 12686
SWIDTH 960 0
DWIDTH 9 0
BBX 5 7 2 -1
BITMAP
08
08
08
C8
08
08
08
ENDCHAR

STARTCHAR 3200
ENCODING 12800
SWIDTH 960 0
DWIDTH 9 0
BBX 9 5 0 0
BITMAP
8100
9E80
8280
8280
8100
ENDCHAR

STARTCHAR 3201
ENCODING 12801
SWIDTH 960 0
DWIDTH 9 0
BBX 9 5 0 0
BITMAP
8100
A080
A080
A080
9D00
ENDCHAR

STARTCHAR 3202
ENCODING 12802
SWIDTH 960 0
DWIDTH 9 0
BBX 9 5 0 0
BITMAP
8100
BC80
A080
A080
9D00
ENDCHAR

STARTCHAR 3203
ENCODING 12803
SWIDTH 960 0
DWIDTH 9 0
BBX 9 5 0 0
BITMAP
BF00
8280
BC80
A080
9D00
ENDCHAR

STARTCHAR 3204
ENCODING 12804
SWIDTH 960 0
DWIDTH 9 0
BBX 9 5 0 0
BITMAP
8100
BE80
A280
A280
9D00
ENDCHAR

STARTCHAR 3205
ENCODING 12805
SWIDTH 960 0
DWIDTH 9 0
BBX 9 5 0 0
BITMAP
A300
A280
BE80
A280
9D00
ENDCHAR

STARTCHAR 3206
ENCODING 12806
SWIDTH 960 0
DWIDTH 9 0
BBX 9 5 0 0
BITMAP
8900
8880
9880
A680
8100
ENDCHAR

STARTCHAR 3207
ENCODING 12807
SWIDTH 960 0
DWIDTH 9 0
BBX 9 5 0 0
BITMAP
8900
B680
A280
A280
9D00
ENDCHAR

STARTCHAR 3208
ENCODING 12808
SWIDTH 960 0
DWIDTH 9 0
BBX 9 5 0 0
BITMAP
BF00
8880
9880
A680
8100
ENDCHAR

STARTCHAR 3209
ENCODING 12809
SWIDTH 960 0
DWIDTH 9 0
BBX 9 5 0 0
BITMAP
8900
BE80
8880
9480
8100
ENDCHAR

STARTCHAR 320A
ENCODING 12810
SWIDTH 960 0
DWIDTH 9 0
BBX 9 5 0 0
BITMAP
BF00
8280
BA80
8280
8100
ENDCHAR

STARTCHAR 320B
ENCODING 12811
SWIDTH 960 0
DWIDTH 9 0
BBX 9 5 0 0
BITMAP
BF00
A080
BC80
A080
9D00
ENDCHAR

STARTCHAR 320C
ENCODING 12812
SWIDTH 960 0
DWIDTH 9 0
BBX 9 5 0 0
BITMAP
8100
9C80
8080
A480
9900
ENDCHAR

STARTCHAR 320D
ENCODING 12813
SWIDTH 960 0
DWIDTH 9 0
BBX 9 6 0 0
BITMAP
8900
BE80
9C80
A480
9500
0800
ENDCHAR

STARTCHAR 320E
ENCODING 12814
SWIDTH 960 0
DWIDTH 9 0
BBX 9 5 0 0
BITMAP
BD00
9480
9280
A480
8100
ENDCHAR

STARTCHAR 320F
ENCODING 12815
SWIDTH 960 0
DWIDTH 9 0
BBX 9 5 0 0
BITMAP
8500
C480
C280
BC80
8100
ENDCHAR

STARTCHAR 3210
ENCODING 12816
SWIDTH 960 0
DWIDTH 9 0
BBX 9 5 0 0
BITMAP
BD00
C480
C480
BC80
8100
ENDCHAR

STARTCHAR 3211
ENCODING 12817
SWIDTH 960 0
DWIDTH 9 0
BBX 9 5 0 0
BITMAP
BD00
8C80
F280
C480
B100
ENDCHAR

STARTCHAR 3212
ENCODING 12818
SWIDTH 960 0
DWIDTH 9 0
BBX 9 5 0 0
BITMAP
8500
FC80
CA80
BC80
8100
ENDCHAR

STARTCHAR 3213
ENCODING 12819
SWIDTH 960 0
DWIDTH 9 0
BBX 9 5 0 0
BITMAP
8D00
CC80
FB80
CC80
B100
ENDCHAR

STARTCHAR 3214
ENCODING 12820
SWIDTH 960 0
DWIDTH 9 0
BBX 9 5 0 0
BITMAP
9500
9480
B280
8C80
8100
ENDCHAR

STARTCHAR 3215
ENCODING 12821
SWIDTH 960 0
DWIDTH 9 0
BBX 9 5 0 0
BITMAP
B500
CC80
CA80
D480
A100
ENDCHAR

STARTCHAR 3216
ENCODING 12822
SWIDTH 960 0
DWIDTH 9 0
BBX 9 5 0 0
BITMAP
BD00
9480
B280
AC80
8100
ENDCHAR

STARTCHAR 3217
ENCODING 12823
SWIDTH 960 0
DWIDTH 9 0
BBX 9 5 0 0
BITMAP
8500
9480
B280
8C80
8100
ENDCHAR

STARTCHAR 3218
ENCODING 12824
SWIDTH 960 0
DWIDTH 9 0
BBX 9 5 0 0
BITMAP
BD00
8C80
9280
A480
8100
ENDCHAR

STARTCHAR 3219
ENCODING 12825
SWIDTH 960 0
DWIDTH 9 0
BBX 9 5 0 0
BITMAP
BD00
C480
F480
C480
B100
ENDCHAR

STARTCHAR 321A
ENCODING 12826
SWIDTH 960 0
DWIDTH 9 0
BBX 9 5 0 0
BITMAP
BD00
AC80
B280
FC80
8100
ENDCHAR

STARTCHAR 321B
ENCODING 12827
SWIDTH 960 0
DWIDTH 9 0
BBX 9 5 0 0
BITMAP
9500
BC80
AA80
CC80
B100
ENDCHAR

STARTCHAR 321C
ENCODING 12828
SWIDTH 960 0
DWIDTH 9 0
BBX 9 7 0 -1
BITMAP
3E00
9900
A680
8080
9C80
8900
4800
ENDCHAR

STARTCHAR 3260
ENCODING 12896
SWIDTH 960 0
DWIDTH 9 0
BBX 9 8 0 -1
BITMAP
1C00
6200
8100
9E80
8280
8300
8100
7E00
ENDCHAR

STARTCHAR 3261
ENCODING 12897
SWIDTH 960 0
DWIDTH 9 0
BBX 9 8 0 -1
BITMAP
1C00
6200
A100
A080
A080
A100
9D00
7E00
ENDCHAR

STARTCHAR 3262
ENCODING 12898
SWIDTH 960 0
DWIDTH 9 0
BBX 9 8 0 -1
BITMAP
1C00
6200
8100
BC80
A080
A100
9D00
7E00
ENDCHAR

STARTCHAR 3263
ENCODING 12899
SWIDTH 960 0
DWIDTH 9 0
BBX 9 8 0 -1
BITMAP
1C00
6200
8100
9E80
BC80
A100
9D00
7E00
ENDCHAR

STARTCHAR 3264
ENCODING 12900
SWIDTH 960 0
DWIDTH 9 0
BBX 9 8 0 -1
BITMAP
1C00
6200
BF00
A280
A280
A300
9D00
7E00
ENDCHAR

STARTCHAR 3265
ENCODING 12901
SWIDTH 960 0
DWIDTH 9 0
BBX 9 8 0 -1
BITMAP
1C00
6200
A300
A280
BE80
A300
9D00
7E00
ENDCHAR

STARTCHAR 3266
ENCODING 12902
SWIDTH 960 0
DWIDTH 9 0
BBX 9 8 0 -1
BITMAP
1C00
6200
8900
9880
9480
A300
8100
7E00
ENDCHAR

STARTCHAR 3267
ENCODING 12903
SWIDTH 960 0
DWIDTH 9 0
BBX 9 8 0 -1
BITMAP
1C00
6200
8900
B680
A280
A300
9D00
7E00
ENDCHAR

STARTCHAR 3268
ENCODING 12904
SWIDTH 960 0
DWIDTH 9 0
BBX 9 8 0 -1
BITMAP
1C00
6200
BF00
8880
9880
A700
8100
7E00
ENDCHAR

STARTCHAR 3269
ENCODING 12905
SWIDTH 960 0
DWIDTH 9 0
BBX 9 8 0 -1
BITMAP
1C00
6200
8900
BE80
9880
A500
8100
7E00
ENDCHAR

STARTCHAR 326A
ENCODING 12906
SWIDTH 960 0
DWIDTH 9 0
BBX 9 8 0 -1
BITMAP
1C00
6200
8100
9E80
BA80
8300
8100
7E00
ENDCHAR

STARTCHAR 326B
ENCODING 12907
SWIDTH 960 0
DWIDTH 9 0
BBX 9 8 0 -1
BITMAP
1C00
6200
BF00
A080
BC80
A100
9D00
7E00
ENDCHAR

STARTCHAR 326C
ENCODING 12908
SWIDTH 960 0
DWIDTH 9 0
BBX 9 8 0 -1
BITMAP
1C00
6200
8100
9C80
8080
A500
9900
7E00
ENDCHAR

STARTCHAR 326D
ENCODING 12909
SWIDTH 960 0
DWIDTH 9 0
BBX 9 8 0 -1
BITMAP
1C00
6200
8900
9C80
9C80
A500
9900
7E00
ENDCHAR

STARTCHAR 326E
ENCODING 12910
SWIDTH 960 0
DWIDTH 9 0
BBX 9 8 0 -1
BITMAP
1C00
6200
8300
9280
9380
A300
8300
7E00
ENDCHAR

STARTCHAR 326F
ENCODING 12911
SWIDTH 960 0
DWIDTH 9 0
BBX 9 8 0 -1
BITMAP
1C00
6200
A300
A280
A380
BB00
8300
7E00
ENDCHAR

STARTCHAR 3270
ENCODING 12912
SWIDTH 960 0
DWIDTH 9 0
BBX 9 8 0 -1
BITMAP
1C00
6200
8100
B480
C680
BD00
8100
7E00
ENDCHAR

STARTCHAR 3271
ENCODING 12913
SWIDTH 960 0
DWIDTH 9 0
BBX 9 8 0 -1
BITMAP
1C00
6200
BB00
8A80
F380
C300
B300
7E00
ENDCHAR

STARTCHAR 3272
ENCODING 12914
SWIDTH 960 0
DWIDTH 9 0
BBX 9 8 0 -1
BITMAP
1C00
6200
8500
FC80
CB80
BD00
8100
7E00
ENDCHAR

STARTCHAR 3273
ENCODING 12915
SWIDTH 960 0
DWIDTH 9 0
BBX 9 8 0 -1
BITMAP
1C00
6200
8B00
CA80
FB80
CB00
B300
7E00
ENDCHAR

STARTCHAR 3274
ENCODING 12916
SWIDTH 960 0
DWIDTH 9 0
BBX 9 8 0 -1
BITMAP
1C00
6200
9300
9280
B380
CB00
8300
7E00
ENDCHAR

STARTCHAR 3275
ENCODING 12917
SWIDTH 960 0
DWIDTH 9 0
BBX 9 8 0 -1
BITMAP
1C00
6200
B100
CC80
CC80
AD00
9100
7E00
ENDCHAR

STARTCHAR 3276
ENCODING 12918
SWIDTH 960 0
DWIDTH 9 0
BBX 9 8 0 -1
BITMAP
1C00
6200
B900
9480
B280
AD00
8100
7E00
ENDCHAR

STARTCHAR 3277
ENCODING 12919
SWIDTH 960 0
DWIDTH 9 0
BBX 9 8 0 -1
BITMAP
1C00
6200
8100
BC80
9280
AD00
8100
7E00
ENDCHAR

STARTCHAR 3278
ENCODING 12920
SWIDTH 960 0
DWIDTH 9 0
BBX 9 8 0 -1
BITMAP
1C00
6200
B900
8C80
9380
9500
8100
7E00
ENDCHAR

STARTCHAR 3279
ENCODING 12921
SWIDTH 960 0
DWIDTH 9 0
BBX 9 8 0 -1
BITMAP
1C00
6200
B900
A480
B480
A500
9100
7E00
ENDCHAR

STARTCHAR 327A
ENCODING 12922
SWIDTH 960 0
DWIDTH 9 0
BBX 9 8 0 -1
BITMAP
1C00
6200
B900
AC80
B280
7D00
8100
7E00
ENDCHAR

STARTCHAR 327B
ENCODING 12923
SWIDTH 960 0
DWIDTH 9 0
BBX 9 8 0 -1
BITMAP
1C00
6200
8500
B480
FA80
CD00
B100
7E00
ENDCHAR

STARTCHAR 327F
ENCODING 12927
SWIDTH 960 0
DWIDTH 9 0
BBX 7 7 1 -1
BITMAP
7C
AA
B0
B6
2A
82
7C
ENDCHAR

STARTCHAR 3380
ENCODING 13184
SWIDTH 960 0
DWIDTH 9 0
BBX 7 7 1 -2
BITMAP
04
4C
AC
AE
B2
A0
C0
ENDCHAR

STARTCHAR 3381
ENCODING 13185
SWIDTH 960 0
DWIDTH 9 0
BBX 7 6 1 0
BITMAP
04
4C
AC
AA
B6
20
ENDCHAR

STARTCHAR 3382
ENCODING 13186
SWIDTH 960 0
DWIDTH 9 0
BBX 7 7 1 -2
BITMAP
0C
0C
5C
AE
B2
C0
80
ENDCHAR

STARTCHAR 3383
ENCODING 13187
SWIDTH 960 0
DWIDTH 9 0
BBX 8 6 0 0
BITMAP
02
56
B5
D5
D7
80
ENDCHAR

STARTCHAR 3384
ENCODING 13188
SWIDTH 960 0
DWIDTH 9 0
BBX 7 6 1 0
BITMAP
04
8C
CC
8A
D6
20
ENDCHAR

STARTCHAR 3388
ENCODING 13192
SWIDTH 960 0
DWIDTH 9 0
BBX 9 6 0 0
BITMAP
0080
2480
DA80
8680
9A80
EE80
ENDCHAR

STARTCHAR 3389
ENCODING 13193
SWIDTH 960 0
DWIDTH 9 0
BBX 9 6 0 0
BITMAP
8080
8280
BE80
E280
E680
BF80
ENDCHAR

STARTCHAR 338A
ENCODING 13194
SWIDTH 960 0
DWIDTH 9 0
BBX 6 7 1 -2
BITMAP
0C
50
B0
BC
B0
A0
C0
ENDCHAR

STARTCHAR 338B
ENCODING 13195
SWIDTH 960 0
DWIDTH 9 0
BBX 6 6 1 0
BITMAP
0C
48
A8
AC
A8
28
ENDCHAR

STARTCHAR 338C
ENCODING 13196
SWIDTH 960 0
DWIDTH 9 0
BBX 8 8 0 -2
BITMAP
03
04
4C
4E
54
D0
A0
80
ENDCHAR

STARTCHAR 338D
ENCODING 13197
SWIDTH 960 0
DWIDTH 9 0
BBX 9 7 0 -2
BITMAP
0280
4500
5500
5600
5700
A880
8700
ENDCHAR

STARTCHAR 338E
ENCODING 13198
SWIDTH 960 0
DWIDTH 9 0
BBX 8 7 0 -2
BITMAP
50
BF
B9
BE
AF
09
06
ENDCHAR

STARTCHAR 338F
ENCODING 13199
SWIDTH 960 0
DWIDTH 9 0
BBX 7 7 1 -1
BITMAP
86
DA
94
D8
3E
12
0C
ENDCHAR

STARTCHAR 3390
ENCODING 13200
SWIDTH 960 0
DWIDTH 9 0
BBX 8 6 0 0
BITMAP
80
90
F3
92
94
87
ENDCHAR

STARTCHAR 3391
ENCODING 13201
SWIDTH 960 0
DWIDTH 9 0
BBX 8 6 0 0
BITMAP
84
A4
9D
E5
E6
87
ENDCHAR

STARTCHAR 3392
ENCODING 13202
SWIDTH 960 0
DWIDTH 9 0
BBX 8 6 0 0
BITMAP
A0
B4
AC
F5
F6
C1
ENDCHAR

STARTCHAR 3393
ENCODING 13203
SWIDTH 960 0
DWIDTH 9 0
BBX 8 6 0 1
BITMAP
E0
94
8C
95
B6
E1
ENDCHAR

STARTCHAR 3394
ENCODING 13204
SWIDTH 960 0
DWIDTH 9 0
BBX 7 6 1 0
BITMAP
A8
A8
BA
AA
AC
AE
ENDCHAR

STARTCHAR 3395
ENCODING 13205
SWIDTH 960 0
DWIDTH 9 0
BBX 8 8 0 -1
BITMAP
03
23
45
4D
52
D7
A0
80
ENDCHAR

STARTCHAR 3396
ENCODING 13206
SWIDTH 960 0
DWIDTH 9 0
BBX 7 6 1 1
BITMAP
0E
2A
EA
EC
E8
4C
ENDCHAR

STARTCHAR 3397
ENCODING 13207
SWIDTH 960 0
DWIDTH 9 0
BBX 7 6 1 0
BITMAP
0E
6A
AA
AC
A8
EE
ENDCHAR

STARTCHAR 3398
ENCODING 13208
SWIDTH 960 0
DWIDTH 9 0
BBX 7 6 1 0
BITMAP
0E
8A
EC
CC
C8
2E
ENDCHAR

STARTCHAR 3399
ENCODING 13209
SWIDTH 960 0
DWIDTH 9 0
BBX 7 6 1 0
BITMAP
40
88
AE
AA
AA
02
ENDCHAR

STARTCHAR 339A
ENCODING 13210
SWIDTH 960 0
DWIDTH 9 0
BBX 7 5 1 0
BITMAP
42
D6
D6
D6
04
ENDCHAR

STARTCHAR 339B
ENCODING 13211
SWIDTH 960 0
DWIDTH 9 0
BBX 9 7 0 -2
BITMAP
0200
0B80
5A80
5A80
5080
A000
8000
ENDCHAR

STARTCHAR 339C
ENCODING 13212
SWIDTH 960 0
DWIDTH 9 0
BBX 7 4 1 1
BITMAP
F6
B6
B6
04
ENDCHAR

STARTCHAR 339D
ENCODING 13213
SWIDTH 960 0
DWIDTH 9 0
BBX 9 5 0 0
BITMAP
2000
DB80
8A80
8A80
7280
ENDCHAR

STARTCHAR 339E
ENCODING 13214
SWIDTH 960 0
DWIDTH 9 0
BBX 7 5 1 1
BITMAP
82
D6
96
D6
24
ENDCHAR

STARTCHAR 339F
ENCODING 13215
SWIDTH 960 0
DWIDTH 9 0
BBX 9 7 0 0
BITMAP
0080
0000
4100
FB00
DB00
DB00
9200
ENDCHAR

STARTCHAR 33A0
ENCODING 13216
SWIDTH 960 0
DWIDTH 9 0
BBX 9 7 0 0
BITMAP
0080
0000
0500
FB00
8B00
9B00
EA00
ENDCHAR

STARTCHAR 33A1
ENCODING 13217
SWIDTH 960 0
DWIDTH 9 0
BBX 7 7 1 0
BITMAP
02
00
68
B4
A4
A4
A4
ENDCHAR

STARTCHAR 33A2
ENCODING 13218
SWIDTH 960 0
DWIDTH 9 0
BBX 9 7 0 0
BITMAP
0180
8100
8400
AF00
CD00
AD00
8900
ENDCHAR

STARTCHAR 33A3
ENCODING 13219
SWIDTH 960 0
DWIDTH 9 0
BBX 9 7 0 0
BITMAP
0080
0000
4080
FB00
DB00
DB00
9200
ENDCHAR

STARTCHAR 33A4
ENCODING 13220
SWIDTH 960 0
DWIDTH 9 0
BBX 9 7 0 0
BITMAP
0080
0000
0500
FB00
8B00
9B00
EA00
ENDCHAR

STARTCHAR 33A5
ENCODING 13221
SWIDTH 960 0
DWIDTH 9 0
BBX 7 7 1 0
BITMAP
02
00
68
B4
A4
A4
A4
ENDCHAR

STARTCHAR 33A6
ENCODING 13222
SWIDTH 960 0
DWIDTH 9 0
BBX 9 7 0 0
BITMAP
0180
8080
8400
B700
D500
B500
A100
ENDCHAR

STARTCHAR 33A7
ENCODING 13223
SWIDTH 960 0
DWIDTH 9 0
BBX 9 8 0 -1
BITMAP
D000
A880
A900
AA00
0F00
1480
2300
4180
ENDCHAR

STARTCHAR 33A8
ENCODING 13224
SWIDTH 960 0
DWIDTH 9 0
BBX 9 8 0 -1
BITMAP
D000
A880
A900
AA80
0E80
1400
2300
4100
ENDCHAR

STARTCHAR 33A9
ENCODING 13225
SWIDTH 960 0
DWIDTH 9 0
BBX 7 6 1 0
BITMAP
E0
A4
AA
C6
8A
0E
ENDCHAR

STARTCHAR 33AA
ENCODING 13226
SWIDTH 960 0
DWIDTH 9 0
BBX 8 6 0 0
BITMAP
BC
A4
A7
F9
E7
87
ENDCHAR

STARTCHAR 33AB
ENCODING 13227
SWIDTH 960 0
DWIDTH 9 0
BBX 9 6 0 0
BITMAP
BC00
B500
F700
F900
F300
C380
ENDCHAR

STARTCHAR 33AC
ENCODING 13228
SWIDTH 960 0
DWIDTH 9 0
BBX 9 6 0 0
BITMAP
FC00
9500
9700
9900
B300
C380
ENDCHAR

STARTCHAR 33AD
ENCODING 13229
SWIDTH 960 0
DWIDTH 9 0
BBX 7 5 1 1
BITMAP
52
B6
9A
FA
76
ENDCHAR

STARTCHAR 33AE
ENCODING 13230
SWIDTH 960 0
DWIDTH 9 0
BBX 7 8 1 -1
BITMAP
08
08
F8
E8
14
1A
24
46
ENDCHAR

STARTCHAR 33AF
ENCODING 13231
SWIDTH 960 0
DWIDTH 9 0
BBX 9 7 0 0
BITMAP
6800
B800
F800
0280
0D00
1200
2300
ENDCHAR

STARTCHAR 33B0
ENCODING 13232
SWIDTH 960 0
DWIDTH 9 0
BBX 7 6 1 -2
BITMAP
44
BA
AC
A2
AA
C4
ENDCHAR

STARTCHAR 33B1
ENCODING 13233
SWIDTH 960 0
DWIDTH 9 0
BBX 7 5 1 0
BITMAP
44
BA
A8
A6
36
ENDCHAR

STARTCHAR 33B2
ENCODING 13234
SWIDTH 960 0
DWIDTH 9 0
BBX 9 7 0 -2
BITMAP
0300
4C80
4A00
9180
6480
8300
8000
ENDCHAR

STARTCHAR 33B3
ENCODING 13235
SWIDTH 960 0
DWIDTH 9 0
BBX 7 5 1 0
BITMAP
A4
E8
E4
E2
4E
ENDCHAR

STARTCHAR 33B4
ENCODING 13236
SWIDTH 960 0
DWIDTH 9 0
BBX 7 7 1 -2
BITMAP
10
52
B2
AC
AC
A4
C0
ENDCHAR

STARTCHAR 33B5
ENCODING 13237
SWIDTH 960 0
DWIDTH 9 0
BBX 7 6 1 0
BITMAP
10
52
B4
B4
AC
28
ENDCHAR

STARTCHAR 33B6
ENCODING 13238
SWIDTH 960 0
DWIDTH 9 0
BBX 9 8 0 -2
BITMAP
0480
0500
4D00
4B00
5300
6200
8000
8000
ENDCHAR

STARTCHAR 33B7
ENCODING 13239
SWIDTH 960 0
DWIDTH 9 0
BBX 8 5 0 1
BITMAP
59
F5
D6
D6
82
ENDCHAR

STARTCHAR 33B8
ENCODING 13240
SWIDTH 960 0
DWIDTH 9 0
BBX 7 6 1 0
BITMAP
10
92
D4
8C
CC
24
ENDCHAR

STARTCHAR 33B9
ENCODING 13241
SWIDTH 960 0
DWIDTH 9 0
BBX 9 6 0 0
BITMAP
8C80
9D00
DD00
ED00
EB00
AA00
ENDCHAR

STARTCHAR 33BA
ENCODING 13242
SWIDTH 960 0
DWIDTH 9 0
BBX 8 8 0 -2
BITMAP
0A
2B
DF
9F
95
E5
80
80
ENDCHAR

STARTCHAR 33BB
ENCODING 13243
SWIDTH 960 0
DWIDTH 9 0
BBX 7 6 1 0
BITMAP
08
16
DE
DA
CA
12
ENDCHAR

STARTCHAR 33BC
ENCODING 13244
SWIDTH 960 0
DWIDTH 9 0
BBX 9 8 0 -2
BITMAP
0A80
0E80
0F00
5F00
9D00
A500
C000
8000
ENDCHAR

STARTCHAR 33BD
ENCODING 13245
SWIDTH 960 0
DWIDTH 9 0
BBX 9 6 0 0
BITMAP
0A80
4F00
FF00
DF00
DF00
9500
ENDCHAR

STARTCHAR 33BE
ENCODING 13246
SWIDTH 960 0
DWIDTH 9 0
BBX 8 6 0 0
BITMAP
82
8B
AF
C7
A5
95
ENDCHAR

STARTCHAR 33BF
ENCODING 13247
SWIDTH 960 0
DWIDTH 9 0
BBX 9 6 0 0
BITMAP
9A80
9B00
9F00
FF00
F700
D500
ENDCHAR

STARTCHAR 33C0
ENCODING 13248
SWIDTH 960 0
DWIDTH 9 0
BBX 9 6 0 0
BITMAP
8F00
8880
A880
C900
A600
9500
ENDCHAR

STARTCHAR 33C1
ENCODING 13249
SWIDTH 960 0
DWIDTH 9 0
BBX 9 6 0 0
BITMAP
9F00
9880
9880
F900
B600
D500
ENDCHAR

STARTCHAR 33C2
ENCODING 13250
SWIDTH 960 0
DWIDTH 9 0
BBX 9 5 0 0
BITMAP
4400
AF00
2D00
ED00
C180
ENDCHAR

STARTCHAR 33C3
ENCODING 13251
SWIDTH 960 0
DWIDTH 9 0
BBX 7 7 1 -2
BITMAP
E0
A0
CE
B2
B2
AA
46
ENDCHAR

STARTCHAR 33C4
ENCODING 13252
SWIDTH 960 0
DWIDTH 9 0
BBX 9 5 0 0
BITMAP
2200
D400
8800
8880
7700
ENDCHAR

STARTCHAR 33C5
ENCODING 13253
SWIDTH 960 0
DWIDTH 9 0
BBX 7 5 1 1
BITMAP
46
BA
92
92
EE
ENDCHAR

STARTCHAR 33C6
ENCODING 13254
SWIDTH 960 0
DWIDTH 9 0
BBX 9 9 0 -2
BITMAP
8000
9000
A000
A000
3080
5300
5A00
8380
0100
ENDCHAR

STARTCHAR 33C7
ENCODING 13255
SWIDTH 960 0
DWIDTH 9 0
BBX 9 7 0 0
BITMAP
6000
9000
8200
8D00
8900
9900
E780
ENDCHAR

STARTCHAR 33C8
ENCODING 13256
SWIDTH 960 0
DWIDTH 9 0
BBX 9 6 0 0
BITMAP
0F00
3900
D900
9F00
9880
6F00
ENDCHAR

STARTCHAR 33C9
ENCODING 13257
SWIDTH 960 0
DWIDTH 9 0
BBX 7 8 1 -2
BITMAP
E0
80
8A
8A
AC
A4
44
08
ENDCHAR

STARTCHAR 33CA
ENCODING 13258
SWIDTH 960 0
DWIDTH 9 0
BBX 7 5 1 1
BITMAP
C4
A2
A6
BA
3E
ENDCHAR

STARTCHAR 33CF
ENCODING 13263
SWIDTH 960 0
DWIDTH 9 0
BBX 4 5 2 1
BITMAP
B0
D0
90
D0
30
ENDCHAR

STARTCHAR 33D0
ENCODING 13264
SWIDTH 960 0
DWIDTH 9 0
BBX 5 5 2 1
BITMAP
A8
D8
E8
E8
40
ENDCHAR

STARTCHAR 33D3
ENCODING 13267
SWIDTH 960 0
DWIDTH 9 0
BBX 5 5 2 1
BITMAP
80
80
B0
B0
08
ENDCHAR

STARTCHAR 33D6
ENCODING 13270
SWIDTH 960 0
DWIDTH 9 0
BBX 7 5 1 1
BITMAP
22
FE
F6
F6
4C
ENDCHAR

STARTCHAR 33D8
ENCODING 13272
SWIDTH 960 0
DWIDTH 9 0
BBX 9 7 0 -2
BITMAP
4C00
AF00
AD00
AD00
B980
C000
8000
ENDCHAR

STARTCHAR 33DB
ENCODING 13275
SWIDTH 960 0
DWIDTH 9 0
BBX 7 5 1 0
BITMAP
62
98
48
38
F0
ENDCHAR

STARTCHAR 33DC
ENCODING 13276
SWIDTH 960 0
DWIDTH 9 0
BBX 7 6 1 0
BITMAP
C0
80
48
2A
1C
E4
ENDCHAR

STARTCHAR 33DD
ENCODING 13277
SWIDTH 960 0
DWIDTH 9 0
BBX 9 6 0 0
BITMAP
AC00
ED00
F680
F480
F480
5700
ENDCHAR

STARTCHAR 4E00
ENCODING 19968
SWIDTH 960 0
DWIDTH 9 0
BBX 5 1 2 2
BITMAP
F8
ENDCHAR

STARTCHAR 4E01
ENCODING 19969
SWIDTH 960 0
DWIDTH 9 0
BBX 7 7 1 -1
BITMAP
FE
10
10
10
10
10
30
ENDCHAR

STARTCHAR 4E03
ENCODING 19971
SWIDTH 960 0
DWIDTH 9 0
BBX 6 6 2 0
BITMAP
40
4C
F0
40
44
38
ENDCHAR

STARTCHAR 4E07
ENCODING 19975
SWIDTH 960 0
DWIDTH 9 0
BBX 7 7 1 -1
BITMAP
FE
20
3C
24
44
44
88
ENDCHAR

STARTCHAR 4E08
ENCODING 19976
SWIDTH 960 0
DWIDTH 9 0
BBX 7 7 1 -1
BITMAP
10
FE
10
50
30
30
CE
ENDCHAR

STARTCHAR 4E09
ENCODING 19977
SWIDTH 960 0
DWIDTH 9 0
BBX 7 5 1 0
BITMAP
7C
00
38
00
FE
ENDCHAR

STARTCHAR 4E0A
ENCODING 19978
SWIDTH 960 0
DWIDTH 9 0
BBX 9 6 0 0
BITMAP
1000
1000
1C00
1000
1000
FF80
ENDCHAR

STARTCHAR 4E0B
ENCODING 19979
SWIDTH 960 0
DWIDTH 9 0
BBX 7 7 1 -1
BITMAP
FE
10
10
1C
10
10
10
ENDCHAR

STARTCHAR 4E0D
ENCODING 19981
SWIDTH 960 0
DWIDTH 9 0
BBX 7 7 1 -1
BITMAP
FE
10
30
54
92
10
10
ENDCHAR

STARTCHAR 4E11
ENCODING 19985
SWIDTH 960 0
DWIDTH 9 0
BBX 7 7 1 -1
BITMAP
7C
24
24
FE
28
48
FE
ENDCHAR

STARTCHAR 4E14
ENCODING 19988
SWIDTH 960 0
DWIDTH 9 0
BBX 7 7 1 -1
BITMAP
7C
44
7C
44
7C
44
FE
ENDCHAR

STARTCHAR 4E15
ENCODING 19989
SWIDTH 960 0
DWIDTH 9 0
BBX 7 7 1 -1
BITMAP
7C
20
34
52
90
10
FE
ENDCHAR

STARTCHAR 4E16
ENCODING 19990
SWIDTH 960 0
DWIDTH 9 0
BBX 6 7 2 -1
BITMAP
A8
A8
F8
A8
B8
80
FC
ENDCHAR

STARTCHAR 4E18
ENCODING 19992
SWIDTH 960 0
DWIDTH 9 0
BBX 7 7 1 -1
BITMAP
18
60
40
7C
48
48
FE
ENDCHAR

STARTCHAR 4E19
ENCODING 19993
SWIDTH 960 0
DWIDTH 9 0
BBX 7 7 1 -1
BITMAP
FE
10
FE
B2
8E
82
86
ENDCHAR

STARTCHAR 4E1E
ENCODING 19998
SWIDTH 960 0
DWIDTH 9 0
BBX 7 7 1 -1
BITMAP
3C
18
7C
58
94
32
FE
ENDCHAR

STARTCHAR 4E2D
ENCODING 20013
SWIDTH 960 0
DWIDTH 9 0
BBX 7 7 1 -1
BITMAP
10
FE
92
92
FE
10
10
ENDCHAR

STARTCHAR 4E32
ENCODING 20018
SWIDTH 960 0
DWIDTH 9 0
BBX 7 7 1 -1
BITMAP
10
FC
7C
FE
92
FE
10
ENDCHAR

STARTCHAR 4E38
ENCODING 20024
SWIDTH 960 0
DWIDTH 9 0
BBX 7 7 1 -1
BITMAP
20
F8
28
68
68
48
8E
ENDCHAR

STARTCHAR 4E39
ENCODING 20025
SWIDTH 960 0
DWIDTH 9 0
BBX 9 7 0 -1
BITMAP
3E00
2A00
2200
FF80
2200
4200
4200
ENDCHAR

STARTCHAR 4E3B
ENCODING 20027
SWIDTH 960 0
DWIDTH 9 0
BBX 7 7 1 -1
BITMAP
10
FE
10
10
38
10
FE
ENDCHAR

STARTCHAR 4E42
ENCODING 20034
SWIDTH 960 0
DWIDTH 9 0
BBX 7 7 1 -1
BITMAP
40
48
28
30
10
28
C6
ENDCHAR

STARTCHAR 4E43
ENCODING 20035
SWIDTH 960 0
DWIDTH 9 0
BBX 7 7 1 -1
BITMAP
FC
28
26
22
42
42
8C
ENDCHAR

STARTCHAR 4E45
ENCODING 20037
SWIDTH 960 0
DWIDTH 9 0
BBX 7 7 1 -1
BITMAP
20
58
88
10
28
44
82
ENDCHAR

STARTCHAR 4E4B
ENCODING 20043
SWIDTH 960 0
DWIDTH 9 0
BBX 7 6 1 0
BITMAP
FC
08
10
60
C0
3E
ENDCHAR

STARTCHAR 4E4D
ENCODING 20045
SWIDTH 960 0
DWIDTH 9 0
BBX 6 7 1 -1
BITMAP
40
7C
90
1C
10
1C
10
ENDCHAR

STARTCHAR 4E4E
ENCODING 20046
SWIDTH 960 0
DWIDTH 9 0
BBX 7 7 1 -1
BITMAP
78
54
58
FE
10
10
10
ENDCHAR

STARTCHAR 4E4F
ENCODING 20047
SWIDTH 960 0
DWIDTH 9 0
BBX 7 7 1 -1
BITMAP
F8
10
FC
08
10
60
BE
ENDCHAR

STARTCHAR 4E56
ENCODING 20054
SWIDTH 960 0
DWIDTH 9 0
BBX 7 7 1 -1
BITMAP
1C
30
7C
12
5C
D8
14
ENDCHAR

STARTCHAR 4E58
ENCODING 20056
SWIDTH 960 0
DWIDTH 9 0
BBX 7 7 1 -1
BITMAP
3C
FE
12
5C
5C
74
92
ENDCHAR

STARTCHAR 4E59
ENCODING 20057
SWIDTH 960 0
DWIDTH 9 0
BBX 7 7 1 -1
BITMAP
F8
10
60
80
80
82
7C
ENDCHAR

STARTCHAR 4E5D
ENCODING 20061
SWIDTH 960 0
DWIDTH 9 0
BBX 7 7 1 -1
BITMAP
20
20
78
28
48
48
86
ENDCHAR

STARTCHAR 4E5E
ENCODING 20062
SWIDTH 960 0
DWIDTH 9 0
BBX 7 7 1 -1
BITMAP
40
7C
FC
08
30
40
7E
ENDCHAR

STARTCHAR 4E5F
ENCODING 20063
SWIDTH 960 0
DWIDTH 9 0
BBX 7 7 1 -1
BITMAP
10
54
7C
D4
54
50
7E
ENDCHAR

STARTCHAR 4E6B
ENCODING 20075
SWIDTH 960 0
DWIDTH 9 0
BBX 7 7 1 -1
BITMAP
FE
6A
AE
00
7C
60
FE
ENDCHAR

STARTCHAR 4E6D
ENCODING 20077
SWIDTH 960 0
DWIDTH 9 0
BBX 7 7 1 -1
BITMAP
7C
7E
C2
3C
7C
70
FE
ENDCHAR

STARTCHAR 4E73
ENCODING 20083
SWIDTH 960 0
DWIDTH 9 0
BBX 7 7 1 -1
BITMAP
60
98
F8
28
38
68
4A
ENDCHAR

STARTCHAR 4E76
ENCODING 20086
SWIDTH 960 0
DWIDTH 9 0
BBX 7 8 1 -1
BITMAP
10
FE
94
FC
7C
FC
20
FE
ENDCHAR

STARTCHAR 4E77
ENCODING 20087
SWIDTH 960 0
DWIDTH 9 0
BBX 7 7 1 0
BITMAP
0C
EE
88
10
3C
70
FE
ENDCHAR

STARTCHAR 4E7E
ENCODING 20094
SWIDTH 960 0
DWIDTH 9 0
BBX 7 7 1 -1
BITMAP
48
4E
A0
E4
48
48
5E
ENDCHAR

STARTCHAR 4E82
ENCODING 20098
SWIDTH 960 0
DWIDTH 9 0
BBX 8 7 0 -1
BITMAP
7A
7A
12
AA
9A
BA
2B
ENDCHAR

STARTCHAR 4E86
ENCODING 20102
SWIDTH 960 0
DWIDTH 9 0
BBX 7 7 1 -1
BITMAP
FE
08
10
10
10
10
30
ENDCHAR

STARTCHAR 4E88
ENCODING 20104
SWIDTH 960 0
DWIDTH 9 0
BBX 6 7 2 -1
BITMAP
78
30
00
FC
20
20
60
ENDCHAR

STARTCHAR 4E8B
ENCODING 20107
SWIDTH 960 0
DWIDTH 9 0
BBX 7 8 1 -1
BITMAP
10
FE
7C
94
78
FE
FC
10
ENDCHAR

STARTCHAR 4E8C
ENCODING 20108
SWIDTH 960 0
DWIDTH 9 0
BBX 7 5 1 0
BITMAP
3C
00
00
00
FE
ENDCHAR

STARTCHAR 4E8E
ENCODING 20110
SWIDTH 960 0
DWIDTH 9 0
BBX 5 7 2 -1
BITMAP
F8
20
20
F8
20
20
60
ENDCHAR

STARTCHAR 4E90
ENCODING 20112
SWIDTH 960 0
DWIDTH 9 0
BBX 5 7 2 -1
BITMAP
F8
40
B8
F8
88
08
38
ENDCHAR

STARTCHAR 4E91
ENCODING 20113
SWIDTH 960 0
DWIDTH 9 0
BBX 7 7 1 -1
BITMAP
7C
00
00
7C
44
44
BA
ENDCHAR

STARTCHAR 4E92
ENCODING 20114
SWIDTH 960 0
DWIDTH 9 0
BBX 7 7 1 -1
BITMAP
FE
40
7C
48
78
08
FE
ENDCHAR

STARTCHAR 4E94
ENCODING 20116
SWIDTH 960 0
DWIDTH 9 0
BBX 5 5 2 0
BITMAP
F8
40
70
50
F8
ENDCHAR

STARTCHAR 4E95
ENCODING 20117
SWIDTH 960 0
DWIDTH 9 0
BBX 7 7 1 -1
BITMAP
20
FE
28
28
5C
48
80
ENDCHAR

STARTCHAR 4E98
ENCODING 20120
SWIDTH 960 0
DWIDTH 9 0
BBX 7 7 1 -1
BITMAP
FE
7C
84
7C
84
78
FE
ENDCHAR

STARTCHAR 4E9B
ENCODING 20123
SWIDTH 960 0
DWIDTH 9 0
BBX 7 7 1 -1
BITMAP
88
BC
C8
D8
26
38
7C
ENDCHAR

STARTCHAR 4E9E
ENCODING 20126
SWIDTH 960 0
DWIDTH 9 0
BBX 7 7 1 -1
BITMAP
FE
28
EE
82
EE
28
FE
ENDCHAR

STARTCHAR 4EA1
ENCODING 20129
SWIDTH 960 0
DWIDTH 9 0
BBX 7 5 1 1
BITMAP
FE
80
80
80
80
ENDCHAR

STARTCHAR 4EA2
ENCODING 20130
SWIDTH 960 0
DWIDTH 9 0
BBX 7 7 1 -1
BITMAP
10
6C
38
48
48
48
8E
ENDCHAR

STARTCHAR 4EA4
ENCODING 20132
SWIDTH 960 0
DWIDTH 9 0
BBX 7 7 1 -1
BITMAP
10
6C
44
A0
28
10
6E
ENDCHAR

STARTCHAR 4EA5
ENCODING 20133
SWIDTH 960 0
DWIDTH 9 0
BBX 7 7 1 -1
BITMAP
10
FE
64
28
34
58
64
ENDCHAR

STARTCHAR 4EA6
ENCODING 20134
SWIDTH 960 0
DWIDTH 9 0
BBX 7 7 1 -1
BITMAP
10
6C
28
AA
2A
48
98
ENDCHAR

STARTCHAR 4EA8
ENCODING 20136
SWIDTH 960 0
DWIDTH 9 0
BBX 7 7 1 -1
BITMAP
FE
7C
7C
7C
08
10
10
ENDCHAR

STARTCHAR 4EAB
ENCODING 20139
SWIDTH 960 0
DWIDTH 9 0
BBX 7 8 1 -1
BITMAP
10
FE
7C
7C
FC
08
74
10
ENDCHAR

STARTCHAR 4EAC
ENCODING 20140
SWIDTH 960 0
DWIDTH 9 0
BBX 7 7 1 -1
BITMAP
10
6C
7C
44
38
54
92
ENDCHAR

STARTCHAR 4EAD
ENCODING 20141
SWIDTH 960 0
DWIDTH 9 0
BBX 7 7 1 -1
BITMAP
FE
7C
7C
FE
00
38
10
ENDCHAR

STARTCHAR 4EAE
ENCODING 20142
SWIDTH 960 0
DWIDTH 9 0
BBX 7 7 1 -1
BITMAP
FE
7C
7C
FE
20
30
4E
ENDCHAR

STARTCHAR 4EB6
ENCODING 20150
SWIDTH 960 0
DWIDTH 9 0
BBX 7 7 1 -1
BITMAP
FE
FC
CC
7C
7C
44
FE
ENDCHAR

STARTCHAR 4EBA
ENCODING 20154
SWIDTH 960 0
DWIDTH 9 0
BBX 7 7 1 -1
BITMAP
10
10
10
30
48
44
82
ENDCHAR

STARTCHAR 4EC0
ENCODING 20160
SWIDTH 960 0
DWIDTH 9 0
BBX 7 7 1 -1
BITMAP
40
48
9E
88
88
88
80
ENDCHAR

STARTCHAR 4EC1
ENCODING 20161
SWIDTH 960 0
DWIDTH 9 0
BBX 6 6 1 0
BITMAP
4C
C0
40
40
40
5C
ENDCHAR

STARTCHAR 4EC4
ENCODING 20164
SWIDTH 960 0
DWIDTH 9 0
BBX 7 7 1 -1
BITMAP
7C
80
90
90
98
A4
42
ENDCHAR

STARTCHAR 4EC7
ENCODING 20167
SWIDTH 960 0
DWIDTH 9 0
BBX 8 7 0 -1
BITMAP
28
48
4E
CA
4A
4A
53
ENDCHAR

STARTCHAR 4ECA
ENCODING 20170
SWIDTH 960 0
DWIDTH 9 0
BBX 7 7 1 -1
BITMAP
10
68
86
10
3C
08
10
ENDCHAR

STARTCHAR 4ECB
ENCODING 20171
SWIDTH 960 0
DWIDTH 9 0
BBX 7 7 1 -1
BITMAP
10
28
46
20
28
48
80
ENDCHAR

STARTCHAR 4ECD
ENCODING 20173
SWIDTH 960 0
DWIDTH 9 0
BBX 7 7 1 0
BITMAP
5E
54
D6
52
52
62
66
ENDCHAR

STARTCHAR 4ED4
ENCODING 20180
SWIDTH 960 0
DWIDTH 9 0
BBX 8 7 1 -1
BITMAP
4E
8C
88
BF
88
88
08
ENDCHAR

STARTCHAR 4ED5
ENCODING 20181
SWIDTH 960 0
DWIDTH 9 0
BBX 9 6 0 0
BITMAP
2400
5F80
C400
4400
4400
1F00
ENDCHAR

STARTCHAR 4ED6
ENCODING 20182
SWIDTH 960 0
DWIDTH 9 0
BBX 7 7 1 -1
BITMAP
48
68
BE
AA
AA
A8
1E
ENDCHAR

STARTCHAR 4ED7
ENCODING 20183
SWIDTH 960 0
DWIDTH 9 0
BBX 7 7 1 0
BITMAP
40
BE
88
98
98
88
16
ENDCHAR

STARTCHAR 4ED8
ENCODING 20184
SWIDTH 960 0
DWIDTH 9 0
BBX 7 7 1 -1
BITMAP
44
44
CE
54
54
44
44
ENDCHAR

STARTCHAR 4ED9
ENCODING 20185
SWIDTH 960 0
DWIDTH 9 0
BBX 7 7 1 -1
BITMAP
40
48
EA
6A
6A
6A
44
ENDCHAR

STARTCHAR 4EDD
ENCODING 20189
SWIDTH 960 0
DWIDTH 9 0
BBX 7 7 1 0
BITMAP
10
68
84
7E
10
10
FE
ENDCHAR

STARTCHAR 4EDF
ENCODING 20191
SWIDTH 960 0
DWIDTH 9 0
BBX 6 7 1 -1
BITMAP
4C
98
88
9C
88
88
88
ENDCHAR

STARTCHAR 4EE3
ENCODING 20195
SWIDTH 960 0
DWIDTH 9 0
BBX 7 7 1 -1
BITMAP
54
50
BC
88
88
88
06
ENDCHAR

STARTCHAR 4EE4
ENCODING 20196
SWIDTH 960 0
DWIDTH 9 0
BBX 7 6 1 -1
BITMAP
10
68
BE
00
7C
24
ENDCHAR

STARTCHAR 4EE5
ENCODING 20197
SWIDTH 960 0
DWIDTH 9 0
BBX 7 7 1 -1
BITMAP
80
A4
84
84
84
CA
10
ENDCHAR

STARTCHAR 4EF0
ENCODING 20208
SWIDTH 960 0
DWIDTH 9 0
BBX 7 7 1 -1
BITMAP
56
66
E6
66
56
46
44
ENDCHAR

STARTCHAR 4EF2
ENCODING 20210
SWIDTH 960 0
DWIDTH 9 0
BBX 7 7 1 0
BITMAP
48
5E
EA
6A
5C
48
40
ENDCHAR

STARTCHAR 4EF6
ENCODING 20214
SWIDTH 960 0
DWIDTH 9 0
BBX 6 6 1 -1
BITMAP
50
68
BC
88
9C
88
ENDCHAR

STARTCHAR 4EF7
ENCODING 20215
SWIDTH 960 0
DWIDTH 9 0
BBX 7 7 1 -1
BITMAP
48
94
B2
98
98
A8
20
ENDCHAR

STARTCHAR 4EFB
ENCODING 20219
SWIDTH 960 0
DWIDTH 9 0
BBX 7 7 1 -1
BITMAP
46
98
88
BE
88
88
3E
ENDCHAR

STARTCHAR 4F01
ENCODING 20225
SWIDTH 960 0
DWIDTH 9 0
BBX 7 7 1 -1
BITMAP
10
28
CE
08
4E
48
FE
ENDCHAR

STARTCHAR 4F09
ENCODING 20233
SWIDTH 960 0
DWIDTH 9 0
BBX 7 7 1 -1
BITMAP
48
BE
9C
94
94
94
26
ENDCHAR

STARTCHAR 4F0A
ENCODING 20234
SWIDTH 960 0
DWIDTH 9 0
BBX 8 7 0 -1
BITMAP
2F
45
CF
45
4F
48
08
ENDCHAR

STARTCHAR 4F0B
ENCODING 20235
SWIDTH 960 0
DWIDTH 9 0
BBX 7 7 1 -1
BITMAP
5C
54
9E
9A
AC
A4
8A
ENDCHAR

STARTCHAR 4F0D
ENCODING 20237
SWIDTH 960 0
DWIDTH 9 0
BBX 7 8 1 -1
BITMAP
40
7E
90
90
9C
94
94
3E
ENDCHAR

STARTCHAR 4F0E
ENCODING 20238
SWIDTH 960 0
DWIDTH 9 0
BBX 7 7 1 -1
BITMAP
48
5C
C8
56
54
48
56
ENDCHAR

STARTCHAR 4F0F
ENCODING 20239
SWIDTH 960 0
DWIDTH 9 0
BBX 7 7 1 -1
BITMAP
48
88
BE
88
94
94
22
ENDCHAR

STARTCHAR 4F10
ENCODING 20240
SWIDTH 960 0
DWIDTH 9 0
BBX 8 7 0 0
BITMAP
2A
49
4E
C6
44
4C
43
ENDCHAR

STARTCHAR 4F11
ENCODING 20241
SWIDTH 960 0
DWIDTH 9 0
BBX 9 7 0 -1
BITMAP
2400
4400
CE00
4E00
5600
4580
0400
ENDCHAR

STARTCHAR 4F2F
ENCODING 20271
SWIDTH 960 0
DWIDTH 9 0
BBX 7 7 1 -1
BITMAP
48
5E
E2
5E
62
62
5C
ENDCHAR

STARTCHAR 4F34
ENCODING 20276
SWIDTH 960 0
DWIDTH 9 0
BBX 7 7 1 -1
BITMAP
48
AA
9E
88
9C
88
08
ENDCHAR

STARTCHAR 4F36
ENCODING 20278
SWIDTH 960 0
DWIDTH 9 0
BBX 7 6 1 -1
BITMAP
48
B4
BE
80
9E
94
ENDCHAR

STARTCHAR 4F38
ENCODING 20280
SWIDTH 960 0
DWIDTH 9 0
BBX 7 7 1 0
BITMAP
48
5E
EA
7E
6A
5C
40
ENDCHAR

STARTCHAR 4F3A
ENCODING 20282
SWIDTH 960 0
DWIDTH 9 0
BBX 7 7 1 -1
BITMAP
5E
42
DA
7A
6A
52
46
ENDCHAR

STARTCHAR 4F3C
ENCODING 20284
SWIDTH 960 0
DWIDTH 9 0
BBX 8 7 0 -1
BITMAP
30
56
D2
52
56
4D
08
ENDCHAR

STARTCHAR 4F3D
ENCODING 20285
SWIDTH 960 0
DWIDTH 9 0
BBX 7 7 1 -1
BITMAP
56
9E
9E
AE
AE
AE
14
ENDCHAR

STARTCHAR 4F43
ENCODING 20291
SWIDTH 960 0
DWIDTH 9 0
BBX 7 7 1 0
BITMAP
5E
6A
EA
7E
6A
6A
74
ENDCHAR

STARTCHAR 4F46
ENCODING 20294
SWIDTH 960 0
DWIDTH 9 0
BBX 8 7 1 -1
BITMAP
5C
A4
9C
A4
9C
80
3F
ENDCHAR

STARTCHAR 4F47
ENCODING 20295
SWIDTH 960 0
DWIDTH 9 0
BBX 8 7 1 0
BITMAP
40
BE
A0
BF
88
88
08
ENDCHAR

STARTCHAR 4F48
ENCODING 20296
SWIDTH 960 0
DWIDTH 9 0
BBX 7 6 1 -1
BITMAP
48
94
98
AE
AA
8A
ENDCHAR

STARTCHAR 4F4D
ENCODING 20301
SWIDTH 960 0
DWIDTH 9 0
BBX 8 7 1 -1
BITMAP
48
88
94
90
94
84
3F
ENDCHAR

STARTCHAR 4F4E
ENCODING 20302
SWIDTH 960 0
DWIDTH 9 0
BBX 8 7 1 -1
BITMAP
58
A8
BE
A8
BC
85
3E
ENDCHAR

STARTCHAR 4F4F
ENCODING 20303
SWIDTH 960 0
DWIDTH 9 0
BBX 7 7 1 -1
BITMAP
48
BE
88
88
8C
88
3E
ENDCHAR

STARTCHAR 4F50
ENCODING 20304
SWIDTH 960 0
DWIDTH 9 0
BBX 7 7 1 0
BITMAP
48
BE
90
90
AC
88
BE
ENDCHAR

STARTCHAR 4F51
ENCODING 20305
SWIDTH 960 0
DWIDTH 9 0
BBX 8 7 1 0
BITMAP
48
BF
90
9E
92
B2
1E
ENDCHAR

STARTCHAR 4F55
ENCODING 20309
SWIDTH 960 0
DWIDTH 9 0
BBX 6 7 1 -1
BITMAP
40
9C
9C
AC
9C
84
04
ENDCHAR

STARTCHAR 4F59
ENCODING 20313
SWIDTH 960 0
DWIDTH 9 0
BBX 7 7 1 0
BITMAP
30
4C
B8
10
7C
50
96
ENDCHAR

STARTCHAR 4F5A
ENCODING 20314
SWIDTH 960 0
DWIDTH 9 0
BBX 7 7 1 -1
BITMAP
50
9E
A8
BE
88
94
22
ENDCHAR

STARTCHAR 4F5B
ENCODING 20315
SWIDTH 960 0
DWIDTH 9 0
BBX 7 7 1 -1
BITMAP
54
9E
BE
B4
BE
94
24
ENDCHAR

STARTCHAR 4F5C
ENCODING 20316
SWIDTH 960 0
DWIDTH 9 0
BBX 6 7 1 -1
BITMAP
50
6C
E8
4C
48
4C
48
ENDCHAR

STARTCHAR 4F69
ENCODING 20329
SWIDTH 960 0
DWIDTH 9 0
BBX 8 7 0 -1
BITMAP
1E
5E
DA
5E
5E
6E
21
ENDCHAR

STARTCHAR 4F6F
ENCODING 20335
SWIDTH 960 0
DWIDTH 9 0
BBX 7 6 1 -1
BITMAP
44
BE
88
8C
BE
88
ENDCHAR

STARTCHAR 4F70
ENCODING 20336
SWIDTH 960 0
DWIDTH 9 0
BBX 7 7 1 -1
BITMAP
5C
48
76
E2
7E
62
5E
ENDCHAR

STARTCHAR 4F73
ENCODING 20339
SWIDTH 960 0
DWIDTH 9 0
BBX 7 7 1 -1
BITMAP
48
9C
88
9C
88
9C
1E
ENDCHAR

STARTCHAR 4F76
ENCODING 20342
SWIDTH 960 0
DWIDTH 9 0
BBX 7 7 1 -1
BITMAP
40
9C
80
8C
BE
A2
1E
ENDCHAR

STARTCHAR 4F7A
ENCODING 20346
SWIDTH 960 0
DWIDTH 9 0
BBX 7 7 1 -1
BITMAP
48
94
A2
8C
9C
88
3E
ENDCHAR

STARTCHAR 4F7E
ENCODING 20350
SWIDTH 960 0
DWIDTH 9 0
BBX 7 7 1 -1
BITMAP
4C
A4
9E
9C
9C
A4
04
ENDCHAR

STARTCHAR 4F7F
ENCODING 20351
SWIDTH 960 0
DWIDTH 9 0
BBX 7 7 1 -1
BITMAP
40
9E
9E
AA
9C
98
96
ENDCHAR

STARTCHAR 4F81
ENCODING 20353
SWIDTH 960 0
DWIDTH 9 0
BBX 7 7 1 0
BITMAP
48
BE
88
9C
98
98
2E
ENDCHAR

STARTCHAR 4F83
ENCODING 20355
SWIDTH 960 0
DWIDTH 9 0
BBX 7 7 1 -1
BITMAP
7C
A4
98
88
AC
AC
0A
ENDCHAR

STARTCHAR 4F84
ENCODING 20356
SWIDTH 960 0
DWIDTH 9 0
BBX 7 7 1 -1
BITMAP
5C
8C
BA
80
9E
88
3E
ENDCHAR

STARTCHAR 4F86
ENCODING 20358
SWIDTH 960 0
DWIDTH 9 0
BBX 7 7 1 -1
BITMAP
10
7C
54
9A
38
D4
12
ENDCHAR

STARTCHAR 4F88
ENCODING 20360
SWIDTH 960 0
DWIDTH 9 0
BBX 7 7 1 -1
BITMAP
4C
94
8C
98
96
84
18
ENDCHAR

STARTCHAR 4F8A
ENCODING 20362
SWIDTH 960 0
DWIDTH 9 0
BBX 7 8 1 -1
BITMAP
08
4A
98
9E
98
98
98
2E
ENDCHAR

STARTCHAR 4F8B
ENCODING 20363
SWIDTH 960 0
DWIDTH 9 0
BBX 7 7 1 -1
BITMAP
78
96
AE
AE
96
92
22
ENDCHAR

STARTCHAR 4F8D
ENCODING 20365
SWIDTH 960 0
DWIDTH 9 0
BBX 9 7 0 -1
BITMAP
2400
4600
DF80
4000
4E00
4A00
0200
ENDCHAR

STARTCHAR 4F8F
ENCODING 20367
SWIDTH 960 0
DWIDTH 9 0
BBX 7 7 1 -1
BITMAP
40
9E
A8
9C
94
AC
02
ENDCHAR

STARTCHAR 4F91
ENCODING 20369
SWIDTH 960 0
DWIDTH 9 0
BBX 7 7 1 -1
BITMAP
50
9C
9E
9E
92
9E
12
ENDCHAR

STARTCHAR 4F96
ENCODING 20374
SWIDTH 960 0
DWIDTH 9 0
BBX 7 7 1 -1
BITMAP
10
68
96
7C
B4
FC
24
ENDCHAR

STARTCHAR 4F98
ENCODING 20376
SWIDTH 960 0
DWIDTH 9 0
BBX 7 7 1 -1
BITMAP
48
B4
98
88
BE
88
0E
ENDCHAR

STARTCHAR 4F9B
ENCODING 20379
SWIDTH 960 0
DWIDTH 9 0
BBX 7 7 1 -1
BITMAP
54
94
9C
94
BE
94
22
ENDCHAR

STARTCHAR 4F9D
ENCODING 20381
SWIDTH 960 0
DWIDTH 9 0
BBX 7 7 1 -1
BITMAP
48
BE
98
96
B4
92
20
ENDCHAR

STARTCHAR 4FAE
ENCODING 20398
SWIDTH 960 0
DWIDTH 9 0
BBX 7 7 1 -1
BITMAP
40
BC
BC
A4
BC
A6
1C
ENDCHAR

STARTCHAR 4FAF
ENCODING 20399
SWIDTH 960 0
DWIDTH 9 0
BBX 7 7 1 -1
BITMAP
4C
BE
A0
9C
BE
94
22
ENDCHAR

STARTCHAR 4FB5
ENCODING 20405
SWIDTH 960 0
DWIDTH 9 0
BBX 7 7 1 -1
BITMAP
4C
9C
8C
9C
9C
88
36
ENDCHAR

STARTCHAR 4FB6
ENCODING 20406
SWIDTH 960 0
DWIDTH 9 0
BBX 7 7 1 0
BITMAP
5E
52
DC
48
76
62
5C
ENDCHAR

STARTCHAR 4FBF
ENCODING 20415
SWIDTH 960 0
DWIDTH 9 0
BBX 7 7 1 -1
BITMAP
5C
9E
9E
AA
9C
98
B6
ENDCHAR

STARTCHAR 4FC2
ENCODING 20418
SWIDTH 960 0
DWIDTH 9 0
BBX 7 7 1 0
BITMAP
5C
90
9C
8A
BC
AA
08
ENDCHAR

STARTCHAR 4FC3
ENCODING 20419
SWIDTH 960 0
DWIDTH 9 0
BBX 7 7 1 -1
BITMAP
7E
A2
9E
98
AC
B8
06
ENDCHAR

STARTCHAR 4FC4
ENCODING 20420
SWIDTH 960 0
DWIDTH 9 0
BBX 9 7 0 -1
BITMAP
1900
5400
DF00
5400
5B00
5200
1580
ENDCHAR

STARTCHAR 4FC9
ENCODING 20425
SWIDTH 960 0
DWIDTH 9 0
BBX 7 7 1 -1
BITMAP
4C
88
8C
BE
80
9E
1E
ENDCHAR

STARTCHAR 4FCA
ENCODING 20426
SWIDTH 960 0
DWIDTH 9 0
BBX 9 7 0 -1
BITMAP
2A00
5D00
CA80
4900
5E00
4400
0B00
ENDCHAR

STARTCHAR 4FCE
ENCODING 20430
SWIDTH 960 0
DWIDTH 9 0
BBX 6 7 1 -1
BITMAP
5C
54
BC
54
5C
B4
1C
ENDCHAR

STARTCHAR 4FD1
ENCODING 20433
SWIDTH 960 0
DWIDTH 9 0
BBX 7 6 1 -1
BITMAP
4C
8C
BA
9E
9E
AA
ENDCHAR

STARTCHAR 4FD3
ENCODING 20435
SWIDTH 960 0
DWIDTH 9 0
BBX 8 7 1 0
BITMAP
9C
92
AC
92
BE
88
3F
ENDCHAR

STARTCHAR 4FD4
ENCODING 20436
SWIDTH 960 0
DWIDTH 9 0
BBX 6 7 1 -1
BITMAP
7C
9C
9C
A4
98
98
2C
ENDCHAR

STARTCHAR 4FD7
ENCODING 20439
SWIDTH 960 0
DWIDTH 9 0
BBX 8 8 0 -1
BITMAP
28
31
44
CA
51
5F
51
5F
ENDCHAR

STARTCHAR 4FDA
ENCODING 20442
SWIDTH 960 0
DWIDTH 9 0
BBX 8 7 1 -1
BITMAP
7E
AA
BE
9E
88
9C
3F
ENDCHAR

STARTCHAR 4FDD
ENCODING 20445
SWIDTH 960 0
DWIDTH 9 0
BBX 8 7 0 -1
BITMAP
3E
52
CC
5F
46
5D
04
ENDCHAR

STARTCHAR 4FDF
ENCODING 20447
SWIDTH 960 0
DWIDTH 9 0
BBX 7 7 1 0
BITMAP
50
BE
90
AC
BE
98
16
ENDCHAR

STARTCHAR 4FE0
ENCODING 20448
SWIDTH 960 0
DWIDTH 9 0
BBX 7 7 1 -1
BITMAP
48
BE
8A
AE
98
94
22
ENDCHAR

STARTCHAR 4FE1
ENCODING 20449
SWIDTH 960 0
DWIDTH 9 0
BBX 7 7 1 -1
BITMAP
48
BE
9C
80
88
BE
1E
ENDCHAR

STARTCHAR 4FEE
ENCODING 20462
SWIDTH 960 0
DWIDTH 9 0
BBX 8 7 0 0
BITMAP
0F
6A
E6
6B
6E
6D
46
ENDCHAR

STARTCHAR 4FEF
ENCODING 20463
SWIDTH 960 0
DWIDTH 9 0
BBX 7 7 1 -1
BITMAP
40
BC
AA
B2
B2
B2
22
ENDCHAR

STARTCHAR 4FF1
ENCODING 20465
SWIDTH 960 0
DWIDTH 9 0
BBX 7 7 1 -1
BITMAP
7C
BC
9C
9C
A4
98
32
ENDCHAR

STARTCHAR 4FF3
ENCODING 20467
SWIDTH 960 0
DWIDTH 9 0
BBX 7 7 1 -1
BITMAP
44
B6
94
94
B4
94
24
ENDCHAR

STARTCHAR 4FF5
ENCODING 20469
SWIDTH 960 0
DWIDTH 9 0
BBX 7 7 1 -1
BITMAP
48
9C
8C
9E
9A
B4
12
ENDCHAR

STARTCHAR 4FF8
ENCODING 20472
SWIDTH 960 0
DWIDTH 9 0
BBX 7 8 1 -1
BITMAP
08
7E
BE
98
94
BE
88
1C
ENDCHAR

STARTCHAR 4FFA
ENCODING 20474
SWIDTH 960 0
DWIDTH 9 0
BBX 7 7 1 -1
BITMAP
40
9C
AC
BC
BC
9C
0E
ENDCHAR

STARTCHAR 5002
ENCODING 20482
SWIDTH 960 0
DWIDTH 9 0
BBX 8 7 1 0
BITMAP
54
97
94
94
B6
A4
40
ENDCHAR

STARTCHAR 5006
ENCODING 20486
SWIDTH 960 0
DWIDTH 9 0
BBX 7 7 1 -1
BITMAP
5C
88
BE
BA
AE
AA
2A
ENDCHAR

STARTCHAR 5009
ENCODING 20489
SWIDTH 960 0
DWIDTH 9 0
BBX 7 8 1 -1
BITMAP
10
28
46
FC
7C
7C
BC
3C
ENDCHAR

STARTCHAR 500B
ENCODING 20491
SWIDTH 960 0
DWIDTH 9 0
BBX 7 7 1 -1
BITMAP
7E
62
EA
76
76
6A
5C
ENDCHAR

STARTCHAR 500D
ENCODING 20493
SWIDTH 960 0
DWIDTH 9 0
BBX 7 7 1 -1
BITMAP
48
94
94
88
9E
A2
1E
ENDCHAR

STARTCHAR 5011
ENCODING 20497
SWIDTH 960 0
DWIDTH 9 0
BBX 7 7 1 -1
BITMAP
7E
BE
BE
A2
A2
A2
22
ENDCHAR

STARTCHAR 5012
ENCODING 20498
SWIDTH 960 0
DWIDTH 9 0
BBX 7 7 1 -1
BITMAP
7A
AE
B6
96
92
92
02
ENDCHAR

STARTCHAR 5016
ENCODING 20502
SWIDTH 960 0
DWIDTH 9 0
BBX 7 7 1 0
BITMAP
5E
88
94
94
88
BE
08
ENDCHAR

STARTCHAR 5019
ENCODING 20505
SWIDTH 960 0
DWIDTH 9 0
BBX 7 7 1 -1
BITMAP
5C
9E
C0
DC
DE
8C
12
ENDCHAR

STARTCHAR 501A
ENCODING 20506
SWIDTH 960 0
DWIDTH 9 0
BBX 8 8 0 -1
BITMAP
04
3F
4A
C0
4F
5D
4D
02
ENDCHAR

STARTCHAR 501C
ENCODING 20508
SWIDTH 960 0
DWIDTH 9 0
BBX 7 7 1 -1
BITMAP
7E
BE
BE
A2
BE
AE
02
ENDCHAR

STARTCHAR 501E
ENCODING 20510
SWIDTH 960 0
DWIDTH 9 0
BBX 7 7 1 0
BITMAP
48
94
BE
A2
9C
AC
0A
ENDCHAR

STARTCHAR 501F
ENCODING 20511
SWIDTH 960 0
DWIDTH 9 0
BBX 8 7 0 -1
BITMAP
22
4E
CA
45
5F
5F
0F
ENDCHAR

STARTCHAR 5021
ENCODING 20513
SWIDTH 960 0
DWIDTH 9 0
BBX 7 7 1 -1
BITMAP
7E
9E
9E
BE
A2
BE
3E
ENDCHAR

STARTCHAR 5023
ENCODING 20515
SWIDTH 960 0
DWIDTH 9 0
BBX 9 7 0 -1
BITMAP
3200
5380
D500
5D00
5A00
6A00
2D00
ENDCHAR

STARTCHAR 5024
ENCODING 20516
SWIDTH 960 0
DWIDTH 9 0
BBX 8 7 1 -1
BITMAP
40
9C
B6
BE
BE
AE
3F
ENDCHAR

STARTCHAR 5026
ENCODING 20518
SWIDTH 960 0
DWIDTH 9 0
BBX 7 7 1 -1
BITMAP
08
A8
BE
A4
9E
90
1E
ENDCHAR

STARTCHAR 5027
ENCODING 20519
SWIDTH 960 0
DWIDTH 9 0
BBX 8 8 1 -1
BITMAP
48
48
B6
BE
9E
88
9A
29
ENDCHAR

STARTCHAR 5028
ENCODING 20520
SWIDTH 960 0
DWIDTH 9 0
BBX 7 7 1 -1
BITMAP
5E
9E
94
9E
A4
BA
0E
ENDCHAR

STARTCHAR 502A
ENCODING 20522
SWIDTH 960 0
DWIDTH 9 0
BBX 7 7 1 -1
BITMAP
52
A2
B2
9E
94
94
26
ENDCHAR

STARTCHAR 502B
ENCODING 20523
SWIDTH 960 0
DWIDTH 9 0
BBX 7 7 1 -1
BITMAP
58
A6
88
BE
BA
BE
22
ENDCHAR

STARTCHAR 502C
ENCODING 20524
SWIDTH 960 0
DWIDTH 9 0
BBX 7 7 1 -1
BITMAP
46
48
F6
7E
5C
5C
40
ENDCHAR

STARTCHAR 502D
ENCODING 20525
SWIDTH 960 0
DWIDTH 9 0
BBX 8 7 1 0
BITMAP
5C
BE
9C
A2
BF
98
14
ENDCHAR

STARTCHAR 503B
ENCODING 20539
SWIDTH 960 0
DWIDTH 9 0
BBX 7 7 1 -1
BITMAP
BE
AE
BC
BE
AE
BE
0C
ENDCHAR

STARTCHAR 5043
ENCODING 20547
SWIDTH 960 0
DWIDTH 9 0
BBX 7 7 1 -1
BITMAP
7C
BE
BE
AC
AE
A4
3E
ENDCHAR

STARTCHAR 5047
ENCODING 20551
SWIDTH 960 0
DWIDTH 9 0
BBX 7 7 1 -1
BITMAP
72
B2
A0
BE
AA
A4
2A
ENDCHAR

STARTCHAR 5048
ENCODING 20552
SWIDTH 960 0
DWIDTH 9 0
BBX 7 7 1 -1
BITMAP
7E
9E
9E
9E
AA
A2
1A
ENDCHAR

STARTCHAR 5049
ENCODING 20553
SWIDTH 960 0
DWIDTH 9 0
BBX 7 7 1 -1
BITMAP
5E
94
9E
A2
9C
BC
14
ENDCHAR

STARTCHAR 504F
ENCODING 20559
SWIDTH 960 0
DWIDTH 9 0
BBX 7 7 1 -1
BITMAP
5C
A6
9E
9E
AE
FE
0E
ENDCHAR

STARTCHAR 5055
ENCODING 20565
SWIDTH 960 0
DWIDTH 9 0
BBX 7 7 1 0
BITMAP
48
B4
A8
9C
B6
9E
1E
ENDCHAR

STARTCHAR 505A
ENCODING 20570
SWIDTH 960 0
DWIDTH 9 0
BBX 7 8 1 -1
BITMAP
40
A4
B6
AA
DA
DC
B4
1A
ENDCHAR

STARTCHAR 505C
ENCODING 20572
SWIDTH 960 0
DWIDTH 9 0
BBX 7 6 1 0
BITMAP
7E
9E
9E
BE
BC
88
ENDCHAR

STARTCHAR 5065
ENCODING 20581
SWIDTH 960 0
DWIDTH 9 0
BBX 9 7 0 -1
BITMAP
1700
5F80
E500
5600
3600
5200
0F00
ENDCHAR

STARTCHAR 5074
ENCODING 20596
SWIDTH 960 0
DWIDTH 9 0
BBX 7 7 1 -1
BITMAP
7C
BE
AE
BE
AE
92
2A
ENDCHAR

STARTCHAR 5075
ENCODING 20597
SWIDTH 960 0
DWIDTH 9 0
BBX 7 7 1 -1
BITMAP
4E
88
B6
BE
BE
9C
22
ENDCHAR

STARTCHAR 5076
ENCODING 20598
SWIDTH 960 0
DWIDTH 9 0
BBX 7 7 1 -1
BITMAP
7E
9E
AA
9C
BE
BE
22
ENDCHAR

STARTCHAR 5078
ENCODING 20600
SWIDTH 960 0
DWIDTH 9 0
BBX 7 7 1 -1
BITMAP
48
96
BC
AE
AC
AE
AE
ENDCHAR

STARTCHAR 5080
ENCODING 20608
SWIDTH 960 0
DWIDTH 9 0
BBX 7 7 1 -1
BITMAP
48
BE
BE
9E
9C
AE
AE
ENDCHAR

STARTCHAR 5085
ENCODING 20613
SWIDTH 960 0
DWIDTH 9 0
BBX 7 7 1 -1
BITMAP
48
BC
BC
BC
88
BE
14
ENDCHAR

STARTCHAR 508D
ENCODING 20621
SWIDTH 960 0
DWIDTH 9 0
BBX 7 8 1 -1
BITMAP
40
48
9C
BE
88
94
9C
24
ENDCHAR

STARTCHAR 5091
ENCODING 20625
SWIDTH 960 0
DWIDTH 9 0
BBX 9 7 0 -1
BITMAP
2000
5E00
4F80
D400
5F00
4600
1D00
ENDCHAR

STARTCHAR 5098
ENCODING 20632
SWIDTH 960 0
DWIDTH 9 0
BBX 7 8 1 -1
BITMAP
10
28
56
D4
94
FC
10
FC
ENDCHAR

STARTCHAR 5099
ENCODING 20633
SWIDTH 960 0
DWIDTH 9 0
BBX 7 7 1 -1
BITMAP
54
9C
AA
BE
BE
BE
52
ENDCHAR

STARTCHAR 50AC
ENCODING 20652
SWIDTH 960 0
DWIDTH 9 0
BBX 7 7 1 0
BITMAP
4A
84
90
AC
BC
9E
1E
ENDCHAR

STARTCHAR 50AD
ENCODING 20653
SWIDTH 960 0
DWIDTH 9 0
BBX 7 8 1 -1
BITMAP
40
7E
BE
AA
AC
BE
DE
16
ENDCHAR

STARTCHAR 50B2
ENCODING 20658
SWIDTH 960 0
DWIDTH 9 0
BBX 9 7 0 -1
BITMAP
3E00
4B80
4500
DF00
4F00
5A00
0D00
ENDCHAR

STARTCHAR 50B3
ENCODING 20659
SWIDTH 960 0
DWIDTH 9 0
BBX 7 7 1 0
BITMAP
BE
BE
BE
9E
80
9C
04
ENDCHAR

STARTCHAR 50B5
ENCODING 20661
SWIDTH 960 0
DWIDTH 9 0
BBX 7 7 1 -1
BITMAP
7E
9E
BE
9E
A2
BE
3E
ENDCHAR

STARTCHAR 50B7
ENCODING 20663
SWIDTH 960 0
DWIDTH 9 0
BBX 8 7 0 0
BITMAP
2F
5E
D2
4C
4F
5F
15
ENDCHAR

STARTCHAR 50BE
ENCODING 20670
SWIDTH 960 0
DWIDTH 9 0
BBX 8 7 0 -1
BITMAP
22
57
5D
D7
5F
42
05
ENDCHAR

STARTCHAR 50C5
ENCODING 20677
SWIDTH 960 0
DWIDTH 9 0
BBX 7 7 1 0
BITMAP
7E
5C
9E
BE
BE
9E
3E
ENDCHAR

STARTCHAR 50C9
ENCODING 20681
SWIDTH 960 0
DWIDTH 9 0
BBX 7 7 1 -1
BITMAP
30
4C
10
FC
48
64
8A
ENDCHAR

STARTCHAR 50CA
ENCODING 20682
SWIDTH 960 0
DWIDTH 9 0
BBX 8 8 0 -1
BITMAP
20
4E
5F
D6
5F
4F
4A
0F
ENDCHAR

STARTCHAR 50CF
ENCODING 20687
SWIDTH 960 0
DWIDTH 9 0
BBX 7 7 1 0
BITMAP
5C
A8
BE
94
8E
9C
3A
ENDCHAR

STARTCHAR 50D1
ENCODING 20689
SWIDTH 960 0
DWIDTH 9 0
BBX 8 7 0 0
BITMAP
26
5F
CE
4F
51
5F
17
ENDCHAR

STARTCHAR 50D5
ENCODING 20693
SWIDTH 960 0
DWIDTH 9 0
BBX 7 7 1 -1
BITMAP
72
BE
BE
88
8C
9C
26
ENDCHAR

STARTCHAR 50D6
ENCODING 20694
SWIDTH 960 0
DWIDTH 9 0
BBX 7 7 1 -1
BITMAP
7E
BE
A2
9E
BE
A2
1E
ENDCHAR

STARTCHAR 50DA
ENCODING 20698
SWIDTH 960 0
DWIDTH 9 0
BBX 8 7 0 0
BITMAP
44
4E
CA
57
5E
4C
15
ENDCHAR

STARTCHAR 50DE
ENCODING 20702
SWIDTH 960 0
DWIDTH 9 0
BBX 7 7 1 -1
BITMAP
5C
A2
BC
BC
9E
A2
02
ENDCHAR

STARTCHAR 50E5
ENCODING 20709
SWIDTH 960 0
DWIDTH 9 0
BBX 7 7 1 0
BITMAP
7E
88
94
90
82
9C
1E
ENDCHAR

STARTCHAR 50E7
ENCODING 20711
SWIDTH 960 0
DWIDTH 9 0
BBX 9 7 0 -1
BITMAP
3200
5F80
5F00
DF00
4E00
4E00
1E00
ENDCHAR

STARTCHAR 50ED
ENCODING 20717
SWIDTH 960 0
DWIDTH 9 0
BBX 7 7 1 -1
BITMAP
76
B4
92
A6
BE
BE
3E
ENDCHAR

STARTCHAR 50F9
ENCODING 20729
SWIDTH 960 0
DWIDTH 9 0
BBX 7 7 1 -1
BITMAP
1C
BE
BE
A2
BE
9E
12
ENDCHAR

STARTCHAR 50FB
ENCODING 20731
SWIDTH 960 0
DWIDTH 9 0
BBX 8 7 0 -1
BITMAP
38
5F
55
E2
5A
7A
50
ENDCHAR

STARTCHAR 50FF
ENCODING 20735
SWIDTH 960 0
DWIDTH 9 0
BBX 8 7 1 0
BITMAP
7E
D0
98
98
AC
DF
9C
ENDCHAR

STARTCHAR 5100
ENCODING 20736
SWIDTH 960 0
DWIDTH 9 0
BBX 7 7 1 0
BITMAP
90
9C
88
BC
7E
B8
0E
ENDCHAR

STARTCHAR 5101
ENCODING 20737
SWIDTH 960 0
DWIDTH 9 0
BBX 7 7 1 -1
BITMAP
5E
BE
9E
9E
96
AE
02
ENDCHAR

STARTCHAR 5104
ENCODING 20740
SWIDTH 960 0
DWIDTH 9 0
BBX 8 7 1 0
BITMAP
88
9C
88
BC
BC
98
9D
ENDCHAR

STARTCHAR 5106
ENCODING 20742
SWIDTH 960 0
DWIDTH 9 0
BBX 7 7 1 -1
BITMAP
34
B6
BA
76
F4
94
1A
ENDCHAR

STARTCHAR 5109
ENCODING 20745
SWIDTH 960 0
DWIDTH 9 0
BBX 7 7 1 -1
BITMAP
48
B6
88
BE
B6
A4
2A
ENDCHAR

STARTCHAR 5112
ENCODING 20754
SWIDTH 960 0
DWIDTH 9 0
BBX 7 7 1 0
BITMAP
5C
DE
9C
BE
88
BE
20
ENDCHAR

STARTCHAR 511F
ENCODING 20767
SWIDTH 960 0
DWIDTH 9 0
BBX 7 7 1 0
BITMAP
58
C6
9C
9E
A2
BE
1E
ENDCHAR

STARTCHAR 5121
ENCODING 20769
SWIDTH 960 0
DWIDTH 9 0
BBX 7 7 1 -1
BITMAP
7E
9E
9E
B6
FE
FE
36
ENDCHAR

STARTCHAR 512A
ENCODING 20778
SWIDTH 960 0
DWIDTH 9 0
BBX 8 7 1 -1
BITMAP
5C
9C
94
8B
AC
94
1C
ENDCHAR

STARTCHAR 5132
ENCODING 20786
SWIDTH 960 0
DWIDTH 9 0
BBX 7 7 1 0
BITMAP
80
8A
8E
BA
BE
DE
36
ENDCHAR

STARTCHAR 5137
ENCODING 20791
SWIDTH 960 0
DWIDTH 9 0
BBX 7 7 1 -1
BITMAP
80
80
88
F4
BE
DE
BC
ENDCHAR

STARTCHAR 513A
ENCODING 20794
SWIDTH 960 0
DWIDTH 9 0
BBX 7 7 1 -1
BITMAP
32
BC
EC
BC
AE
AC
16
ENDCHAR

STARTCHAR 513C
ENCODING 20796
SWIDTH 960 0
DWIDTH 9 0
BBX 7 7 1 -1
BITMAP
3E
84
BC
DE
EA
FA
5E
ENDCHAR

STARTCHAR 5140
ENCODING 20800
SWIDTH 960 0
DWIDTH 9 0
BBX 7 7 1 -1
BITMAP
FE
30
30
30
50
50
8E
ENDCHAR

STARTCHAR 5141
ENCODING 20801
SWIDTH 960 0
DWIDTH 9 0
BBX 7 7 1 -1
BITMAP
24
7C
02
20
30
50
96
ENDCHAR

STARTCHAR 5143
ENCODING 20803
SWIDTH 960 0
DWIDTH 9 0
BBX 7 7 1 -1
BITMAP
7C
00
FE
30
30
50
8E
ENDCHAR

STARTCHAR 5144
ENCODING 20804
SWIDTH 960 0
DWIDTH 9 0
BBX 7 7 1 -1
BITMAP
7C
84
84
78
30
50
8E
ENDCHAR

STARTCHAR 5145
ENCODING 20805
SWIDTH 960 0
DWIDTH 9 0
BBX 7 8 1 -1
BITMAP
10
10
6C
24
58
20
50
8E
ENDCHAR

STARTCHAR 5146
ENCODING 20806
SWIDTH 960 0
DWIDTH 9 0
BBX 7 7 1 -1
BITMAP
20
B4
30
28
D4
50
8E
ENDCHAR

STARTCHAR 5147
ENCODING 20807
SWIDTH 960 0
DWIDTH 9 0
BBX 7 7 1 -1
BITMAP
28
94
8C
38
30
50
8E
ENDCHAR

STARTCHAR 5148
ENCODING 20808
SWIDTH 960 0
DWIDTH 9 0
BBX 7 7 1 -1
BITMAP
50
7C
10
7C
30
50
8E
ENDCHAR

STARTCHAR 5149
ENCODING 20809
SWIDTH 960 0
DWIDTH 9 0
BBX 7 7 1 -1
BITMAP
10
54
10
6C
28
48
CE
ENDCHAR

STARTCHAR 514B
ENCODING 20811
SWIDTH 960 0
DWIDTH 9 0
BBX 7 7 1 -1
BITMAP
10
7C
EC
84
7C
30
5E
ENDCHAR

STARTCHAR 514C
ENCODING 20812
SWIDTH 960 0
DWIDTH 9 0
BBX 7 7 1 -1
BITMAP
08
C6
78
48
30
30
5E
ENDCHAR

STARTCHAR 514D
ENCODING 20813
SWIDTH 960 0
DWIDTH 9 0
BBX 7 7 1 -1
BITMAP
7C
4C
FC
94
78
30
CE
ENDCHAR

STARTCHAR 514E
ENCODING 20814
SWIDTH 960 0
DWIDTH 9 0
BBX 7 7 1 -1
BITMAP
78
7C
94
94
78
50
8E
ENDCHAR

STARTCHAR 5152
ENCODING 20818
SWIDTH 960 0
DWIDTH 9 0
BBX 7 7 1 -1
BITMAP
C4
84
C4
FC
30
50
8E
ENDCHAR

STARTCHAR 515C
ENCODING 20828
SWIDTH 960 0
DWIDTH 9 0
BBX 7 7 1 -1
BITMAP
F6
CA
FA
3A
20
30
CE
ENDCHAR

STARTCHAR 5162
ENCODING 20834
SWIDTH 960 0
DWIDTH 9 0
BBX 9 7 0 -1
BITMAP
2000
2600
7700
5900
6600
6600
BB80
ENDCHAR

STARTCHAR 5165
ENCODING 20837
SWIDTH 960 0
DWIDTH 9 0
BBX 7 7 1 -1
BITMAP
30
10
10
30
28
44
82
ENDCHAR

STARTCHAR 5167
ENCODING 20839
SWIDTH 960 0
DWIDTH 9 0
BBX 7 7 1 -1
BITMAP
30
FE
92
B2
AA
82
82
ENDCHAR

STARTCHAR 5168
ENCODING 20840
SWIDTH 960 0
DWIDTH 9 0
BBX 7 7 1 -1
BITMAP
30
28
C6
30
78
10
FC
ENDCHAR

STARTCHAR 5169
ENCODING 20841
SWIDTH 960 0
DWIDTH 9 0
BBX 7 7 1 -1
BITMAP
FE
10
FE
92
FE
92
96
ENDCHAR

STARTCHAR 516A
ENCODING 20842
SWIDTH 960 0
DWIDTH 9 0
BBX 7 7 1 -1
BITMAP
30
28
D6
B0
9C
9C
02
ENDCHAR

STARTCHAR 516B
ENCODING 20843
SWIDTH 960 0
DWIDTH 9 0
BBX 7 6 1 0
BITMAP
38
08
48
48
44
86
ENDCHAR

STARTCHAR 516C
ENCODING 20844
SWIDTH 960 0
DWIDTH 9 0
BBX 7 7 1 -1
BITMAP
18
08
44
A2
28
44
FA
ENDCHAR

STARTCHAR 516D
ENCODING 20845
SWIDTH 960 0
DWIDTH 9 0
BBX 7 7 1 -1
BITMAP
10
10
6C
08
48
44
82
ENDCHAR

STARTCHAR 516E
ENCODING 20846
SWIDTH 960 0
DWIDTH 9 0
BBX 7 7 1 -1
BITMAP
18
44
FE
20
5C
04
08
ENDCHAR

STARTCHAR 5171
ENCODING 20849
SWIDTH 960 0
DWIDTH 9 0
BBX 7 7 1 -1
BITMAP
28
28
7C
28
54
28
C6
ENDCHAR

STARTCHAR 5175
ENCODING 20853
SWIDTH 960 0
DWIDTH 9 0
BBX 7 7 1 -1
BITMAP
78
40
7C
48
FE
08
C6
ENDCHAR

STARTCHAR 5176
ENCODING 20854
SWIDTH 960 0
DWIDTH 9 0
BBX 6 6 1 0
BITMAP
7C
38
38
48
34
C4
ENDCHAR

STARTCHAR 5177
ENCODING 20855
SWIDTH 960 0
DWIDTH 9 0
BBX 7 7 1 -1
BITMAP
7C
7C
7C
44
7C
38
C6
ENDCHAR

STARTCHAR 5178
ENCODING 20856
SWIDTH 960 0
DWIDTH 9 0
BBX 7 7 1 -1
BITMAP
28
FC
AC
FC
AC
50
C6
ENDCHAR

STARTCHAR 517C
ENCODING 20860
SWIDTH 960 0
DWIDTH 9 0
BBX 7 7 1 -1
BITMAP
4C
FE
FC
FE
FC
74
A2
ENDCHAR

STARTCHAR 5180
ENCODING 20864
SWIDTH 960 0
DWIDTH 9 0
BBX 7 7 1 -1
BITMAP
EC
EE
7C
94
68
FE
44
ENDCHAR

STARTCHAR 5186
ENCODING 20870
SWIDTH 960 0
DWIDTH 9 0
BBX 7 7 1 -1
BITMAP
FE
92
92
FE
82
82
82
ENDCHAR

STARTCHAR 518A
ENCODING 20874
SWIDTH 960 0
DWIDTH 9 0
BBX 6 7 1 -1
BITMAP
FC
B4
B4
FC
B4
B4
F4
ENDCHAR

STARTCHAR 518D
ENCODING 20877
SWIDTH 960 0
DWIDTH 9 0
BBX 7 7 1 -1
BITMAP
7C
7C
94
FC
FE
84
04
ENDCHAR

STARTCHAR 5192
ENCODING 20882
SWIDTH 960 0
DWIDTH 9 0
BBX 7 7 1 -1
BITMAP
FE
92
92
7C
7C
7C
7C
ENDCHAR

STARTCHAR 5195
ENCODING 20885
SWIDTH 960 0
DWIDTH 9 0
BBX 7 7 1 -1
BITMAP
FC
FC
78
F8
FC
78
CE
ENDCHAR

STARTCHAR 5197
ENCODING 20887
SWIDTH 960 0
DWIDTH 9 0
BBX 7 7 1 -1
BITMAP
FE
02
70
50
50
50
8E
ENDCHAR

STARTCHAR 51A0
ENCODING 20896
SWIDTH 960 0
DWIDTH 9 0
BBX 8 7 0 -1
BITMAP
BF
32
02
32
56
56
1F
ENDCHAR

STARTCHAR 51A5
ENCODING 20901
SWIDTH 960 0
DWIDTH 9 0
BBX 7 7 1 -1
BITMAP
FE
BE
3C
44
38
6C
C6
ENDCHAR

STARTCHAR 51AA
ENCODING 20906
SWIDTH 960 0
DWIDTH 9 0
BBX 7 7 1 -1
BITMAP
FC
38
54
7C
FE
54
1C
ENDCHAR

STARTCHAR 51AC
ENCODING 20908
SWIDTH 960 0
DWIDTH 9 0
BBX 7 7 1 -1
BITMAP
20
58
B0
2C
D2
00
38
ENDCHAR

STARTCHAR 51B6
ENCODING 20918
SWIDTH 960 0
DWIDTH 9 0
BBX 7 7 1 -1
BITMAP
90
14
3A
00
BE
A2
3E
ENDCHAR

STARTCHAR 51B7
ENCODING 20919
SWIDTH 960 0
DWIDTH 9 0
BBX 8 6 0 -1
BITMAP
4C
12
2D
00
4E
8A
ENDCHAR

STARTCHAR 51BD
ENCODING 20925
SWIDTH 960 0
DWIDTH 9 0
BBX 7 7 1 -1
BITMAP
B8
26
36
36
96
A6
02
ENDCHAR

STARTCHAR 51C4
ENCODING 20932
SWIDTH 960 0
DWIDTH 9 0
BBX 7 7 1 0
BITMAP
7E
3C
14
3E
98
2C
34
ENDCHAR

STARTCHAR 51C6
ENCODING 20934
SWIDTH 960 0
DWIDTH 9 0
BBX 7 7 1 -1
BITMAP
20
BE
68
3C
BE
A8
3E
ENDCHAR

STARTCHAR 51C9
ENCODING 20937
SWIDTH 960 0
DWIDTH 9 0
BBX 7 7 1 -1
BITMAP
08
14
BC
24
98
AC
4A
ENDCHAR

STARTCHAR 51CB
ENCODING 20939
SWIDTH 960 0
DWIDTH 9 0
BBX 7 7 1 -1
BITMAP
BE
2E
2A
62
BE
AE
42
ENDCHAR

STARTCHAR 51CC
ENCODING 20940
SWIDTH 960 0
DWIDTH 9 0
BBX 7 7 1 -1
BITMAP
08
1C
3C
26
9C
28
34
ENDCHAR

STARTCHAR 51CD
ENCODING 20941
SWIDTH 960 0
DWIDTH 9 0
BBX 8 6 0 0
BITMAP
4E
1E
1E
54
9A
21
ENDCHAR

STARTCHAR 51DC
ENCODING 20956
SWIDTH 960 0
DWIDTH 9 0
BBX 7 8 1 -1
BITMAP
08
14
BE
3E
3E
98
0C
3E
ENDCHAR

STARTCHAR 51DD
ENCODING 20957
SWIDTH 960 0
DWIDTH 9 0
BBX 7 7 1 -1
BITMAP
B6
44
2E
E6
FE
2C
52
ENDCHAR

STARTCHAR 51DE
ENCODING 20958
SWIDTH 960 0
DWIDTH 9 0
BBX 7 7 1 -1
BITMAP
EE
7A
5E
E8
76
00
CA
ENDCHAR

STARTCHAR 51E1
ENCODING 20961
SWIDTH 960 0
DWIDTH 9 0
BBX 7 7 1 -1
BITMAP
78
48
48
68
48
48
8E
ENDCHAR

STARTCHAR 51F0
ENCODING 20976
SWIDTH 960 0
DWIDTH 9 0
BBX 8 7 0 -1
BITMAP
7E
3E
3E
3E
7E
7E
BD
ENDCHAR

STARTCHAR 51F1
ENCODING 20977
SWIDTH 960 0
DWIDTH 9 0
BBX 7 7 1 -1
BITMAP
4C
EC
FC
EC
AC
D4
92
ENDCHAR

STARTCHAR 51F6
ENCODING 20982
SWIDTH 960 0
DWIDTH 9 0
BBX 7 7 1 -1
BITMAP
8A
AA
92
92
AA
82
FE
ENDCHAR

STARTCHAR 51F8
ENCODING 20984
SWIDTH 960 0
DWIDTH 9 0
BBX 7 7 1 -1
BITMAP
78
48
C6
82
82
82
FE
ENDCHAR

STARTCHAR 51F9
ENCODING 20985
SWIDTH 960 0
DWIDTH 9 0
BBX 7 7 1 -1
BITMAP
EE
AA
AA
BA
82
82
FE
ENDCHAR

STARTCHAR 51FA
ENCODING 20986
SWIDTH 960 0
DWIDTH 9 0
BBX 7 7 1 -1
BITMAP
10
94
94
38
92
92
EE
ENDCHAR

STARTCHAR 51FD
ENCODING 20989
SWIDTH 960 0
DWIDTH 9 0
BBX 7 7 1 -1
BITMAP
FE
20
92
92
9A
B2
4E
ENDCHAR

STARTCHAR 5200
ENCODING 20992
SWIDTH 960 0
DWIDTH 9 0
BBX 6 7 2 -1
BITMAP
FC
44
44
44
48
88
18
ENDCHAR

STARTCHAR 5203
ENCODING 20995
SWIDTH 960 0
DWIDTH 9 0
BBX 5 7 2 -1
BITMAP
78
28
C8
C8
48
88
10
ENDCHAR

STARTCHAR 5206
ENCODING 20998
SWIDTH 960 0
DWIDTH 9 0
BBX 9 7 0 -1
BITMAP
0C00
0400
6200
BD80
1400
1400
2400
ENDCHAR

STARTCHAR 5207
ENCODING 20999
SWIDTH 960 0
DWIDTH 9 0
BBX 7 7 1 -1
BITMAP
5E
4A
6A
CA
5A
2A
12
ENDCHAR

STARTCHAR 5208
ENCODING 21000
SWIDTH 960 0
DWIDTH 9 0
BBX 7 6 1 0
BITMAP
AA
6A
2A
62
92
02
ENDCHAR

STARTCHAR 520A
ENCODING 21002
SWIDTH 960 0
DWIDTH 9 0
BBX 7 7 1 -1
BITMAP
F0
4A
4A
6A
42
42
02
ENDCHAR

STARTCHAR 520E
ENCODING 21006
SWIDTH 960 0
DWIDTH 9 0
BBX 7 7 1 -1
BITMAP
44
B6
F6
76
B6
56
12
ENDCHAR

STARTCHAR 5211
ENCODING 21009
SWIDTH 960 0
DWIDTH 9 0
BBX 7 7 1 -1
BITMAP
F0
6A
6A
7A
6A
A2
02
ENDCHAR

STARTCHAR 5217
ENCODING 21015
SWIDTH 960 0
DWIDTH 9 0
BBX 7 7 1 -1
BITMAP
60
4A
7A
9A
2A
22
C2
ENDCHAR

STARTCHAR 521D
ENCODING 21021
SWIDTH 960 0
DWIDTH 9 0
BBX 7 7 1 -1
BITMAP
4E
EA
4A
CA
6A
4A
52
ENDCHAR

STARTCHAR 5224
ENCODING 21028
SWIDTH 960 0
DWIDTH 9 0
BBX 7 7 1 -1
BITMAP
14
C6
F6
46
E6
42
42
ENDCHAR

STARTCHAR 5225
ENCODING 21029
SWIDTH 960 0
DWIDTH 9 0
BBX 7 7 1 -1
BITMAP
F0
9A
FA
3A
52
92
22
ENDCHAR

STARTCHAR 5229
ENCODING 21033
SWIDTH 960 0
DWIDTH 9 0
BBX 7 7 1 -1
BITMAP
60
4A
6A
6A
D2
42
02
ENDCHAR

STARTCHAR 522A
ENCODING 21034
SWIDTH 960 0
DWIDTH 9 0
BBX 7 7 1 -1
BITMAP
F4
F6
F6
F6
F6
F2
92
ENDCHAR

STARTCHAR 522E
ENCODING 21038
SWIDTH 960 0
DWIDTH 9 0
BBX 7 7 1 -1
BITMAP
E2
4A
6A
4A
B2
92
F2
ENDCHAR

STARTCHAR 5230
ENCODING 21040
SWIDTH 960 0
DWIDTH 9 0
BBX 7 7 1 -1
BITMAP
F4
46
F6
06
F6
46
B2
ENDCHAR

STARTCHAR 5236
ENCODING 21046
SWIDTH 960 0
DWIDTH 9 0
BBX 7 7 1 -1
BITMAP
26
E6
FE
26
F6
B6
B2
ENDCHAR

STARTCHAR 5237
ENCODING 21047
SWIDTH 960 0
DWIDTH 9 0
BBX 7 7 1 0
BITMAP
F6
F6
A6
FE
EE
EE
22
ENDCHAR

STARTCHAR 5238
ENCODING 21048
SWIDTH 960 0
DWIDTH 9 0
BBX 7 7 1 -1
BITMAP
54
FC
28
5C
BE
28
48
ENDCHAR

STARTCHAR 5239
ENCODING 21049
SWIDTH 960 0
DWIDTH 9 0
BBX 7 7 1 0
BITMAP
64
56
36
F6
26
F2
22
ENDCHAR

STARTCHAR 523A
ENCODING 21050
SWIDTH 960 0
DWIDTH 9 0
BBX 7 7 1 0
BITMAP
40
66
F6
C6
76
D6
02
ENDCHAR

STARTCHAR 523B
ENCODING 21051
SWIDTH 960 0
DWIDTH 9 0
BBX 7 6 1 0
BITMAP
FA
CA
6A
52
22
DA
ENDCHAR

STARTCHAR 5243
ENCODING 21059
SWIDTH 960 0
DWIDTH 9 0
BBX 7 7 1 -1
BITMAP
42
3A
FA
FA
32
F2
22
ENDCHAR

STARTCHAR 5247
ENCODING 21063
SWIDTH 960 0
DWIDTH 9 0
BBX 7 7 1 -1
BITMAP
F4
F6
96
F6
F6
42
92
ENDCHAR

STARTCHAR 524A
ENCODING 21066
SWIDTH 960 0
DWIDTH 9 0
BBX 7 7 1 -1
BITMAP
14
CE
F6
F6
96
F6
B2
ENDCHAR

STARTCHAR 524B
ENCODING 21067
SWIDTH 960 0
DWIDTH 9 0
BBX 7 7 1 -1
BITMAP
02
6A
FA
9A
62
A2
BE
ENDCHAR

STARTCHAR 524C
ENCODING 21068
SWIDTH 960 0
DWIDTH 9 0
BBX 7 7 1 -1
BITMAP
F6
26
F6
76
26
F2
22
ENDCHAR

STARTCHAR 524D
ENCODING 21069
SWIDTH 960 0
DWIDTH 9 0
BBX 7 7 1 -1
BITMAP
28
FE
E8
AC
EC
EC
A4
ENDCHAR

STARTCHAR 5254
ENCODING 21076
SWIDTH 960 0
DWIDTH 9 0
BBX 7 7 1 -1
BITMAP
F0
FA
7A
7A
F2
D2
22
ENDCHAR

STARTCHAR 5256
ENCODING 21078
SWIDTH 960 0
DWIDTH 9 0
BBX 7 7 1 -1
BITMAP
02
EA
6A
0A
72
92
72
ENDCHAR

STARTCHAR 525B
ENCODING 21083
SWIDTH 960 0
DWIDTH 9 0
BBX 7 7 1 -1
BITMAP
F0
D6
F6
D6
F6
92
12
ENDCHAR

STARTCHAR 525D
ENCODING 21085
SWIDTH 960 0
DWIDTH 9 0
BBX 7 7 1 -1
BITMAP
74
66
26
76
36
B6
22
ENDCHAR

STARTCHAR 5261
ENCODING 21089
SWIDTH 960 0
DWIDTH 9 0
BBX 7 7 1 -1
BITMAP
90
4A
AA
1A
DA
62
92
ENDCHAR

STARTCHAR 5269
ENCODING 21097
SWIDTH 960 0
DWIDTH 9 0
BBX 7 7 1 -1
BITMAP
F4
FE
36
36
26
72
A2
ENDCHAR

STARTCHAR 526A
ENCODING 21098
SWIDTH 960 0
DWIDTH 9 0
BBX 7 7 1 0
BITMAP
08
74
EA
AA
00
7E
64
ENDCHAR

STARTCHAR 526F
ENCODING 21103
SWIDTH 960 0
DWIDTH 9 0
BBX 7 7 1 -1
BITMAP
60
F6
F6
06
F6
F2
F2
ENDCHAR

STARTCHAR 5272
ENCODING 21106
SWIDTH 960 0
DWIDTH 9 0
BBX 7 8 1 -1
BITMAP
20
FC
3E
26
26
76
D2
F2
ENDCHAR

STARTCHAR 5275
ENCODING 21109
SWIDTH 960 0
DWIDTH 9 0
BBX 7 8 1 -1
BITMAP
20
54
EE
76
76
76
F6
F2
ENDCHAR

STARTCHAR 527D
ENCODING 21117
SWIDTH 960 0
DWIDTH 9 0
BBX 7 7 1 -1
BITMAP
76
FE
EE
F6
FE
22
A2
ENDCHAR

STARTCHAR 527F
ENCODING 21119
SWIDTH 960 0
DWIDTH 9 0
BBX 7 7 1 -1
BITMAP
84
C6
F6
F6
46
62
12
ENDCHAR

STARTCHAR 5283
ENCODING 21123
SWIDTH 960 0
DWIDTH 9 0
BBX 7 8 1 -1
BITMAP
20
70
76
F6
FE
B6
F2
F0
ENDCHAR

STARTCHAR 5287
ENCODING 21127
SWIDTH 960 0
DWIDTH 9 0
BBX 7 7 1 0
BITMAP
36
FE
E6
FE
E6
D2
7A
ENDCHAR

STARTCHAR 5288
ENCODING 21128
SWIDTH 960 0
DWIDTH 9 0
BBX 7 7 1 -1
BITMAP
EE
CC
E4
64
00
7C
44
ENDCHAR

STARTCHAR 5289
ENCODING 21129
SWIDTH 960 0
DWIDTH 9 0
BBX 7 7 1 -1
BITMAP
B2
C6
26
56
A6
36
32
ENDCHAR

STARTCHAR 528D
ENCODING 21133
SWIDTH 960 0
DWIDTH 9 0
BBX 7 7 1 -1
BITMAP
64
9E
26
FE
16
52
AA
ENDCHAR

STARTCHAR 5291
ENCODING 21137
SWIDTH 960 0
DWIDTH 9 0
BBX 7 7 1 -1
BITMAP
FC
EE
BE
6E
DE
FE
8A
ENDCHAR

STARTCHAR 5292
ENCODING 21138
SWIDTH 960 0
DWIDTH 9 0
BBX 7 7 1 -1
BITMAP
46
B6
0E
FE
06
AA
CA
ENDCHAR

STARTCHAR 529B
ENCODING 21147
SWIDTH 960 0
DWIDTH 9 0
BBX 7 7 1 -1
BITMAP
10
FE
12
22
22
42
8C
ENDCHAR

STARTCHAR 529F
ENCODING 21151
SWIDTH 960 0
DWIDTH 9 0
BBX 7 6 1 0
BITMAP
48
4E
4A
6A
92
22
ENDCHAR

STARTCHAR 52A0
ENCODING 21152
SWIDTH 960 0
DWIDTH 9 0
BBX 7 6 1 0
BITMAP
FE
5A
5A
5A
96
A0
ENDCHAR

STARTCHAR 52A3
ENCODING 21155
SWIDTH 960 0
DWIDTH 9 0
BBX 7 7 1 0
BITMAP
54
92
18
F0
3C
24
44
ENDCHAR

STARTCHAR 52A4
ENCODING 21156
SWIDTH 960 0
DWIDTH 9 0
BBX 7 7 1 -1
BITMAP
C4
8E
E6
C6
C6
CA
8A
ENDCHAR

STARTCHAR 52A9
ENCODING 21161
SWIDTH 960 0
DWIDTH 9 0
BBX 7 7 1 -1
BITMAP
E4
AE
EA
EA
AA
CA
16
ENDCHAR

STARTCHAR 52AA
ENCODING 21162
SWIDTH 960 0
DWIDTH 9 0
BBX 7 7 1 -1
BITMAP
1C
EC
EC
82
FC
24
44
ENDCHAR

STARTCHAR 52AB
ENCODING 21163
SWIDTH 960 0
DWIDTH 9 0
BBX 7 7 1 0
BITMAP
44
EE
46
6A
AA
BA
56
ENDCHAR

STARTCHAR 52BE
ENCODING 21182
SWIDTH 960 0
DWIDTH 9 0
BBX 7 7 1 -1
BITMAP
44
6E
A6
46
AA
2A
D6
ENDCHAR

STARTCHAR 52C1
ENCODING 21185
SWIDTH 960 0
DWIDTH 9 0
BBX 7 7 1 -1
BITMAP
F4
CE
EA
0A
4A
4A
B6
ENDCHAR

STARTCHAR 52C3
ENCODING 21187
SWIDTH 960 0
DWIDTH 9 0
BBX 6 7 2 -1
BITMAP
08
C8
4C
4C
B4
D4
AC
ENDCHAR

STARTCHAR 52C5
ENCODING 21189
SWIDTH 960 0
DWIDTH 9 0
BBX 7 7 1 -1
BITMAP
F4
4E
F6
F6
66
DA
12
ENDCHAR

STARTCHAR 52C7
ENCODING 21191
SWIDTH 960 0
DWIDTH 9 0
BBX 6 7 2 -1
BITMAP
78
F8
F8
F8
20
DC
C8
ENDCHAR

STARTCHAR 52C9
ENCODING 21193
SWIDTH 960 0
DWIDTH 9 0
BBX 7 7 1 0
BITMAP
64
AE
DA
DA
2A
74
BE
ENDCHAR

STARTCHAR 52CD
ENCODING 21197
SWIDTH 960 0
DWIDTH 9 0
BBX 7 7 1 -1
BITMAP
04
76
F6
F6
56
D6
4A
ENDCHAR

STARTCHAR 52D2
ENCODING 21202
SWIDTH 960 0
DWIDTH 9 0
BBX 7 7 1 -1
BITMAP
F4
AE
46
FA
6A
6A
12
ENDCHAR

STARTCHAR 52D5
ENCODING 21205
SWIDTH 960 0
DWIDTH 9 0
BBX 7 7 1 -1
BITMAP
E4
64
F6
F6
6A
6A
B6
ENDCHAR

STARTCHAR 52D6
ENCODING 21206
SWIDTH 960 0
DWIDTH 9 0
BBX 7 7 1 -1
BITMAP
7C
7C
38
EE
EA
EA
52
ENDCHAR

STARTCHAR 52D8
ENCODING 21208
SWIDTH 960 0
DWIDTH 9 0
BBX 7 7 1 -1
BITMAP
24
EE
66
F6
A6
CA
EA
ENDCHAR

STARTCHAR 52D9
ENCODING 21209
SWIDTH 960 0
DWIDTH 9 0
BBX 7 8 1 -1
BITMAP
08
6E
5C
E4
6E
DE
4A
52
ENDCHAR

STARTCHAR 52DB
ENCODING 21211
SWIDTH 960 0
DWIDTH 9 0
BBX 7 7 1 -1
BITMAP
E4
EE
F6
F6
F6
FA
8A
ENDCHAR

STARTCHAR 52DD
ENCODING 21213
SWIDTH 960 0
DWIDTH 9 0
BBX 8 7 0 -1
BITMAP
69
64
66
6A
6F
A6
2A
ENDCHAR

STARTCHAR 52DE
ENCODING 21214
SWIDTH 960 0
DWIDTH 9 0
BBX 7 7 1 -1
BITMAP
C2
44
28
FE
7C
24
44
ENDCHAR

STARTCHAR 52DF
ENCODING 21215
SWIDTH 960 0
DWIDTH 9 0
BBX 7 8 1 -2
BITMAP
FE
7C
7C
20
5C
BE
20
48
ENDCHAR

STARTCHAR 52E2
ENCODING 21218
SWIDTH 960 0
DWIDTH 9 0
BBX 9 8 0 -1
BITMAP
2000
2700
5600
A600
2180
4000
3E00
2200
ENDCHAR

STARTCHAR 52E3
ENCODING 21219
SWIDTH 960 0
DWIDTH 9 0
BBX 7 7 1 -1
BITMAP
F4
4E
26
E6
E6
EA
AA
ENDCHAR

STARTCHAR 52E4
ENCODING 21220
SWIDTH 960 0
DWIDTH 9 0
BBX 7 7 1 -1
BITMAP
F4
64
F6
F6
F6
FA
EA
ENDCHAR

STARTCHAR 52F3
ENCODING 21235
SWIDTH 960 0
DWIDTH 9 0
BBX 7 7 1 -1
BITMAP
64
64
F6
F6
FA
8A
7E
ENDCHAR

STARTCHAR 52F5
ENCODING 21237
SWIDTH 960 0
DWIDTH 9 0
BBX 7 7 1 -1
BITMAP
F4
B4
F6
F6
F6
B6
12
ENDCHAR

STARTCHAR 52F8
ENCODING 21240
SWIDTH 960 0
DWIDTH 9 0
BBX 7 7 1 -1
BITMAP
FC
F6
F6
76
F6
7A
7A
ENDCHAR

STARTCHAR 52FA
ENCODING 21242
SWIDTH 960 0
DWIDTH 9 0
BBX 7 7 1 -1
BITMAP
40
7E
82
02
32
02
04
ENDCHAR

STARTCHAR 52FB
ENCODING 21243
SWIDTH 960 0
DWIDTH 9 0
BBX 7 7 1 -1
BITMAP
40
7E
82
12
0A
32
04
ENDCHAR

STARTCHAR 52FE
ENCODING 21246
SWIDTH 960 0
DWIDTH 9 0
BBX 7 7 1 -1
BITMAP
40
BE
A2
22
4A
7A
02
ENDCHAR

STARTCHAR 52FF
ENCODING 21247
SWIDTH 960 0
DWIDTH 9 0
BBX 7 7 1 -1
BITMAP
40
7E
9A
2A
4A
12
24
ENDCHAR

STARTCHAR 5305
ENCODING 21253
SWIDTH 960 0
DWIDTH 9 0
BBX 7 7 1 -1
BITMAP
40
7C
F4
54
74
40
7E
ENDCHAR

STARTCHAR 5308
ENCODING 21256
SWIDTH 960 0
DWIDTH 9 0
BBX 7 7 1 0
BITMAP
40
BE
C2
5A
6A
7A
02
ENDCHAR

STARTCHAR 530D
ENCODING 21261
SWIDTH 960 0
DWIDTH 9 0
BBX 7 7 1 -1
BITMAP
40
BE
FE
7A
7A
7A
5A
ENDCHAR

STARTCHAR 530F
ENCODING 21263
SWIDTH 960 0
DWIDTH 9 0
BBX 7 7 1 -1
BITMAP
48
B6
8E
16
5A
30
2E
ENDCHAR

STARTCHAR 5310
ENCODING 21264
SWIDTH 960 0
DWIDTH 9 0
BBX 7 7 1 -1
BITMAP
40
BE
B2
7A
7A
7A
7A
ENDCHAR

STARTCHAR 5315
ENCODING 21269
SWIDTH 960 0
DWIDTH 9 0
BBX 5 7 2 -1
BITMAP
80
80
B0
C0
80
80
F8
ENDCHAR

STARTCHAR 5316
ENCODING 21270
SWIDTH 960 0
DWIDTH 9 0
BBX 8 7 1 -1
BITMAP
40
50
D6
58
50
51
4E
ENDCHAR

STARTCHAR 5317
ENCODING 21271
SWIDTH 960 0
DWIDTH 9 0
BBX 7 7 1 -1
BITMAP
28
2A
6C
28
28
E8
2E
ENDCHAR

STARTCHAR 5319
ENCODING 21273
SWIDTH 960 0
DWIDTH 9 0
BBX 7 7 1 -1
BITMAP
E8
E8
EC
F8
38
C4
3E
ENDCHAR

STARTCHAR 5320
ENCODING 21280
SWIDTH 960 0
DWIDTH 9 0
BBX 7 7 1 -1
BITMAP
FC
9C
E0
F8
88
C8
FE
ENDCHAR

STARTCHAR 5321
ENCODING 21281
SWIDTH 960 0
DWIDTH 9 0
BBX 7 7 1 -1
BITMAP
FC
FC
90
BC
80
B8
FE
ENDCHAR

STARTCHAR 5323
ENCODING 21283
SWIDTH 960 0
DWIDTH 9 0
BBX 7 7 1 -1
BITMAP
FC
FC
D4
FC
B8
80
FE
ENDCHAR

STARTCHAR 532A
ENCODING 21290
SWIDTH 960 0
DWIDTH 9 0
BBX 7 7 1 -1
BITMAP
FC
E8
AC
AC
AE
C8
FE
ENDCHAR

STARTCHAR 532F
ENCODING 21295
SWIDTH 960 0
DWIDTH 9 0
BBX 7 7 1 -1
BITMAP
FC
98
FC
9C
DC
9E
FE
ENDCHAR

STARTCHAR 5339
ENCODING 21305
SWIDTH 960 0
DWIDTH 9 0
BBX 6 7 1 -1
BITMAP
FC
A8
A8
A8
C4
80
FC
ENDCHAR

STARTCHAR 533F
ENCODING 21311
SWIDTH 960 0
DWIDTH 9 0
BBX 7 7 1 -1
BITMAP
FC
FC
90
AC
FC
9C
FE
ENDCHAR

STARTCHAR 5340
ENCODING 21312
SWIDTH 960 0
DWIDTH 9 0
BBX 7 7 1 -1
BITMAP
FC
BC
BC
BC
DC
B8
FE
ENDCHAR

STARTCHAR 5341
ENCODING 21313
SWIDTH 960 0
DWIDTH 9 0
BBX 5 7 2 -1
BITMAP
20
20
20
F8
20
20
20
ENDCHAR

STARTCHAR 5343
ENCODING 21315
SWIDTH 960 0
DWIDTH 9 0
BBX 5 7 2 -1
BITMAP
38
60
20
F8
20
20
20
ENDCHAR

STARTCHAR 5344
ENCODING 21316
SWIDTH 960 0
DWIDTH 9 0
BBX 7 3 1 1
BITMAP
28
FE
28
ENDCHAR

STARTCHAR 5347
ENCODING 21319
SWIDTH 960 0
DWIDTH 9 0
BBX 6 7 1 -1
BITMAP
E0
28
28
7C
48
48
80
ENDCHAR

STARTCHAR 5348
ENCODING 21320
SWIDTH 960 0
DWIDTH 9 0
BBX 7 7 1 0
BITMAP
40
BC
10
FE
10
10
10
ENDCHAR

STARTCHAR 5349
ENCODING 21321
SWIDTH 960 0
DWIDTH 9 0
BBX 7 7 1 -1
BITMAP
10
7C
14
44
46
44
84
ENDCHAR

STARTCHAR 534A
ENCODING 21322
SWIDTH 960 0
DWIDTH 9 0
BBX 7 7 1 -1
BITMAP
10
D6
7C
10
7C
10
10
ENDCHAR

STARTCHAR 534D
ENCODING 21325
SWIDTH 960 0
DWIDTH 9 0
BBX 7 7 1 -1
BITMAP
72
12
12
FE
90
90
9E
ENDCHAR

STARTCHAR 5351
ENCODING 21329
SWIDTH 960 0
DWIDTH 9 0
BBX 7 8 1 -1
BITMAP
10
7C
94
FC
7C
28
FE
08
ENDCHAR

STARTCHAR 5352
ENCODING 21330
SWIDTH 960 0
DWIDTH 9 0
BBX 6 8 1 -1
BITMAP
10
10
6C
4C
90
10
7C
10
ENDCHAR

STARTCHAR 5353
ENCODING 21331
SWIDTH 960 0
DWIDTH 9 0
BBX 7 7 1 0
BITMAP
1E
7C
84
FC
78
7C
10
ENDCHAR

STARTCHAR 5354
ENCODING 21332
SWIDTH 960 0
DWIDTH 9 0
BBX 7 7 1 0
BITMAP
08
8E
D6
80
B6
B6
3A
ENDCHAR

STARTCHAR 5357
ENCODING 21335
SWIDTH 960 0
DWIDTH 9 0
BBX 7 7 1 -1
BITMAP
10
7C
EE
AA
92
BA
96
ENDCHAR

STARTCHAR 535A
ENCODING 21338
SWIDTH 960 0
DWIDTH 9 0
BBX 7 7 1 0
BITMAP
88
DC
BE
BE
94
9C
04
ENDCHAR

STARTCHAR 535C
ENCODING 21340
SWIDTH 960 0
DWIDTH 9 0
BBX 3 6 3 0
BITMAP
80
80
80
C0
A0
80
ENDCHAR

STARTCHAR 535E
ENCODING 21342
SWIDTH 960 0
DWIDTH 9 0
BBX 7 7 1 -1
BITMAP
10
FE
10
18
14
10
10
ENDCHAR

STARTCHAR 5360
ENCODING 21344
SWIDTH 960 0
DWIDTH 9 0
BBX 7 7 1 0
BITMAP
10
1E
10
10
EC
84
FC
ENDCHAR

STARTCHAR 5366
ENCODING 21350
SWIDTH 960 0
DWIDTH 9 0
BBX 7 6 1 0
BITMAP
68
F8
0C
FA
48
E0
ENDCHAR

STARTCHAR 5368
ENCODING 21352
SWIDTH 960 0
DWIDTH 9 0
BBX 7 7 1 -1
BITMAP
1C
7C
9C
94
FA
CA
B2
ENDCHAR

STARTCHAR 536F
ENCODING 21359
SWIDTH 960 0
DWIDTH 9 0
BBX 7 7 1 -1
BITMAP
6A
8A
AA
AA
EA
2A
C0
ENDCHAR

STARTCHAR 5370
ENCODING 21360
SWIDTH 960 0
DWIDTH 9 0
BBX 7 6 1 -1
BITMAP
CE
92
F2
92
92
D6
ENDCHAR

STARTCHAR 5371
ENCODING 21361
SWIDTH 960 0
DWIDTH 9 0
BBX 7 7 1 0
BITMAP
78
10
EC
BC
A4
A0
BE
ENDCHAR

STARTCHAR 5374
ENCODING 21364
SWIDTH 960 0
DWIDTH 9 0
BBX 7 7 1 -1
BITMAP
0A
FA
4A
FA
4A
9A
60
ENDCHAR

STARTCHAR 5375
ENCODING 21365
SWIDTH 960 0
DWIDTH 9 0
BBX 7 7 1 -1
BITMAP
EE
AA
EA
AA
AA
6A
48
ENDCHAR

STARTCHAR 5377
ENCODING 21367
SWIDTH 960 0
DWIDTH 9 0
BBX 7 7 1 -1
BITMAP
54
20
38
5C
7C
AA
3C
ENDCHAR

STARTCHAR 537D
ENCODING 21373
SWIDTH 960 0
DWIDTH 9 0
BBX 7 7 1 0
BITMAP
46
AA
EA
EA
AA
DA
E0
ENDCHAR

STARTCHAR 537F
ENCODING 21375
SWIDTH 960 0
DWIDTH 9 0
BBX 7 7 1 -1
BITMAP
FE
EE
FE
FE
EE
7E
94
ENDCHAR

STARTCHAR 5384
ENCODING 21380
SWIDTH 960 0
DWIDTH 9 0
BBX 7 7 1 -1
BITMAP
7E
80
BC
A4
A4
A0
1E
ENDCHAR

STARTCHAR 5393
ENCODING 21395
SWIDTH 960 0
DWIDTH 9 0
BBX 7 7 1 -1
BITMAP
FC
BE
88
B4
88
9C
FE
ENDCHAR

STARTCHAR 5398
ENCODING 21400
SWIDTH 960 0
DWIDTH 9 0
BBX 7 7 1 -1
BITMAP
7C
BC
AC
BC
98
BC
7E
ENDCHAR

STARTCHAR 539A
ENCODING 21402
SWIDTH 960 0
DWIDTH 9 0
BBX 8 7 1 -1
BITMAP
7C
BC
BC
98
9C
FF
08
ENDCHAR

STARTCHAR 539F
ENCODING 21407
SWIDTH 960 0
DWIDTH 9 0
BBX 7 7 1 -1
BITMAP
FC
90
AE
BE
9E
A8
4A
ENDCHAR

STARTCHAR 53A0
ENCODING 21408
SWIDTH 960 0
DWIDTH 9 0
BBX 7 7 1 -1
BITMAP
7C
B4
B6
D6
F6
B2
0A
ENDCHAR

STARTCHAR 53A5
ENCODING 21413
SWIDTH 960 0
DWIDTH 9 0
BBX 8 7 0 -1
BITMAP
7E
40
57
7A
72
55
A5
ENDCHAR

STARTCHAR 53A6
ENCODING 21414
SWIDTH 960 0
DWIDTH 9 0
BBX 7 7 1 -1
BITMAP
7C
BC
BE
C2
BC
BC
3E
ENDCHAR

STARTCHAR 53AD
ENCODING 21421
SWIDTH 960 0
DWIDTH 9 0
BBX 8 7 0 -1
BITMAP
7E
7B
7A
7F
7A
BE
2D
ENDCHAR

STARTCHAR 53BB
ENCODING 21435
SWIDTH 960 0
DWIDTH 9 0
BBX 7 7 1 -1
BITMAP
10
7C
10
FE
20
24
FA
ENDCHAR

STARTCHAR 53C3
ENCODING 21443
SWIDTH 960 0
DWIDTH 9 0
BBX 7 7 1 0
BITMAP
6C
70
FE
28
FE
14
38
ENDCHAR

STARTCHAR 53C8
ENCODING 21448
SWIDTH 960 0
DWIDTH 9 0
BBX 7 7 1 -1
BITMAP
FC
48
48
28
10
28
C6
ENDCHAR

STARTCHAR 53C9
ENCODING 21449
SWIDTH 960 0
DWIDTH 9 0
BBX 7 7 1 -1
BITMAP
F8
08
48
30
10
28
C6
ENDCHAR

STARTCHAR 53CA
ENCODING 21450
SWIDTH 960 0
DWIDTH 9 0
BBX 7 7 1 -1
BITMAP
3C
28
3C
64
54
88
B6
ENDCHAR

STARTCHAR 53CB
ENCODING 21451
SWIDTH 960 0
DWIDTH 9 0
BBX 7 6 1 0
BITMAP
7C
20
3C
58
88
76
ENDCHAR

STARTCHAR 53CD
ENCODING 21453
SWIDTH 960 0
DWIDTH 9 0
BBX 7 7 1 -1
BITMAP
7E
80
FC
A4
98
88
36
ENDCHAR

STARTCHAR 53D4
ENCODING 21460
SWIDTH 960 0
DWIDTH 9 0
BBX 7 7 1 -1
BITMAP
0E
62
4A
6A
D4
CC
42
ENDCHAR

STARTCHAR 53D6
ENCODING 21462
SWIDTH 960 0
DWIDTH 9 0
BBX 7 7 1 -1
BITMAP
E0
A6
E2
6C
A4
6C
82
ENDCHAR

STARTCHAR 53D7
ENCODING 21463
SWIDTH 960 0
DWIDTH 9 0
BBX 7 8 1 -1
BITMAP
04
FC
92
FE
82
38
10
6E
ENDCHAR

STARTCHAR 53DB
ENCODING 21467
SWIDTH 960 0
DWIDTH 9 0
BBX 7 7 1 0
BITMAP
EE
50
EE
5A
5C
94
8A
ENDCHAR

STARTCHAR 53E1
ENCODING 21473
SWIDTH 960 0
DWIDTH 9 0
BBX 7 7 1 0
BITMAP
66
A2
1A
6A
B4
E4
6A
ENDCHAR

STARTCHAR 53E2
ENCODING 21474
SWIDTH 960 0
DWIDTH 9 0
BBX 7 8 1 -1
BITMAP
20
FE
28
54
FE
6C
6C
EE
ENDCHAR

STARTCHAR 53E3
ENCODING 21475
SWIDTH 960 0
DWIDTH 9 0
BBX 5 5 2 0
BITMAP
F8
88
88
88
78
ENDCHAR

STARTCHAR 53E4
ENCODING 21476
SWIDTH 960 0
DWIDTH 9 0
BBX 7 7 1 -1
BITMAP
10
FE
10
10
6C
44
7C
ENDCHAR

STARTCHAR 53E5
ENCODING 21477
SWIDTH 960 0
DWIDTH 9 0
BBX 7 7 1 -1
BITMAP
40
7E
82
7A
4A
3A
06
ENDCHAR

STARTCHAR 53E9
ENCODING 21481
SWIDTH 960 0
DWIDTH 9 0
BBX 7 6 1 -1
BITMAP
F6
B2
B2
B2
72
12
ENDCHAR

STARTCHAR 53EA
ENCODING 21482
SWIDTH 960 0
DWIDTH 9 0
BBX 7 7 1 -1
BITMAP
7C
44
44
7C
00
44
82
ENDCHAR

STARTCHAR 53EB
ENCODING 21483
SWIDTH 960 0
DWIDTH 9 0
BBX 6 8 1 -1
BITMAP
04
D4
D4
D4
D4
1C
24
04
ENDCHAR

STARTCHAR 53EC
ENCODING 21484
SWIDTH 960 0
DWIDTH 9 0
BBX 7 7 1 -1
BITMAP
7E
22
46
80
7E
42
3E
ENDCHAR

STARTCHAR 53ED
ENCODING 21485
SWIDTH 960 0
DWIDTH 9 0
BBX 7 7 1 -1
BITMAP
D8
C8
D8
E8
24
44
02
ENDCHAR

STARTCHAR 53EF
ENCODING 21487
SWIDTH 960 0
DWIDTH 9 0
BBX 7 7 1 -1
BITMAP
FE
04
74
14
74
04
04
ENDCHAR

STARTCHAR 53F0
ENCODING 21488
SWIDTH 960 0
DWIDTH 9 0
BBX 7 7 1 0
BITMAP
20
44
FA
00
FC
04
7C
ENDCHAR

STARTCHAR 53F1
ENCODING 21489
SWIDTH 960 0
DWIDTH 9 0
BBX 7 7 1 -1
BITMAP
10
D4
D4
D8
50
70
1E
ENDCHAR

STARTCHAR 53F2
ENCODING 21490
SWIDTH 960 0
DWIDTH 9 0
BBX 7 7 1 -1
BITMAP
10
FC
94
78
70
20
DE
ENDCHAR

STARTCHAR 53F3
ENCODING 21491
SWIDTH 960 0
DWIDTH 9 0
BBX 7 7 1 -1
BITMAP
20
FE
20
3E
62
A2
3E
ENDCHAR

STARTCHAR 53F8
ENCODING 21496
SWIDTH 960 0
DWIDTH 9 0
BBX 7 7 1 -1
BITMAP
FE
02
7A
7A
4A
7A
02
ENDCHAR

STARTCHAR 5403
ENCODING 21507
SWIDTH 960 0
DWIDTH 9 0
BBX 7 7 1 -1
BITMAP
D0
EC
C0
D8
50
20
3E
ENDCHAR

STARTCHAR 5404
ENCODING 21508
SWIDTH 960 0
DWIDTH 9 0
BBX 7 7 1 -1
BITMAP
3C
68
10
6C
FE
44
3C
ENDCHAR

STARTCHAR 5408
ENCODING 21512
SWIDTH 960 0
DWIDTH 9 0
BBX 7 7 1 -1
BITMAP
10
68
86
30
7C
44
7C
ENDCHAR

STARTCHAR 5409
ENCODING 21513
SWIDTH 960 0
DWIDTH 9 0
BBX 7 7 1 -1
BITMAP
10
FE
10
6C
7C
44
7C
ENDCHAR

STARTCHAR 540A
ENCODING 21514
SWIDTH 960 0
DWIDTH 9 0
BBX 7 7 1 -1
BITMAP
7C
44
38
FE
92
92
94
ENDCHAR

STARTCHAR 540C
ENCODING 21516
SWIDTH 960 0
DWIDTH 9 0
BBX 7 7 1 -1
BITMAP
FE
FA
82
FA
CA
B2
86
ENDCHAR

STARTCHAR 540D
ENCODING 21517
SWIDTH 960 0
DWIDTH 9 0
BBX 7 7 1 -1
BITMAP
10
6C
28
30
FE
22
3E
ENDCHAR

STARTCHAR 540E
ENCODING 21518
SWIDTH 960 0
DWIDTH 9 0
BBX 7 7 1 -1
BITMAP
7C
80
FC
80
BE
A2
3E
ENDCHAR

STARTCHAR 540F
ENCODING 21519
SWIDTH 960 0
DWIDTH 9 0
BBX 7 7 1 -1
BITMAP
10
7C
FC
94
78
20
DE
ENDCHAR

STARTCHAR 5410
ENCODING 21520
SWIDTH 960 0
DWIDTH 9 0
BBX 7 7 1 -1
BITMAP
08
C8
DE
C8
48
08
3E
ENDCHAR

STARTCHAR 5411
ENCODING 21521
SWIDTH 960 0
DWIDTH 9 0
BBX 7 8 1 -1
BITMAP
10
20
DE
82
FA
CA
BA
82
ENDCHAR

STARTCHAR 541B
ENCODING 21531
SWIDTH 960 0
DWIDTH 9 0
BBX 7 7 1 -1
BITMAP
3C
24
7E
7C
3E
C2
3E
ENDCHAR

STARTCHAR 541D
ENCODING 21533
SWIDTH 960 0
DWIDTH 9 0
BBX 6 7 2 -1
BITMAP
20
D8
60
50
FC
88
F8
ENDCHAR

STARTCHAR 541F
ENCODING 21535
SWIDTH 960 0
DWIDTH 9 0
BBX 7 7 1 -1
BITMAP
C8
D4
E2
C8
7C
04
08
ENDCHAR

STARTCHAR 5420
ENCODING 21536
SWIDTH 960 0
DWIDTH 9 0
BBX 8 7 0 -1
BITMAP
04
E4
AE
A4
EC
0A
11
ENDCHAR

STARTCHAR 5426
ENCODING 21542
SWIDTH 960 0
DWIDTH 9 0
BBX 7 7 1 -1
BITMAP
7C
10
74
92
7C
84
7C
ENDCHAR

STARTCHAR 5429
ENCODING 21545
SWIDTH 960 0
DWIDTH 9 0
BBX 7 7 1 -1
BITMAP
08
D4
E2
DC
14
14
24
ENDCHAR

STARTCHAR 542B
ENCODING 21547
SWIDTH 960 0
DWIDTH 9 0
BBX 6 8 2 -1
BITMAP
20
60
98
24
70
20
D8
F8
ENDCHAR

STARTCHAR 5433
ENCODING 21555
SWIDTH 960 0
DWIDTH 9 0
BBX 7 7 1 -1
BITMAP
3C
9C
80
3C
FE
30
4E
ENDCHAR

STARTCHAR 5438
ENCODING 21560
SWIDTH 960 0
DWIDTH 9 0
BBX 7 7 1 -1
BITMAP
DC
D4
D8
D4
6C
48
96
ENDCHAR

STARTCHAR 5439
ENCODING 21561
SWIDTH 960 0
DWIDTH 9 0
BBX 7 7 1 0
BITMAP
D0
DE
E4
D0
18
28
C6
ENDCHAR

STARTCHAR 543B
ENCODING 21563
SWIDTH 960 0
DWIDTH 9 0
BBX 7 7 1 0
BITMAP
D0
EE
EE
D6
DA
0A
12
ENDCHAR

STARTCHAR 543C
ENCODING 21564
SWIDTH 960 0
DWIDTH 9 0
BBX 7 7 1 -1
BITMAP
34
94
A4
94
94
14
16
ENDCHAR

STARTCHAR 543E
ENCODING 21566
SWIDTH 960 0
DWIDTH 9 0
BBX 7 7 1 -1
BITMAP
7C
7C
24
FE
00
7C
7C
ENDCHAR

STARTCHAR 5442
ENCODING 21570
SWIDTH 960 0
DWIDTH 9 0
BBX 7 7 1 -1
BITMAP
FC
84
7C
20
DE
82
FE
ENDCHAR

STARTCHAR 5448
ENCODING 21576
SWIDTH 960 0
DWIDTH 9 0
BBX 7 7 1 -1
BITMAP
7C
44
38
7C
10
38
FE
ENDCHAR

STARTCHAR 544A
ENCODING 21578
SWIDTH 960 0
DWIDTH 9 0
BBX 5 7 2 -1
BITMAP
A0
70
20
F8
F8
88
F8
ENDCHAR

STARTCHAR 5451
ENCODING 21585
SWIDTH 960 0
DWIDTH 9 0
BBX 7 7 1 -1
BITMAP
7C
20
7C
44
FE
44
7C
ENDCHAR

STARTCHAR 5468
ENCODING 21608
SWIDTH 960 0
DWIDTH 9 0
BBX 7 7 1 -1
BITMAP
7E
42
5A
4A
BA
AA
92
ENDCHAR

STARTCHAR 546A
ENCODING 21610
SWIDTH 960 0
DWIDTH 9 0
BBX 7 7 1 -1
BITMAP
FC
E4
E4
D8
58
28
4E
ENDCHAR

STARTCHAR 5471
ENCODING 21617
SWIDTH 960 0
DWIDTH 9 0
BBX 7 7 1 -1
BITMAP
0C
FC
F4
F4
F4
3E
42
ENDCHAR

STARTCHAR 5473
ENCODING 21619
SWIDTH 960 0
DWIDTH 9 0
BBX 7 7 1 -1
BITMAP
08
D8
48
5C
BC
4A
08
ENDCHAR

STARTCHAR 5475
ENCODING 21621
SWIDTH 960 0
DWIDTH 9 0
BBX 6 7 1 -1
BITMAP
DC
C4
FC
EC
5C
04
04
ENDCHAR

STARTCHAR 547B
ENCODING 21627
SWIDTH 960 0
DWIDTH 9 0
BBX 7 6 1 0
BITMAP
08
FE
EA
FE
2A
1C
ENDCHAR

STARTCHAR 547C
ENCODING 21628
SWIDTH 960 0
DWIDTH 9 0
BBX 7 7 1 -1
BITMAP
DC
C8
EC
FE
48
08
08
ENDCHAR

STARTCHAR 547D
ENCODING 21629
SWIDTH 960 0
DWIDTH 9 0
BBX 7 6 1 -1
BITMAP
30
4C
BA
00
F4
F4
ENDCHAR

STARTCHAR 5480
ENCODING 21632
SWIDTH 960 0
DWIDTH 9 0
BBX 7 7 1 -1
BITMAP
1C
D4
DC
D4
1C
14
3E
ENDCHAR

STARTCHAR 5486
ENCODING 21638
SWIDTH 960 0
DWIDTH 9 0
BBX 7 7 1 -1
BITMAP
D0
EE
FA
EA
72
20
3E
ENDCHAR

STARTCHAR 548C
ENCODING 21644
SWIDTH 960 0
DWIDTH 9 0
BBX 7 6 1 -1
BITMAP
E0
4E
6A
6A
DA
46
ENDCHAR

STARTCHAR 548E
ENCODING 21646
SWIDTH 960 0
DWIDTH 9 0
BBX 7 8 1 -1
BITMAP
40
70
EC
20
5E
FC
44
7C
ENDCHAR

STARTCHAR 5490
ENCODING 21648
SWIDTH 960 0
DWIDTH 9 0
BBX 7 7 1 -1
BITMAP
12
D2
E6
EA
E2
22
02
ENDCHAR

STARTCHAR 54A4
ENCODING 21668
SWIDTH 960 0
DWIDTH 9 0
BBX 7 7 1 -1
BITMAP
08
F6
EC
C8
DC
08
0C
ENDCHAR

STARTCHAR 54A8
ENCODING 21672
SWIDTH 960 0
DWIDTH 9 0
BBX 7 7 1 -1
BITMAP
D0
3C
98
24
FE
04
3C
ENDCHAR

STARTCHAR 54AB
ENCODING 21675
SWIDTH 960 0
DWIDTH 9 0
BBX 8 7 0 -1
BITMAP
77
55
35
67
51
54
8F
ENDCHAR

STARTCHAR 54AC
ENCODING 21676
SWIDTH 960 0
DWIDTH 9 0
BBX 7 7 1 -1
BITMAP
C8
D4
E4
D4
18
08
36
ENDCHAR

STARTCHAR 54B3
ENCODING 21683
SWIDTH 960 0
DWIDTH 9 0
BBX 7 7 1 -1
BITMAP
C8
DC
D0
DC
14
08
36
ENDCHAR

STARTCHAR 54B8
ENCODING 21688
SWIDTH 960 0
DWIDTH 9 0
BBX 8 6 0 0
BITMAP
7E
78
7E
6A
BC
8B
ENDCHAR

STARTCHAR 54BD
ENCODING 21693
SWIDTH 960 0
DWIDTH 9 0
BBX 7 7 1 -1
BITMAP
FE
EA
EA
EA
F6
22
3C
ENDCHAR

STARTCHAR 54C0
ENCODING 21696
SWIDTH 960 0
DWIDTH 9 0
BBX 7 7 1 0
BITMAP
10
6C
7C
7C
30
EC
36
ENDCHAR

STARTCHAR 54C1
ENCODING 21697
SWIDTH 960 0
DWIDTH 9 0
BBX 7 7 1 -1
BITMAP
78
48
70
00
FE
B2
6C
ENDCHAR

STARTCHAR 54C4
ENCODING 21700
SWIDTH 960 0
DWIDTH 9 0
BBX 7 7 1 -1
BITMAP
04
D4
DC
D4
3E
14
22
ENDCHAR

STARTCHAR 54C8
ENCODING 21704
SWIDTH 960 0
DWIDTH 9 0
BBX 7 7 1 -1
BITMAP
08
D4
E2
C8
5C
24
1C
ENDCHAR

STARTCHAR 54C9
ENCODING 21705
SWIDTH 960 0
DWIDTH 9 0
BBX 8 7 0 0
BITMAP
24
34
FF
04
76
72
4D
ENDCHAR

STARTCHAR 54E1
ENCODING 21729
SWIDTH 960 0
DWIDTH 9 0
BBX 6 7 2 -1
BITMAP
F8
70
F8
F8
F8
F8
8C
ENDCHAR

STARTCHAR 54E5
ENCODING 21733
SWIDTH 960 0
DWIDTH 9 0
BBX 7 7 1 -1
BITMAP
7C
F4
74
FE
74
94
64
ENDCHAR

STARTCHAR 54E8
ENCODING 21736
SWIDTH 960 0
DWIDTH 9 0
BBX 7 7 1 -1
BITMAP
08
EA
F4
DC
24
3C
04
ENDCHAR

STARTCHAR 54ED
ENCODING 21741
SWIDTH 960 0
DWIDTH 9 0
BBX 7 7 1 -1
BITMAP
FE
EE
10
FE
30
28
C6
ENDCHAR

STARTCHAR 54EE
ENCODING 21742
SWIDTH 960 0
DWIDTH 9 0
BBX 7 8 1 -1
BITMAP
08
CA
CC
58
D4
28
0C
08
ENDCHAR

STARTCHAR 54F2
ENCODING 21746
SWIDTH 960 0
DWIDTH 9 0
BBX 7 7 1 0
BITMAP
5C
4E
D4
14
40
7C
7C
ENDCHAR

STARTCHAR 54FA
ENCODING 21754
SWIDTH 960 0
DWIDTH 9 0
BBX 7 7 1 -1
BITMAP
C8
DC
FE
FE
6A
3E
2A
ENDCHAR

STARTCHAR 5504
ENCODING 21764
SWIDTH 960 0
DWIDTH 9 0
BBX 7 7 1 -1
BITMAP
DE
D2
DE
DE
DE
00
32
ENDCHAR

STARTCHAR 5506
ENCODING 21766
SWIDTH 960 0
DWIDTH 9 0
BBX 7 7 1 -1
BITMAP
D0
FE
D6
D0
5C
28
16
ENDCHAR

STARTCHAR 5507
ENCODING 21767
SWIDTH 960 0
DWIDTH 9 0
BBX 7 7 1 -1
BITMAP
7C
9C
FE
A4
02
7E
7E
ENDCHAR

STARTCHAR 550E
ENCODING 21774
SWIDTH 960 0
DWIDTH 9 0
BBX 7 7 1 -1
BITMAP
34
D6
D6
D6
76
12
12
ENDCHAR

STARTCHAR 5510
ENCODING 21776
SWIDTH 960 0
DWIDTH 9 0
BBX 7 7 1 -1
BITMAP
FE
80
9C
BC
88
FC
7C
ENDCHAR

STARTCHAR 551C
ENCODING 21788
SWIDTH 960 0
DWIDTH 9 0
BBX 7 8 1 -1
BITMAP
10
FE
7C
38
56
F4
BA
EE
ENDCHAR

STARTCHAR 552F
ENCODING 21807
SWIDTH 960 0
DWIDTH 9 0
BBX 7 7 1 -1
BITMAP
D0
DE
E8
FC
68
3C
1E
ENDCHAR

STARTCHAR 5531
ENCODING 21809
SWIDTH 960 0
DWIDTH 9 0
BBX 7 7 1 -1
BITMAP
1E
DE
DE
C0
3E
3E
1E
ENDCHAR

STARTCHAR 5535
ENCODING 21813
SWIDTH 960 0
DWIDTH 9 0
BBX 7 7 1 -1
BITMAP
08
D4
EA
FE
5E
1E
0C
ENDCHAR

STARTCHAR 553E
ENCODING 21822
SWIDTH 960 0
DWIDTH 9 0
BBX 7 7 1 -1
BITMAP
FC
FE
EC
FE
6C
18
3E
ENDCHAR

STARTCHAR 5544
ENCODING 21828
SWIDTH 960 0
DWIDTH 9 0
BBX 7 7 1 -1
BITMAP
3E
90
AC
B8
14
2A
08
ENDCHAR

STARTCHAR 5546
ENCODING 21830
SWIDTH 960 0
DWIDTH 9 0
BBX 7 7 1 -1
BITMAP
10
6C
FE
B6
FA
CA
B2
ENDCHAR

STARTCHAR 554F
ENCODING 21839
SWIDTH 960 0
DWIDTH 9 0
BBX 7 7 1 -1
BITMAP
EE
EE
EE
BA
CA
BA
82
ENDCHAR

STARTCHAR 5553
ENCODING 21843
SWIDTH 960 0
DWIDTH 9 0
BBX 7 7 1 -1
BITMAP
E8
76
74
8C
00
7C
7C
ENDCHAR

STARTCHAR 5556
ENCODING 21846
SWIDTH 960 0
DWIDTH 9 0
BBX 7 7 1 -1
BITMAP
08
C8
D4
C8
48
14
22
ENDCHAR

STARTCHAR 555E
ENCODING 21854
SWIDTH 960 0
DWIDTH 9 0
BBX 7 7 1 -1
BITMAP
DC
D8
F6
E2
3E
18
7E
ENDCHAR

STARTCHAR 5563
ENCODING 21859
SWIDTH 960 0
DWIDTH 9 0
BBX 7 7 1 -1
BITMAP
C0
F6
FE
F6
7E
36
24
ENDCHAR

STARTCHAR 557C
ENCODING 21884
SWIDTH 960 0
DWIDTH 9 0
BBX 6 6 1 0
BITMAP
DC
D4
E8
6C
2C
0C
ENDCHAR

STARTCHAR 5580
ENCODING 21888
SWIDTH 960 0
DWIDTH 9 0
BBX 7 8 1 -1
BITMAP
08
D0
EE
FC
D8
54
2C
1C
ENDCHAR

STARTCHAR 5584
ENCODING 21892
SWIDTH 960 0
DWIDTH 9 0
BBX 7 7 1 -1
BITMAP
28
54
38
7C
FE
7C
7C
ENDCHAR

STARTCHAR 5586
ENCODING 21894
SWIDTH 960 0
DWIDTH 9 0
BBX 7 7 1 -1
BITMAP
44
44
44
00
EE
B2
EE
ENDCHAR

STARTCHAR 5587
ENCODING 21895
SWIDTH 960 0
DWIDTH 9 0
BBX 7 7 1 -1
BITMAP
FE
D6
FE
FE
D6
3A
12
ENDCHAR

STARTCHAR 5589
ENCODING 21897
SWIDTH 960 0
DWIDTH 9 0
BBX 7 7 1 -1
BITMAP
04
BE
B0
BC
3E
2C
32
ENDCHAR

STARTCHAR 558A
ENCODING 21898
SWIDTH 960 0
DWIDTH 9 0
BBX 7 7 1 -1
BITMAP
02
BE
D8
D8
FC
44
1A
ENDCHAR

STARTCHAR 5598
ENCODING 21912
SWIDTH 960 0
DWIDTH 9 0
BBX 7 7 1 0
BITMAP
0A
DE
C0
DC
76
36
26
ENDCHAR

STARTCHAR 5599
ENCODING 21913
SWIDTH 960 0
DWIDTH 9 0
BBX 7 7 1 -1
BITMAP
1C
D8
FE
DC
54
1C
6A
ENDCHAR

STARTCHAR 559A
ENCODING 21914
SWIDTH 960 0
DWIDTH 9 0
BBX 7 7 1 -1
BITMAP
DC
FE
FA
F6
22
1C
36
ENDCHAR

STARTCHAR 559C
ENCODING 21916
SWIDTH 960 0
DWIDTH 9 0
BBX 7 8 1 -1
BITMAP
10
FE
7C
7C
7C
FE
7C
7C
ENDCHAR

STARTCHAR 559D
ENCODING 21917
SWIDTH 960 0
DWIDTH 9 0
BBX 7 7 1 -1
BITMAP
DE
DE
DC
DE
1A
16
0A
ENDCHAR

STARTCHAR 55A7
ENCODING 21927
SWIDTH 960 0
DWIDTH 9 0
BBX 7 7 1 -1
BITMAP
C8
F6
E8
DC
5C
1C
3E
ENDCHAR

STARTCHAR 55A9
ENCODING 21929
SWIDTH 960 0
DWIDTH 9 0
BBX 7 7 1 -1
BITMAP
98
A6
88
D2
4C
5A
16
ENDCHAR

STARTCHAR 55AA
ENCODING 21930
SWIDTH 960 0
DWIDTH 9 0
BBX 7 8 1 -1
BITMAP
10
FE
7C
BC
50
7C
48
F6
ENDCHAR

STARTCHAR 55AB
ENCODING 21931
SWIDTH 960 0
DWIDTH 9 0
BBX 7 7 1 -1
BITMAP
FE
D6
5E
DA
00
3C
66
ENDCHAR

STARTCHAR 55AC
ENCODING 21932
SWIDTH 960 0
DWIDTH 9 0
BBX 7 7 1 -1
BITMAP
7C
7C
7C
3A
7E
BA
BA
ENDCHAR

STARTCHAR 55AE
ENCODING 21934
SWIDTH 960 0
DWIDTH 9 0
BBX 7 7 1 -1
BITMAP
FE
EE
94
7C
7C
10
7C
ENDCHAR

STARTCHAR 55C5
ENCODING 21957
SWIDTH 960 0
DWIDTH 9 0
BBX 7 7 1 -1
BITMAP
1C
DC
DC
DC
08
1C
26
ENDCHAR

STARTCHAR 55C7
ENCODING 21959
SWIDTH 960 0
DWIDTH 9 0
BBX 7 7 1 -1
BITMAP
FE
54
BA
44
FC
FC
FC
ENDCHAR

STARTCHAR 55D4
ENCODING 21972
SWIDTH 960 0
DWIDTH 9 0
BBX 7 7 1 -1
BITMAP
18
DE
F2
FE
6E
3E
12
ENDCHAR

STARTCHAR 55DA
ENCODING 21978
SWIDTH 960 0
DWIDTH 9 0
BBX 7 8 1 -1
BITMAP
08
1C
E4
F8
FC
1E
06
16
ENDCHAR

STARTCHAR 55DC
ENCODING 21980
SWIDTH 960 0
DWIDTH 9 0
BBX 6 7 1 0
BITMAP
FC
D8
D4
F8
4C
3C
3C
ENDCHAR

STARTCHAR 55DF
ENCODING 21983
SWIDTH 960 0
DWIDTH 9 0
BBX 7 7 1 -1
BITMAP
D4
C8
DC
FE
50
20
4C
ENDCHAR

STARTCHAR 55E3
ENCODING 21987
SWIDTH 960 0
DWIDTH 9 0
BBX 7 7 1 -1
BITMAP
E6
EE
F2
FE
FE
F2
72
ENDCHAR

STARTCHAR 55E4
ENCODING 21988
SWIDTH 960 0
DWIDTH 9 0
BBX 7 7 1 -1
BITMAP
0A
DE
FE
C8
3E
1C
1E
ENDCHAR

STARTCHAR 55FD
ENCODING 22013
SWIDTH 960 0
DWIDTH 9 0
BBX 9 7 0 0
BITMAP
DE00
D380
FB00
FA00
8A00
3500
1500
ENDCHAR

STARTCHAR 55FE
ENCODING 22014
SWIDTH 960 0
DWIDTH 9 0
BBX 7 7 1 -1
BITMAP
C0
FC
E0
FC
EE
5C
3A
ENDCHAR

STARTCHAR 5606
ENCODING 22022
SWIDTH 960 0
DWIDTH 9 0
BBX 7 7 1 -1
BITMAP
3E
DC
7E
FE
3E
7E
24
ENDCHAR

STARTCHAR 5609
ENCODING 22025
SWIDTH 960 0
DWIDTH 9 0
BBX 7 8 1 -1
BITMAP
10
FE
7C
84
78
74
EE
8E
ENDCHAR

STARTCHAR 5614
ENCODING 22036
SWIDTH 960 0
DWIDTH 9 0
BBX 7 7 1 -1
BITMAP
3C
FC
EC
FE
3E
3E
3E
ENDCHAR

STARTCHAR 5617
ENCODING 22039
SWIDTH 960 0
DWIDTH 9 0
BBX 7 8 1 -1
BITMAP
10
10
FC
38
42
7C
7C
FC
ENDCHAR

STARTCHAR 562F
ENCODING 22063
SWIDTH 960 0
DWIDTH 9 0
BBX 8 7 0 0
BITMAP
CE
CF
CC
DB
9F
1B
61
ENDCHAR

STARTCHAR 5632
ENCODING 22066
SWIDTH 960 0
DWIDTH 9 0
BBX 7 7 1 0
BITMAP
FE
D6
EE
FE
56
1A
1A
ENDCHAR

STARTCHAR 5634
ENCODING 22068
SWIDTH 960 0
DWIDTH 9 0
BBX 7 7 1 -1
BITMAP
3A
BC
9C
BE
9E
1E
22
ENDCHAR

STARTCHAR 5636
ENCODING 22070
SWIDTH 960 0
DWIDTH 9 0
BBX 7 7 1 -1
BITMAP
26
B8
B6
BA
3A
2A
4A
ENDCHAR

STARTCHAR 5653
ENCODING 22099
SWIDTH 960 0
DWIDTH 9 0
BBX 7 7 1 0
BITMAP
0C
FE
7C
EE
42
56
9C
ENDCHAR

STARTCHAR 5668
ENCODING 22120
SWIDTH 960 0
DWIDTH 9 0
BBX 7 7 1 -1
BITMAP
EE
EE
20
7C
46
BE
FE
ENDCHAR

STARTCHAR 566B
ENCODING 22123
SWIDTH 960 0
DWIDTH 9 0
BBX 7 7 1 -1
BITMAP
08
9C
84
BC
3C
0A
58
ENDCHAR

STARTCHAR 5674
ENCODING 22132
SWIDTH 960 0
DWIDTH 9 0
BBX 7 8 1 -1
BITMAP
08
FE
D0
D0
EE
7E
3E
36
ENDCHAR

STARTCHAR 5686
ENCODING 22150
SWIDTH 960 0
DWIDTH 9 0
BBX 7 7 1 -1
BITMAP
FE
C8
DC
5C
3E
56
0A
ENDCHAR

STARTCHAR 56A5
ENCODING 22181
SWIDTH 960 0
DWIDTH 9 0
BBX 7 7 1 -1
BITMAP
10
9C
8C
B4
2C
20
12
ENDCHAR

STARTCHAR 56AC
ENCODING 22188
SWIDTH 960 0
DWIDTH 9 0
BBX 7 7 1 -1
BITMAP
30
B6
A6
AA
3E
36
2A
ENDCHAR

STARTCHAR 56AE
ENCODING 22190
SWIDTH 960 0
DWIDTH 9 0
BBX 7 7 1 0
BITMAP
3E
EE
F6
BE
FE
BA
BA
ENDCHAR

STARTCHAR 56B4
ENCODING 22196
SWIDTH 960 0
DWIDTH 9 0
BBX 7 7 1 -1
BITMAP
FE
4C
FC
FE
EC
E4
EA
ENDCHAR

STARTCHAR 56BC
ENCODING 22204
SWIDTH 960 0
DWIDTH 9 0
BBX 7 7 1 -1
BITMAP
18
FE
FE
F0
74
34
24
ENDCHAR

STARTCHAR 56CA
ENCODING 22218
SWIDTH 960 0
DWIDTH 9 0
BBX 7 8 1 -1
BITMAP
10
7C
7C
00
6C
7E
FE
EC
ENDCHAR

STARTCHAR 56CD
ENCODING 22221
SWIDTH 960 0
DWIDTH 9 0
BBX 7 7 1 -1
BITMAP
EE
EE
B2
6E
EE
B2
EE
ENDCHAR

STARTCHAR 56D1
ENCODING 22225
SWIDTH 960 0
DWIDTH 9 0
BBX 7 8 1 -1
BITMAP
3E
C2
FE
C8
5E
5A
5E
9C
ENDCHAR

STARTCHAR 56DA
ENCODING 22234
SWIDTH 960 0
DWIDTH 9 0
BBX 7 7 1 -1
BITMAP
FE
92
92
B2
AA
C6
FE
ENDCHAR

STARTCHAR 56DB
ENCODING 22235
SWIDTH 960 0
DWIDTH 9 0
BBX 7 6 1 -1
BITMAP
FE
B2
B2
CE
82
FE
ENDCHAR

STARTCHAR 56DE
ENCODING 22238
SWIDTH 960 0
DWIDTH 9 0
BBX 7 7 1 -1
BITMAP
FE
82
FA
8A
BA
82
FE
ENDCHAR

STARTCHAR 56E0
ENCODING 22240
SWIDTH 960 0
DWIDTH 9 0
BBX 7 7 1 -1
BITMAP
FE
92
BA
92
AA
82
FE
ENDCHAR

STARTCHAR 56F0
ENCODING 22256
SWIDTH 960 0
DWIDTH 9 0
BBX 7 7 1 -1
BITMAP
FE
92
BA
BA
D6
92
FE
ENDCHAR

STARTCHAR 56F9
ENCODING 22265
SWIDTH 960 0
DWIDTH 9 0
BBX 7 7 1 -1
BITMAP
FE
B2
CE
92
9E
9A
FE
ENDCHAR

STARTCHAR 56FA
ENCODING 22266
SWIDTH 960 0
DWIDTH 9 0
BBX 7 8 1 -2
BITMAP
FE
92
BA
BA
CA
B2
82
7C
ENDCHAR

STARTCHAR 5703
ENCODING 22275
SWIDTH 960 0
DWIDTH 9 0
BBX 7 7 1 -1
BITMAP
FE
FE
BE
BE
D6
96
FE
ENDCHAR

STARTCHAR 5704
ENCODING 22276
SWIDTH 960 0
DWIDTH 9 0
BBX 7 7 1 -1
BITMAP
FE
BA
AA
FE
BA
BA
FE
ENDCHAR

STARTCHAR 5708
ENCODING 22280
SWIDTH 960 0
DWIDTH 9 0
BBX 7 7 1 -1
BITMAP
FE
D6
B2
AA
F6
AA
FE
ENDCHAR

STARTCHAR 570B
ENCODING 22283
SWIDTH 960 0
DWIDTH 9 0
BBX 7 7 1 -1
BITMAP
FE
82
BA
EE
8A
B6
FE
ENDCHAR

STARTCHAR 570D
ENCODING 22285
SWIDTH 960 0
DWIDTH 9 0
BBX 7 7 1 -1
BITMAP
FE
BA
BA
BA
FA
FE
FE
ENDCHAR

STARTCHAR 5712
ENCODING 22290
SWIDTH 960 0
DWIDTH 9 0
BBX 7 7 1 -1
BITMAP
FE
92
AA
FA
B6
5E
FE
ENDCHAR

STARTCHAR 5713
ENCODING 22291
SWIDTH 960 0
DWIDTH 9 0
BBX 7 7 1 -1
BITMAP
FE
FA
BA
CA
FA
BA
FE
ENDCHAR

STARTCHAR 5716
ENCODING 22294
SWIDTH 960 0
DWIDTH 9 0
BBX 7 7 1 -1
BITMAP
FE
FA
FE
FE
EE
FE
FE
ENDCHAR

STARTCHAR 5718
ENCODING 22296
SWIDTH 960 0
DWIDTH 9 0
BBX 7 8 1 -2
BITMAP
FE
BA
BA
BA
8E
BA
82
7C
ENDCHAR

STARTCHAR 571F
ENCODING 22303
SWIDTH 960 0
DWIDTH 9 0
BBX 7 7 1 -1
BITMAP
10
10
FC
10
10
10
FE
ENDCHAR

STARTCHAR 5728
ENCODING 22312
SWIDTH 960 0
DWIDTH 9 0
BBX 7 7 1 -1
BITMAP
10
FE
28
48
CC
48
7E
ENDCHAR

STARTCHAR 572D
ENCODING 22317
SWIDTH 960 0
DWIDTH 9 0
BBX 5 7 2 -1
BITMAP
20
78
20
F8
20
78
F8
ENDCHAR

STARTCHAR 5730
ENCODING 22320
SWIDTH 960 0
DWIDTH 9 0
BBX 7 6 1 0
BITMAP
AA
AE
BA
AA
60
1E
ENDCHAR

STARTCHAR 573B
ENCODING 22331
SWIDTH 960 0
DWIDTH 9 0
BBX 6 7 1 -1
BITMAP
1C
90
DC
94
74
24
04
ENDCHAR

STARTCHAR 5740
ENCODING 22336
SWIDTH 960 0
DWIDTH 9 0
BBX 7 7 1 -1
BITMAP
40
48
F8
5C
58
78
3E
ENDCHAR

STARTCHAR 5742
ENCODING 22338
SWIDTH 960 0
DWIDTH 9 0
BBX 7 7 1 -1
BITMAP
1C
90
DE
9C
A4
24
5A
ENDCHAR

STARTCHAR 5747
ENCODING 22343
SWIDTH 960 0
DWIDTH 9 0
BBX 7 7 1 -1
BITMAP
50
5E
62
4A
46
8A
02
ENDCHAR

STARTCHAR 574A
ENCODING 22346
SWIDTH 960 0
DWIDTH 9 0
BBX 7 6 1 0
BITMAP
9C
C8
8E
8A
12
26
ENDCHAR

STARTCHAR 574D
ENCODING 22349
SWIDTH 960 0
DWIDTH 9 0
BBX 7 7 1 -1
BITMAP
1E
9A
92
9E
52
22
22
ENDCHAR

STARTCHAR 574E
ENCODING 22350
SWIDTH 960 0
DWIDTH 9 0
BBX 7 7 1 -1
BITMAP
10
9E
A2
88
4C
14
22
ENDCHAR

STARTCHAR 5750
ENCODING 22352
SWIDTH 960 0
DWIDTH 9 0
BBX 7 7 1 -1
BITMAP
10
54
DC
12
7C
10
FE
ENDCHAR

STARTCHAR 5751
ENCODING 22353
SWIDTH 960 0
DWIDTH 9 0
BBX 9 7 0 -1
BITMAP
4400
5F00
4000
4E00
4A00
EA80
1300
ENDCHAR

STARTCHAR 5761
ENCODING 22369
SWIDTH 960 0
DWIDTH 9 0
BBX 7 6 1 0
BITMAP
BE
AA
9E
AC
A4
3A
ENDCHAR

STARTCHAR 5764
ENCODING 22372
SWIDTH 960 0
DWIDTH 9 0
BBX 7 8 1 -1
BITMAP
04
84
9E
D6
9E
96
4C
04
ENDCHAR

STARTCHAR 5766
ENCODING 22374
SWIDTH 960 0
DWIDTH 9 0
BBX 7 7 1 -1
BITMAP
1E
92
DE
92
92
DE
3E
ENDCHAR

STARTCHAR 576A
ENCODING 22378
SWIDTH 960 0
DWIDTH 9 0
BBX 7 6 1 -1
BITMAP
0C
98
8A
BE
88
88
ENDCHAR

STARTCHAR 576E
ENCODING 22382
SWIDTH 960 0
DWIDTH 9 0
BBX 7 7 1 -1
BITMAP
48
54
56
48
5E
92
1E
ENDCHAR

STARTCHAR 5770
ENCODING 22384
SWIDTH 960 0
DWIDTH 9 0
BBX 6 7 2 -1
BITMAP
BC
C4
DC
DC
DC
44
04
ENDCHAR

STARTCHAR 5775
ENCODING 22389
SWIDTH 960 0
DWIDTH 9 0
BBX 7 7 1 -1
BITMAP
1C
90
DE
94
94
D4
1C
ENDCHAR

STARTCHAR 577C
ENCODING 22396
SWIDTH 960 0
DWIDTH 9 0
BBX 7 7 1 -1
BITMAP
1C
A0
BC
AC
64
26
24
ENDCHAR

STARTCHAR 5782
ENCODING 22402
SWIDTH 960 0
DWIDTH 9 0
BBX 9 7 0 0
BITMAP
3E00
7F00
2A00
FF80
2A00
1C00
7F80
ENDCHAR

STARTCHAR 5788
ENCODING 22408
SWIDTH 960 0
DWIDTH 9 0
BBX 7 7 1 -1
BITMAP
54
BC
88
14
12
38
7C
ENDCHAR

STARTCHAR 578B
ENCODING 22411
SWIDTH 960 0
DWIDTH 9 0
BBX 7 7 1 -1
BITMAP
62
6A
A2
B2
10
38
FE
ENDCHAR

STARTCHAR 5793
ENCODING 22419
SWIDTH 960 0
DWIDTH 9 0
BBX 7 7 1 -1
BITMAP
88
9C
94
8A
54
0C
12
ENDCHAR

STARTCHAR 57A0
ENCODING 22432
SWIDTH 960 0
DWIDTH 9 0
BBX 7 7 1 -1
BITMAP
3E
9E
A2
BC
6A
24
32
ENDCHAR

STARTCHAR 57A2
ENCODING 22434
SWIDTH 960 0
DWIDTH 9 0
BBX 7 7 1 -1
BITMAP
9C
A0
FC
AE
B2
32
4C
ENDCHAR

STARTCHAR 57A3
ENCODING 22435
SWIDTH 960 0
DWIDTH 9 0
BBX 8 7 1 -1
BITMAP
3E
80
9C
9C
94
18
3F
ENDCHAR

STARTCHAR 57C3
ENCODING 22467
SWIDTH 960 0
DWIDTH 9 0
BBX 7 7 1 -1
BITMAP
90
9E
90
4C
BE
98
A6
ENDCHAR

STARTCHAR 57C7
ENCODING 22471
SWIDTH 960 0
DWIDTH 9 0
BBX 7 7 1 -1
BITMAP
5E
4C
5A
5E
5E
DA
12
ENDCHAR

STARTCHAR 57C8
ENCODING 22472
SWIDTH 960 0
DWIDTH 9 0
BBX 7 7 1 -1
BITMAP
40
4E
54
48
54
8C
1E
ENDCHAR

STARTCHAR 57CB
ENCODING 22475
SWIDTH 960 0
DWIDTH 9 0
BBX 8 7 1 -1
BITMAP
BE
AA
FE
9E
88
8C
3F
ENDCHAR

STARTCHAR 57CE
ENCODING 22478
SWIDTH 960 0
DWIDTH 9 0
BBX 8 7 0 -1
BITMAP
01
5F
54
5D
5A
AA
25
ENDCHAR

STARTCHAR 57DF
ENCODING 22495
SWIDTH 960 0
DWIDTH 9 0
BBX 7 7 1 -1
BITMAP
02
88
9C
BE
7C
9C
2A
ENDCHAR

STARTCHAR 57E0
ENCODING 22496
SWIDTH 960 0
DWIDTH 9 0
BBX 7 6 1 0
BITMAP
1C
A4
B8
BE
9C
1C
ENDCHAR

STARTCHAR 57F0
ENCODING 22512
SWIDTH 960 0
DWIDTH 9 0
BBX 7 6 1 -1
BITMAP
1C
A2
80
9E
94
1A
ENDCHAR

STARTCHAR 57F4
ENCODING 22516
SWIDTH 960 0
DWIDTH 9 0
BBX 8 7 1 0
BITMAP
1E
C8
B6
BE
7E
AE
3F
ENDCHAR

STARTCHAR 57F7
ENCODING 22519
SWIDTH 960 0
DWIDTH 9 0
BBX 7 7 1 -1
BITMAP
40
4C
AC
CC
4C
F4
52
ENDCHAR

STARTCHAR 57F9
ENCODING 22521
SWIDTH 960 0
DWIDTH 9 0
BBX 8 7 1 -1
BITMAP
08
BE
94
BF
80
3E
1E
ENDCHAR

STARTCHAR 57FA
ENCODING 22522
SWIDTH 960 0
DWIDTH 9 0
BBX 7 7 1 0
BITMAP
FE
38
38
FE
54
BA
38
ENDCHAR

STARTCHAR 57FC
ENCODING 22524
SWIDTH 960 0
DWIDTH 9 0
BBX 7 8 1 -1
BITMAP
08
08
DC
92
9E
7A
9A
02
ENDCHAR

STARTCHAR 5800
ENCODING 22528
SWIDTH 960 0
DWIDTH 9 0
BBX 7 7 1 -1
BITMAP
BE
DE
A4
B6
A4
34
5E
ENDCHAR

STARTCHAR 5802
ENCODING 22530
SWIDTH 960 0
DWIDTH 9 0
BBX 7 8 1 -1
BITMAP
10
54
FE
02
78
30
7C
7C
ENDCHAR

STARTCHAR 5805
ENCODING 22533
SWIDTH 960 0
DWIDTH 9 0
BBX 7 7 1 -1
BITMAP
C6
EC
E4
EA
10
38
7C
ENDCHAR

STARTCHAR 5806
ENCODING 22534
SWIDTH 960 0
DWIDTH 9 0
BBX 7 7 1 -1
BITMAP
14
9E
B8
9C
58
1C
1E
ENDCHAR

STARTCHAR 5808
ENCODING 22536
SWIDTH 960 0
DWIDTH 9 0
BBX 7 7 1 -1
BITMAP
1E
AE
EE
AA
BE
E2
02
ENDCHAR

STARTCHAR 5809
ENCODING 22537
SWIDTH 960 0
DWIDTH 9 0
BBX 9 8 0 -1
BITMAP
0400
5F80
E900
4600
5E00
6E00
1200
0E00
ENDCHAR

STARTCHAR 580A
ENCODING 22538
SWIDTH 960 0
DWIDTH 9 0
BBX 7 7 1 -1
BITMAP
7C
EE
82
7C
5C
7C
7C
ENDCHAR

STARTCHAR 581E
ENCODING 22558
SWIDTH 960 0
DWIDTH 9 0
BBX 7 7 1 -1
BITMAP
10
9C
90
8C
1C
1C
2A
ENDCHAR

STARTCHAR 5821
ENCODING 22561
SWIDTH 960 0
DWIDTH 9 0
BBX 7 7 1 -1
BITMAP
7E
DE
7E
5C
68
7C
FE
ENDCHAR

STARTCHAR 5824
ENCODING 22564
SWIDTH 960 0
DWIDTH 9 0
BBX 7 7 1 -1
BITMAP
3C
BC
9C
BE
58
2C
5C
ENDCHAR

STARTCHAR 5827
ENCODING 22567
SWIDTH 960 0
DWIDTH 9 0
BBX 7 7 1 -1
BITMAP
5E
5E
5E
52
4C
8C
12
ENDCHAR

STARTCHAR 582A
ENCODING 22570
SWIDTH 960 0
DWIDTH 9 0
BBX 8 7 1 -1
BITMAP
90
9C
9C
9C
DE
1E
1F
ENDCHAR

STARTCHAR 582F
ENCODING 22575
SWIDTH 960 0
DWIDTH 9 0
BBX 7 7 1 -1
BITMAP
7C
FE
EC
00
4C
7C
4E
ENDCHAR

STARTCHAR 5830
ENCODING 22576
SWIDTH 960 0
DWIDTH 9 0
BBX 8 7 1 -1
BITMAP
3C
FE
BE
AC
76
AA
3F
ENDCHAR

STARTCHAR 5831
ENCODING 22577
SWIDTH 960 0
DWIDTH 9 0
BBX 6 7 2 -1
BITMAP
BC
A4
60
7C
AC
A8
84
ENDCHAR

STARTCHAR 5834
ENCODING 22580
SWIDTH 960 0
DWIDTH 9 0
BBX 7 7 1 -1
BITMAP
3C
BC
98
9C
7E
9A
0A
ENDCHAR

STARTCHAR 5835
ENCODING 22581
SWIDTH 960 0
DWIDTH 9 0
BBX 8 7 1 0
BITMAP
92
D4
BF
94
3A
DE
0E
ENDCHAR

STARTCHAR 583A
ENCODING 22586
SWIDTH 960 0
DWIDTH 9 0
BBX 8 7 0 -1
BITMAP
1F
6F
55
4A
D1
0A
10
ENDCHAR

STARTCHAR 584A
ENCODING 22602
SWIDTH 960 0
DWIDTH 9 0
BBX 7 7 1 -1
BITMAP
08
BE
BE
BE
98
2E
6E
ENDCHAR

STARTCHAR 584B
ENCODING 22603
SWIDTH 960 0
DWIDTH 9 0
BBX 7 7 1 -1
BITMAP
EC
CC
AA
FE
10
38
FE
ENDCHAR

STARTCHAR 584F
ENCODING 22607
SWIDTH 960 0
DWIDTH 9 0
BBX 7 6 1 0
BITMAP
9E
BE
9E
A2
1C
3E
ENDCHAR

STARTCHAR 5851
ENCODING 22609
SWIDTH 960 0
DWIDTH 9 0
BBX 7 8 1 -1
BITMAP
06
2A
DA
DA
FA
9A
7C
FE
ENDCHAR

STARTCHAR 5854
ENCODING 22612
SWIDTH 960 0
DWIDTH 9 0
BBX 8 7 1 -1
BITMAP
3E
C0
9C
BF
C0
3C
1C
ENDCHAR

STARTCHAR 5857
ENCODING 22615
SWIDTH 960 0
DWIDTH 9 0
BBX 7 7 1 0
BITMAP
58
A6
08
9C
0A
7C
7C
ENDCHAR

STARTCHAR 5858
ENCODING 22616
SWIDTH 960 0
DWIDTH 9 0
BBX 7 7 1 -1
BITMAP
1E
A0
AE
AE
64
3E
1E
ENDCHAR

STARTCHAR 585A
ENCODING 22618
SWIDTH 960 0
DWIDTH 9 0
BBX 8 7 0 -1
BITMAP
1E
FF
4C
56
5E
0D
34
ENDCHAR

STARTCHAR 585E
ENCODING 22622
SWIDTH 960 0
DWIDTH 9 0
BBX 8 7 1 -1
BITMAP
FE
7C
28
38
5C
BF
7C
ENDCHAR

STARTCHAR 5861
ENCODING 22625
SWIDTH 960 0
DWIDTH 9 0
BBX 7 7 1 -1
BITMAP
9C
9E
BE
B2
7E
2C
1C
ENDCHAR

STARTCHAR 5862
ENCODING 22626
SWIDTH 960 0
DWIDTH 9 0
BBX 6 7 2 -1
BITMAP
BC
A4
B8
B8
BC
04
64
ENDCHAR

STARTCHAR 5864
ENCODING 22628
SWIDTH 960 0
DWIDTH 9 0
BBX 7 7 1 -1
BITMAP
1E
8C
BE
BE
7E
1E
12
ENDCHAR

STARTCHAR 5875
ENCODING 22645
SWIDTH 960 0
DWIDTH 9 0
BBX 9 7 0 0
BITMAP
7F00
7F00
7F00
5D00
6E80
5300
9E00
ENDCHAR

STARTCHAR 5879
ENCODING 22649
SWIDTH 960 0
DWIDTH 9 0
BBX 7 7 1 0
BITMAP
FC
DE
FC
64
20
7C
7C
ENDCHAR

STARTCHAR 587C
ENCODING 22652
SWIDTH 960 0
DWIDTH 9 0
BBX 7 6 1 -1
BITMAP
BE
9E
9E
9E
98
3E
ENDCHAR

STARTCHAR 587E
ENCODING 22654
SWIDTH 960 0
DWIDTH 9 0
BBX 7 7 1 0
BITMAP
68
EC
EC
4C
12
50
7C
ENDCHAR

STARTCHAR 5883
ENCODING 22659
SWIDTH 960 0
DWIDTH 9 0
BBX 7 7 1 -1
BITMAP
08
9C
BE
9C
9C
1C
3E
ENDCHAR

STARTCHAR 5885
ENCODING 22661
SWIDTH 960 0
DWIDTH 9 0
BBX 7 7 1 -1
BITMAP
E4
E4
4A
40
10
38
FE
ENDCHAR

STARTCHAR 5889
ENCODING 22665
SWIDTH 960 0
DWIDTH 9 0
BBX 7 7 1 -1
BITMAP
1E
A6
A6
A4
6E
2E
26
ENDCHAR

STARTCHAR 5893
ENCODING 22675
SWIDTH 960 0
DWIDTH 9 0
BBX 7 8 1 -1
BITMAP
28
FE
7C
44
38
FE
FE
38
ENDCHAR

STARTCHAR 589C
ENCODING 22684
SWIDTH 960 0
DWIDTH 9 0
BBX 7 8 1 -1
BITMAP
C8
E4
98
CE
9C
0A
7C
FE
ENDCHAR

STARTCHAR 589E
ENCODING 22686
SWIDTH 960 0
DWIDTH 9 0
BBX 7 7 1 -1
BITMAP
04
BE
BE
BE
DE
1E
1E
ENDCHAR

STARTCHAR 589F
ENCODING 22687
SWIDTH 960 0
DWIDTH 9 0
BBX 7 7 1 -1
BITMAP
0E
9E
AC
A6
DC
3E
5C
ENDCHAR

STARTCHAR 58A8
ENCODING 22696
SWIDTH 960 0
DWIDTH 9 0
BBX 7 7 1 -1
BITMAP
FC
7C
7C
FE
A8
7E
7C
ENDCHAR

STARTCHAR 58A9
ENCODING 22697
SWIDTH 960 0
DWIDTH 9 0
BBX 7 7 1 -1
BITMAP
38
B6
BA
B6
54
24
2A
ENDCHAR

STARTCHAR 58AE
ENCODING 22702
SWIDTH 960 0
DWIDTH 9 0
BBX 7 8 1 -1
BITMAP
C8
FE
A0
CE
CE
82
7C
7C
ENDCHAR

STARTCHAR 58B3
ENCODING 22707
SWIDTH 960 0
DWIDTH 9 0
BBX 7 7 1 -1
BITMAP
3E
90
90
AE
BE
3E
1E
ENDCHAR

STARTCHAR 58BA
ENCODING 22714
SWIDTH 960 0
DWIDTH 9 0
BBX 7 7 1 -1
BITMAP
3E
FE
BE
BE
AA
1C
34
ENDCHAR

STARTCHAR 58BB
ENCODING 22715
SWIDTH 960 0
DWIDTH 9 0
BBX 7 7 1 -1
BITMAP
1E
9A
80
9C
BE
2E
1E
ENDCHAR

STARTCHAR 58BE
ENCODING 22718
SWIDTH 960 0
DWIDTH 9 0
BBX 7 7 1 -1
BITMAP
DE
7E
7C
64
22
7C
7C
ENDCHAR

STARTCHAR 58C1
ENCODING 22721
SWIDTH 960 0
DWIDTH 9 0
BBX 7 8 1 -1
BITMAP
04
EE
C8
E4
AE
44
7C
FE
ENDCHAR

STARTCHAR 58C5
ENCODING 22725
SWIDTH 960 0
DWIDTH 9 0
BBX 7 7 1 -1
BITMAP
FE
B4
4E
4E
80
7C
FE
ENDCHAR

STARTCHAR 58C7
ENCODING 22727
SWIDTH 960 0
DWIDTH 9 0
BBX 7 7 1 -1
BITMAP
3E
BE
B6
BE
5C
A4
3E
ENDCHAR

STARTCHAR 58CE
ENCODING 22734
SWIDTH 960 0
DWIDTH 9 0
BBX 7 7 1 -1
BITMAP
9C
8C
BE
8C
04
0C
26
ENDCHAR

STARTCHAR 58D1
ENCODING 22737
SWIDTH 960 0
DWIDTH 9 0
BBX 7 7 1 -1
BITMAP
4E
3A
EC
A4
EA
50
7C
ENDCHAR

STARTCHAR 58D3
ENCODING 22739
SWIDTH 960 0
DWIDTH 9 0
BBX 8 7 0 -1
BITMAP
7E
7B
47
7E
6D
80
9E
ENDCHAR

STARTCHAR 58D5
ENCODING 22741
SWIDTH 960 0
DWIDTH 9 0
BBX 7 7 1 -1
BITMAP
3E
A2
9C
9C
5C
7C
12
ENDCHAR

STARTCHAR 58D8
ENCODING 22744
SWIDTH 960 0
DWIDTH 9 0
BBX 7 7 1 -1
BITMAP
7C
7C
EE
EE
EE
7C
FE
ENDCHAR

STARTCHAR 58D9
ENCODING 22745
SWIDTH 960 0
DWIDTH 9 0
BBX 7 7 1 -1
BITMAP
3E
FE
AC
A0
7E
3E
12
ENDCHAR

STARTCHAR 58DE
ENCODING 22750
SWIDTH 960 0
DWIDTH 9 0
BBX 7 7 1 -1
BITMAP
3E
DE
9E
80
80
3C
1A
ENDCHAR

STARTCHAR 58DF
ENCODING 22751
SWIDTH 960 0
DWIDTH 9 0
BBX 7 7 1 -1
BITMAP
EC
EE
AE
F0
EC
7C
7C
ENDCHAR

STARTCHAR 58E4
ENCODING 22756
SWIDTH 960 0
DWIDTH 9 0
BBX 7 8 1 -1
BITMAP
08
3E
BA
94
9C
5C
98
3E
ENDCHAR

STARTCHAR 58EB
ENCODING 22763
SWIDTH 960 0
DWIDTH 9 0
BBX 7 7 1 -1
BITMAP
10
10
10
7C
10
10
FE
ENDCHAR

STARTCHAR 58EC
ENCODING 22764
SWIDTH 960 0
DWIDTH 9 0
BBX 7 7 1 -1
BITMAP
0C
70
10
FE
10
10
FE
ENDCHAR

STARTCHAR 58EF
ENCODING 22767
SWIDTH 960 0
DWIDTH 9 0
BBX 7 7 1 -1
BITMAP
A0
A8
7E
28
E8
A8
BE
ENDCHAR

STARTCHAR 58F9
ENCODING 22777
SWIDTH 960 0
DWIDTH 9 0
BBX 7 7 1 -1
BITMAP
FE
7C
FE
7C
44
7C
FE
ENDCHAR

STARTCHAR 58FA
ENCODING 22778
SWIDTH 960 0
DWIDTH 9 0
BBX 7 7 1 0
BITMAP
FE
7C
00
FE
4C
38
FE
ENDCHAR

STARTCHAR 58FB
ENCODING 22779
SWIDTH 960 0
DWIDTH 9 0
BBX 7 7 1 -1
BITMAP
0E
94
A8
9E
9E
1E
12
ENDCHAR

STARTCHAR 58FD
ENCODING 22781
SWIDTH 960 0
DWIDTH 9 0
BBX 8 8 0 -1
BITMAP
08
3E
FF
3E
3E
41
E7
62
ENDCHAR

STARTCHAR 590F
ENCODING 22799
SWIDTH 960 0
DWIDTH 9 0
BBX 6 7 1 -1
BITMAP
7C
6C
7C
7C
38
F8
7C
ENDCHAR

STARTCHAR 5914
ENCODING 22804
SWIDTH 960 0
DWIDTH 9 0
BBX 7 7 1 0
BITMAP
7C
16
FE
AC
5A
78
7E
ENDCHAR

STARTCHAR 5915
ENCODING 22805
SWIDTH 960 0
DWIDTH 9 0
BBX 6 7 2 -1
BITMAP
20
5C
88
28
10
20
C0
ENDCHAR

STARTCHAR 5916
ENCODING 22806
SWIDTH 960 0
DWIDTH 9 0
BBX 7 6 1 0
BITMAP
40
A8
A8
64
4A
88
ENDCHAR

STARTCHAR 5919
ENCODING 22809
SWIDTH 960 0
DWIDTH 9 0
BBX 7 7 1 -1
BITMAP
FC
7C
A4
BC
D4
94
62
ENDCHAR

STARTCHAR 591A
ENCODING 22810
SWIDTH 960 0
DWIDTH 9 0
BBX 6 7 2 -1
BITMAP
70
90
20
DC
68
10
E0
ENDCHAR

STARTCHAR 591C
ENCODING 22812
SWIDTH 960 0
DWIDTH 9 0
BBX 7 8 1 -1
BITMAP
10
10
6C
4E
5C
D4
48
76
ENDCHAR

STARTCHAR 5922
ENCODING 22818
SWIDTH 960 0
DWIDTH 9 0
BBX 7 7 1 -1
BITMAP
FE
7C
7C
00
7C
78
30
ENDCHAR

STARTCHAR 5927
ENCODING 22823
SWIDTH 960 0
DWIDTH 9 0
BBX 7 7 1 -1
BITMAP
10
10
7C
10
28
44
82
ENDCHAR

STARTCHAR 5929
ENCODING 22825
SWIDTH 960 0
DWIDTH 9 0
BBX 7 7 1 -1
BITMAP
FE
10
10
7C
28
48
86
ENDCHAR

STARTCHAR 592A
ENCODING 22826
SWIDTH 960 0
DWIDTH 9 0
BBX 7 7 1 -1
BITMAP
10
10
7C
30
28
54
92
ENDCHAR

STARTCHAR 592B
ENCODING 22827
SWIDTH 960 0
DWIDTH 9 0
BBX 7 7 1 -1
BITMAP
10
7E
10
7C
28
24
C2
ENDCHAR

STARTCHAR 592D
ENCODING 22829
SWIDTH 960 0
DWIDTH 9 0
BBX 7 7 1 -1
BITMAP
1C
30
FE
10
28
44
82
ENDCHAR

STARTCHAR 592E
ENCODING 22830
SWIDTH 960 0
DWIDTH 9 0
BBX 7 7 1 -1
BITMAP
10
FC
94
FE
30
28
C6
ENDCHAR

STARTCHAR 5931
ENCODING 22833
SWIDTH 960 0
DWIDTH 9 0
BBX 7 7 1 0
BITMAP
50
7C
10
FE
30
28
C6
ENDCHAR

STARTCHAR 5937
ENCODING 22839
SWIDTH 960 0
DWIDTH 9 0
BBX 7 8 1 -1
BITMAP
10
FE
10
3C
F8
FE
2A
C6
ENDCHAR

STARTCHAR 593E
ENCODING 22846
SWIDTH 960 0
DWIDTH 9 0
BBX 7 7 1 -1
BITMAP
10
7C
54
DC
2A
28
C6
ENDCHAR

STARTCHAR 5944
ENCODING 22852
SWIDTH 960 0
DWIDTH 9 0
BBX 7 7 1 0
BITMAP
20
7C
54
FE
7C
7C
1E
ENDCHAR

STARTCHAR 5947
ENCODING 22855
SWIDTH 960 0
DWIDTH 9 0
BBX 7 8 1 -1
BITMAP
10
20
7C
4C
FE
74
94
64
ENDCHAR

STARTCHAR 5948
ENCODING 22856
SWIDTH 960 0
DWIDTH 9 0
BBX 7 8 1 -1
BITMAP
10
20
7C
44
10
FE
10
D6
ENDCHAR

STARTCHAR 5949
ENCODING 22857
SWIDTH 960 0
DWIDTH 9 0
BBX 7 7 1 0
BITMAP
FE
20
38
54
BE
10
38
ENDCHAR

STARTCHAR 594E
ENCODING 22862
SWIDTH 960 0
DWIDTH 9 0
BBX 7 7 1 -1
BITMAP
FE
68
BE
10
7C
38
FE
ENDCHAR

STARTCHAR 594F
ENCODING 22863
SWIDTH 960 0
DWIDTH 9 0
BBX 7 8 1 -1
BITMAP
10
FE
FC
28
5C
96
38
6C
ENDCHAR

STARTCHAR 5950
ENCODING 22864
SWIDTH 960 0
DWIDTH 9 0
BBX 7 7 1 -1
BITMAP
78
90
FC
0C
FE
30
CE
ENDCHAR

STARTCHAR 5951
ENCODING 22865
SWIDTH 960 0
DWIDTH 9 0
BBX 7 7 1 -1
BITMAP
EE
EA
6A
44
FE
28
C4
ENDCHAR

STARTCHAR 5954
ENCODING 22868
SWIDTH 960 0
DWIDTH 9 0
BBX 7 7 1 0
BITMAP
FE
48
96
18
04
44
84
ENDCHAR

STARTCHAR 5955
ENCODING 22869
SWIDTH 960 0
DWIDTH 9 0
BBX 7 7 1 0
BITMAP
FE
28
AA
58
10
7C
4E
ENDCHAR

STARTCHAR 5957
ENCODING 22871
SWIDTH 960 0
DWIDTH 9 0
BBX 7 6 1 0
BITMAP
7C
7C
C2
70
3C
FC
ENDCHAR

STARTCHAR 595A
ENCODING 22874
SWIDTH 960 0
DWIDTH 9 0
BBX 7 7 1 -1
BITMAP
78
92
28
14
38
7C
EE
ENDCHAR

STARTCHAR 5960
ENCODING 22880
SWIDTH 960 0
DWIDTH 9 0
BBX 7 7 1 -1
BITMAP
4E
38
EC
8C
7C
FE
64
ENDCHAR

STARTCHAR 5962
ENCODING 22882
SWIDTH 960 0
DWIDTH 9 0
BBX 7 8 1 -1
BITMAP
10
6C
54
9A
FE
3C
7C
7C
ENDCHAR

STARTCHAR 5967
ENCODING 22887
SWIDTH 960 0
DWIDTH 9 0
BBX 7 8 1 -1
BITMAP
10
AC
BC
BC
38
10
7C
4E
ENDCHAR

STARTCHAR 596A
ENCODING 22890
SWIDTH 960 0
DWIDTH 9 0
BBX 7 8 1 -1
BITMAP
10
6C
E6
D8
78
78
2C
74
ENDCHAR

STARTCHAR 596B
ENCODING 22891
SWIDTH 960 0
DWIDTH 9 0
BBX 8 7 0 0
BITMAP
7F
22
C1
13
51
1F
E3
ENDCHAR

STARTCHAR 596C
ENCODING 22892
SWIDTH 960 0
DWIDTH 9 0
BBX 7 7 1 0
BITMAP
9E
58
DE
94
10
7C
4C
ENDCHAR

STARTCHAR 596D
ENCODING 22893
SWIDTH 960 0
DWIDTH 9 0
BBX 7 7 1 -1
BITMAP
FE
FE
D6
D6
B2
28
C6
ENDCHAR

STARTCHAR 596E
ENCODING 22894
SWIDTH 960 0
DWIDTH 9 0
BBX 7 7 1 0
BITMAP
FE
6C
50
78
3E
7C
7C
ENDCHAR

STARTCHAR 5973
ENCODING 22899
SWIDTH 960 0
DWIDTH 9 0
BBX 5 7 2 0
BITMAP
40
40
B8
90
E0
30
C8
ENDCHAR

STARTCHAR 5974
ENCODING 22900
SWIDTH 960 0
DWIDTH 9 0
BBX 7 7 1 -1
BITMAP
5E
F2
B4
CC
C8
6C
92
ENDCHAR

STARTCHAR 5978
ENCODING 22904
SWIDTH 960 0
DWIDTH 9 0
BBX 7 7 1 -1
BITMAP
5E
E8
A8
CC
C8
68
80
ENDCHAR

STARTCHAR 597D
ENCODING 22909
SWIDTH 960 0
DWIDTH 9 0
BBX 8 7 0 0
BITMAP
4F
F2
54
67
64
24
54
ENDCHAR

STARTCHAR 5982
ENCODING 22914
SWIDTH 960 0
DWIDTH 9 0
BBX 7 6 1 0
BITMAP
FE
AA
AA
EA
2A
DC
ENDCHAR

STARTCHAR 5983
ENCODING 22915
SWIDTH 960 0
DWIDTH 9 0
BBX 7 7 1 -1
BITMAP
5E
82
E2
DE
D0
50
BE
ENDCHAR

STARTCHAR 5984
ENCODING 22916
SWIDTH 960 0
DWIDTH 9 0
BBX 7 7 1 -1
BITMAP
10
EC
FE
20
7C
50
6C
ENDCHAR

STARTCHAR 598A
ENCODING 22922
SWIDTH 960 0
DWIDTH 9 0
BBX 7 7 1 -1
BITMAP
06
E8
A8
BE
C8
68
9E
ENDCHAR

STARTCHAR 5993
ENCODING 22931
SWIDTH 960 0
DWIDTH 9 0
BBX 7 6 1 0
BITMAP
CC
C8
D6
CC
A4
BA
ENDCHAR

STARTCHAR 5996
ENCODING 22934
SWIDTH 960 0
DWIDTH 9 0
BBX 8 8 0 -1
BITMAP
20
4E
E4
64
66
6C
3A
51
ENDCHAR

STARTCHAR 5997
ENCODING 22935
SWIDTH 960 0
DWIDTH 9 0
BBX 7 7 1 -1
BITMAP
08
F4
D2
C0
CC
44
84
ENDCHAR

STARTCHAR 5999
ENCODING 22937
SWIDTH 960 0
DWIDTH 9 0
BBX 8 7 0 0
BITMAP
44
FD
6C
64
65
32
5C
ENDCHAR

STARTCHAR 59A5
ENCODING 22949
SWIDTH 960 0
DWIDTH 9 0
BBX 7 7 1 -1
BITMAP
78
92
00
20
5C
78
64
ENDCHAR

STARTCHAR 59A8
ENCODING 22952
SWIDTH 960 0
DWIDTH 9 0
BBX 7 7 1 0
BITMAP
80
8C
C8
CE
CA
52
A2
ENDCHAR

STARTCHAR 59AC
ENCODING 22956
SWIDTH 960 0
DWIDTH 9 0
BBX 7 7 1 -1
BITMAP
5E
88
D0
DE
D2
52
8E
ENDCHAR

STARTCHAR 59B9
ENCODING 22969
SWIDTH 960 0
DWIDTH 9 0
BBX 8 7 0 0
BITMAP
44
E6
64
66
6A
25
40
ENDCHAR

STARTCHAR 59BB
ENCODING 22971
SWIDTH 960 0
DWIDTH 9 0
BBX 8 8 1 -1
BITMAP
10
FE
FC
FE
FC
F7
28
74
ENDCHAR

STARTCHAR 59BE
ENCODING 22974
SWIDTH 960 0
DWIDTH 9 0
BBX 7 7 1 0
BITMAP
10
6C
FE
20
7C
70
6C
ENDCHAR

STARTCHAR 59C3
ENCODING 22979
SWIDTH 960 0
DWIDTH 9 0
BBX 8 7 1 -1
BITMAP
1E
88
D8
DC
D8
58
9F
ENDCHAR

STARTCHAR 59C6
ENCODING 22982
SWIDTH 960 0
DWIDTH 9 0
BBX 9 7 0 -1
BITMAP
0F00
4900
6900
6E00
AA00
6F80
4200
ENDCHAR

STARTCHAR 59C9
ENCODING 22985
SWIDTH 960 0
DWIDTH 9 0
BBX 7 8 1 -1
BITMAP
40
40
FC
B8
DE
CA
5A
A0
ENDCHAR

STARTCHAR 59CB
ENCODING 22987
SWIDTH 960 0
DWIDTH 9 0
BBX 7 8 1 -1
BITMAP
08
88
F2
BE
C0
DE
52
BE
ENDCHAR

STARTCHAR 59D0
ENCODING 22992
SWIDTH 960 0
DWIDTH 9 0
BBX 7 7 1 -1
BITMAP
5C
F4
BC
D4
DC
54
9E
ENDCHAR

STARTCHAR 59D1
ENCODING 22993
SWIDTH 960 0
DWIDTH 9 0
BBX 8 6 1 0
BITMAP
9F
E8
DE
D2
52
BE
ENDCHAR

STARTCHAR 59D3
ENCODING 22995
SWIDTH 960 0
DWIDTH 9 0
BBX 9 7 0 -1
BITMAP
0800
4C00
6E00
6400
A600
6400
5F80
ENDCHAR

STARTCHAR 59D4
ENCODING 22996
SWIDTH 960 0
DWIDTH 9 0
BBX 7 7 1 -1
BITMAP
38
7C
7C
00
FE
78
64
ENDCHAR

STARTCHAR 59D9
ENCODING 23001
SWIDTH 960 0
DWIDTH 9 0
BBX 7 7 1 -1
BITMAP
12
E4
E4
EE
E4
64
8E
ENDCHAR

STARTCHAR 59DA
ENCODING 23002
SWIDTH 960 0
DWIDTH 9 0
BBX 7 7 1 -1
BITMAP
04
F6
D4
D4
D6
D4
26
ENDCHAR

STARTCHAR 59DC
ENCODING 23004
SWIDTH 960 0
DWIDTH 9 0
BBX 7 7 1 -1
BITMAP
FE
10
7C
7C
6C
38
76
ENDCHAR

STARTCHAR 59DD
ENCODING 23005
SWIDTH 960 0
DWIDTH 9 0
BBX 7 7 1 -1
BITMAP
10
DE
C8
C4
CC
DA
80
ENDCHAR

STARTCHAR 59E6
ENCODING 23014
SWIDTH 960 0
DWIDTH 9 0
BBX 7 7 1 0
BITMAP
FE
38
64
48
AE
CC
AA
ENDCHAR

STARTCHAR 59E8
ENCODING 23016
SWIDTH 960 0
DWIDTH 9 0
BBX 7 7 1 -1
BITMAP
1E
9E
DE
E8
DE
4C
92
ENDCHAR

STARTCHAR 59EA
ENCODING 23018
SWIDTH 960 0
DWIDTH 9 0
BBX 7 7 1 -1
BITMAP
0C
C8
DE
C0
DE
C8
3E
ENDCHAR

STARTCHAR 59EC
ENCODING 23020
SWIDTH 960 0
DWIDTH 9 0
BBX 7 7 1 0
BITMAP
9E
D4
DA
DA
DE
54
9E
ENDCHAR

STARTCHAR 59EE
ENCODING 23022
SWIDTH 960 0
DWIDTH 9 0
BBX 7 7 1 -1
BITMAP
0C
FE
B2
DE
D2
7E
BE
ENDCHAR

STARTCHAR 59F8
ENCODING 23032
SWIDTH 960 0
DWIDTH 9 0
BBX 7 7 1 -1
BITMAP
16
D4
D4
F6
D4
64
A0
ENDCHAR

STARTCHAR 59FB
ENCODING 23035
SWIDTH 960 0
DWIDTH 9 0
BBX 7 7 1 -1
BITMAP
7E
E2
EE
EA
EE
62
9C
ENDCHAR

STARTCHAR 59FF
ENCODING 23039
SWIDTH 960 0
DWIDTH 9 0
BBX 7 8 1 -1
BITMAP
10
1E
14
A8
56
FE
28
74
ENDCHAR

STARTCHAR 5A01
ENCODING 23041
SWIDTH 960 0
DWIDTH 9 0
BBX 8 6 0 0
BITMAP
7E
54
7E
72
9A
8D
ENDCHAR

STARTCHAR 5A03
ENCODING 23043
SWIDTH 960 0
DWIDTH 9 0
BBX 7 6 1 0
BITMAP
8C
C0
CC
DE
48
BE
ENDCHAR

STARTCHAR 5A11
ENCODING 23057
SWIDTH 960 0
DWIDTH 9 0
BBX 7 7 1 0
BITMAP
58
AA
48
B4
20
7C
74
ENDCHAR

STARTCHAR 5A18
ENCODING 23064
SWIDTH 960 0
DWIDTH 9 0
BBX 7 6 1 0
BITMAP
DE
DE
DE
D8
76
92
ENDCHAR

STARTCHAR 5A1B
ENCODING 23067
SWIDTH 960 0
DWIDTH 9 0
BBX 7 7 1 -1
BITMAP
1C
F4
E8
CC
FE
48
96
ENDCHAR

STARTCHAR 5A1C
ENCODING 23068
SWIDTH 960 0
DWIDTH 9 0
BBX 7 7 1 -1
BITMAP
3E
EE
FC
FE
EE
6E
94
ENDCHAR

STARTCHAR 5A1F
ENCODING 23071
SWIDTH 960 0
DWIDTH 9 0
BBX 7 7 1 -1
BITMAP
1E
F2
BE
D2
DE
5E
92
ENDCHAR

STARTCHAR 5A20
ENCODING 23072
SWIDTH 960 0
DWIDTH 9 0
BBX 7 8 1 -1
BITMAP
40
9C
FE
D0
DC
EC
6C
DA
ENDCHAR

STARTCHAR 5A25
ENCODING 23077
SWIDTH 960 0
DWIDTH 9 0
BBX 7 7 1 -1
BITMAP
14
D6
DC
D6
74
54
92
ENDCHAR

STARTCHAR 5A29
ENCODING 23081
SWIDTH 960 0
DWIDTH 9 0
BBX 7 7 1 0
BITMAP
1C
C8
FE
EA
DE
58
AE
ENDCHAR

STARTCHAR 5A36
ENCODING 23094
SWIDTH 960 0
DWIDTH 9 0
BBX 7 7 1 -1
BITMAP
EE
EC
E4
4A
20
5C
74
ENDCHAR

STARTCHAR 5A3C
ENCODING 23100
SWIDTH 960 0
DWIDTH 9 0
BBX 7 7 1 -1
BITMAP
5E
FE
BE
DE
D2
5E
9C
ENDCHAR

STARTCHAR 5A41
ENCODING 23105
SWIDTH 960 0
DWIDTH 9 0
BBX 7 7 1 -1
BITMAP
7C
94
78
FC
68
7C
76
ENDCHAR

STARTCHAR 5A46
ENCODING 23110
SWIDTH 960 0
DWIDTH 9 0
BBX 7 8 1 -1
BITMAP
08
1E
A8
74
AC
10
6C
76
ENDCHAR

STARTCHAR 5A49
ENCODING 23113
SWIDTH 960 0
DWIDTH 9 0
BBX 8 7 0 -1
BITMAP
04
42
6B
75
BD
6C
53
ENDCHAR

STARTCHAR 5A5A
ENCODING 23130
SWIDTH 960 0
DWIDTH 9 0
BBX 7 7 1 0
BITMAP
98
A8
FC
B4
DE
5C
9C
ENDCHAR

STARTCHAR 5A62
ENCODING 23138
SWIDTH 960 0
DWIDTH 9 0
BBX 7 7 1 -1
BITMAP
08
FE
FE
DC
C4
5E
84
ENDCHAR

STARTCHAR 5A66
ENCODING 23142
SWIDTH 960 0
DWIDTH 9 0
BBX 7 7 1 -1
BITMAP
0C
CC
CC
BE
FC
DC
94
ENDCHAR

STARTCHAR 5A92
ENCODING 23186
SWIDTH 960 0
DWIDTH 9 0
BBX 7 8 1 -1
BITMAP
10
10
9C
DC
D8
BE
54
A2
ENDCHAR

STARTCHAR 5A9A
ENCODING 23194
SWIDTH 960 0
DWIDTH 9 0
BBX 7 7 1 -1
BITMAP
1E
DA
D4
DE
EE
6E
8E
ENDCHAR

STARTCHAR 5A9B
ENCODING 23195
SWIDTH 960 0
DWIDTH 9 0
BBX 7 7 1 0
BITMAP
9C
82
CC
DE
CE
5C
AA
ENDCHAR

STARTCHAR 5AA4
ENCODING 23204
SWIDTH 960 0
DWIDTH 9 0
BBX 7 7 1 -1
BITMAP
3E
EA
FE
DE
C0
90
30
ENDCHAR

STARTCHAR 5AC1
ENCODING 23233
SWIDTH 960 0
DWIDTH 9 0
BBX 7 6 1 0
BITMAP
BC
C8
DC
DE
5A
A8
ENDCHAR

STARTCHAR 5AC2
ENCODING 23234
SWIDTH 960 0
DWIDTH 9 0
BBX 8 7 0 0
BITMAP
55
EB
75
6E
6B
36
4F
ENDCHAR

STARTCHAR 5AC4
ENCODING 23236
SWIDTH 960 0
DWIDTH 9 0
BBX 7 7 1 -1
BITMAP
3C
FA
FE
EE
EE
A6
84
ENDCHAR

STARTCHAR 5AC9
ENCODING 23241
SWIDTH 960 0
DWIDTH 9 0
BBX 7 7 1 0
BITMAP
08
94
FC
D4
F4
EC
B2
ENDCHAR

STARTCHAR 5ACC
ENCODING 23244
SWIDTH 960 0
DWIDTH 9 0
BBX 7 7 1 -1
BITMAP
14
FE
BE
FE
FE
94
72
ENDCHAR

STARTCHAR 5AE1
ENCODING 23265
SWIDTH 960 0
DWIDTH 9 0
BBX 7 7 1 -1
BITMAP
0C
DC
DE
EE
EE
EE
22
ENDCHAR

STARTCHAR 5AE6
ENCODING 23270
SWIDTH 960 0
DWIDTH 9 0
BBX 7 7 1 -1
BITMAP
12
DE
CC
CC
DE
5A
90
ENDCHAR

STARTCHAR 5AE9
ENCODING 23273
SWIDTH 960 0
DWIDTH 9 0
BBX 7 7 1 -1
BITMAP
14
D6
FE
FE
92
B2
1E
ENDCHAR

STARTCHAR 5B05
ENCODING 23301
SWIDTH 960 0
DWIDTH 9 0
BBX 7 7 1 -1
BITMAP
1E
C0
DE
DE
DE
5E
80
ENDCHAR

STARTCHAR 5B09
ENCODING 23305
SWIDTH 960 0
DWIDTH 9 0
BBX 7 7 1 0
BITMAP
3E
DE
DE
DE
FE
64
9C
ENDCHAR

STARTCHAR 5B0B
ENCODING 23307
SWIDTH 960 0
DWIDTH 9 0
BBX 7 7 1 -1
BITMAP
3E
9E
DE
DE
DE
5E
80
ENDCHAR

STARTCHAR 5B0C
ENCODING 23308
SWIDTH 960 0
DWIDTH 9 0
BBX 7 7 1 -1
BITMAP
08
9C
DE
CC
E2
7E
AA
ENDCHAR

STARTCHAR 5B16
ENCODING 23318
SWIDTH 960 0
DWIDTH 9 0
BBX 7 8 1 -1
BITMAP
04
EE
CC
E4
64
20
5C
74
ENDCHAR

STARTCHAR 5B2A
ENCODING 23338
SWIDTH 960 0
DWIDTH 9 0
BBX 7 7 1 -1
BITMAP
1E
8C
D4
DA
DE
DE
12
ENDCHAR

STARTCHAR 5B40
ENCODING 23360
SWIDTH 960 0
DWIDTH 9 0
BBX 7 7 1 -1
BITMAP
0C
AE
C0
D0
DE
5E
B6
ENDCHAR

STARTCHAR 5B43
ENCODING 23363
SWIDTH 960 0
DWIDTH 9 0
BBX 8 8 0 -1
BITMAP
04
1F
5D
62
6E
AE
6C
47
ENDCHAR

STARTCHAR 5B50
ENCODING 23376
SWIDTH 960 0
DWIDTH 9 0
BBX 5 7 2 -1
BITMAP
70
20
20
F8
20
20
60
ENDCHAR

STARTCHAR 5B51
ENCODING 23377
SWIDTH 960 0
DWIDTH 9 0
BBX 7 7 1 -1
BITMAP
38
10
12
1C
F0
10
30
ENDCHAR

STARTCHAR 5B54
ENCODING 23380
SWIDTH 960 0
DWIDTH 9 0
BBX 7 7 1 -1
BITMAP
E8
48
48
68
C8
48
CE
ENDCHAR

STARTCHAR 5B55
ENCODING 23381
SWIDTH 960 0
DWIDTH 9 0
BBX 7 7 1 -1
BITMAP
78
2E
42
BA
14
7C
30
ENDCHAR

STARTCHAR 5B57
ENCODING 23383
SWIDTH 960 0
DWIDTH 9 0
BBX 7 8 1 -1
BITMAP
10
10
6C
38
10
FE
10
10
ENDCHAR

STARTCHAR 5B58
ENCODING 23384
SWIDTH 960 0
DWIDTH 9 0
BBX 6 7 2 0
BITMAP
40
F8
9C
88
FC
90
90
ENDCHAR

STARTCHAR 5B5A
ENCODING 23386
SWIDTH 960 0
DWIDTH 9 0
BBX 7 7 1 -1
BITMAP
78
92
7C
08
FE
10
30
ENDCHAR

STARTCHAR 5B5C
ENCODING 23388
SWIDTH 960 0
DWIDTH 9 0
BBX 7 7 1 -1
BITMAP
60
CE
54
D4
4C
48
F6
ENDCHAR

STARTCHAR 5B5D
ENCODING 23389
SWIDTH 960 0
DWIDTH 9 0
BBX 6 8 1 -1
BITMAP
10
7C
18
74
2C
D8
3C
10
ENDCHAR

STARTCHAR 5B5F
ENCODING 23391
SWIDTH 960 0
DWIDTH 9 0
BBX 6 7 1 -1
BITMAP
3C
18
7C
10
00
FC
FC
ENDCHAR

STARTCHAR 5B63
ENCODING 23395
SWIDTH 960 0
DWIDTH 9 0
BBX 5 7 2 -1
BITMAP
70
F8
F8
F8
20
F8
20
ENDCHAR

STARTCHAR 5B64
ENCODING 23396
SWIDTH 960 0
DWIDTH 9 0
BBX 8 7 0 -1
BITMAP
26
3E
56
36
F6
37
5F
ENDCHAR

STARTCHAR 5B69
ENCODING 23401
SWIDTH 960 0
DWIDTH 9 0
BBX 7 7 1 -1
BITMAP
60
4C
4C
CA
54
4C
92
ENDCHAR

STARTCHAR 5B6B
ENCODING 23403
SWIDTH 960 0
DWIDTH 9 0
BBX 7 8 1 -1
BITMAP
02
4C
50
8C
DE
88
AA
A0
ENDCHAR

STARTCHAR 5B70
ENCODING 23408
SWIDTH 960 0
DWIDTH 9 0
BBX 7 7 1 -1
BITMAP
40
FC
AC
EC
4C
54
42
ENDCHAR

STARTCHAR 5B71
ENCODING 23409
SWIDTH 960 0
DWIDTH 9 0
BBX 7 7 1 -1
BITMAP
FE
FC
9C
BC
B2
FE
24
ENDCHAR

STARTCHAR 5B75
ENCODING 23413
SWIDTH 960 0
DWIDTH 9 0
BBX 9 7 0 -1
BITMAP
7A00
B400
BB00
B900
B780
7200
5200
ENDCHAR

STARTCHAR 5B78
ENCODING 23416
SWIDTH 960 0
DWIDTH 9 0
BBX 7 7 1 -1
BITMAP
10
84
9C
70
38
FE
10
ENDCHAR

STARTCHAR 5B7A
ENCODING 23418
SWIDTH 960 0
DWIDTH 9 0
BBX 7 7 1 -1
BITMAP
4C
6E
80
80
9E
B6
86
ENDCHAR

STARTCHAR 5B7C
ENCODING 23420
SWIDTH 960 0
DWIDTH 9 0
BBX 7 7 1 -1
BITMAP
44
EE
84
E4
7C
FE
10
ENDCHAR

STARTCHAR 5B85
ENCODING 23429
SWIDTH 960 0
DWIDTH 9 0
BBX 7 8 1 -1
BITMAP
10
10
6C
38
10
FC
10
1E
ENDCHAR

STARTCHAR 5B87
ENCODING 23431
SWIDTH 960 0
DWIDTH 9 0
BBX 7 7 1 -1
BITMAP
10
EE
78
10
7C
10
10
ENDCHAR

STARTCHAR 5B88
ENCODING 23432
SWIDTH 960 0
DWIDTH 9 0
BBX 9 8 0 -1
BITMAP
0800
7F00
8100
0400
FF80
0400
1400
0400
ENDCHAR

STARTCHAR 5B89
ENCODING 23433
SWIDTH 960 0
DWIDTH 9 0
BBX 7 7 1 -1
BITMAP
10
EE
20
7C
48
38
66
ENDCHAR

STARTCHAR 5B8B
ENCODING 23435
SWIDTH 960 0
DWIDTH 9 0
BBX 7 8 1 -1
BITMAP
10
FE
12
10
7C
38
54
92
ENDCHAR

STARTCHAR 5B8C
ENCODING 23436
SWIDTH 960 0
DWIDTH 9 0
BBX 7 7 1 -1
BITMAP
10
EE
30
FE
30
30
CE
ENDCHAR

STARTCHAR 5B8F
ENCODING 23439
SWIDTH 960 0
DWIDTH 9 0
BBX 7 8 1 -1
BITMAP
10
FE
82
00
7C
20
50
BE
ENDCHAR

STARTCHAR 5B93
ENCODING 23443
SWIDTH 960 0
DWIDTH 9 0
BBX 7 7 1 -1
BITMAP
10
EE
30
2C
AA
32
FC
ENDCHAR

STARTCHAR 5B95
ENCODING 23445
SWIDTH 960 0
DWIDTH 9 0
BBX 7 6 1 0
BITMAP
FE
00
3C
3E
C2
3E
ENDCHAR

STARTCHAR 5B96
ENCODING 23446
SWIDTH 960 0
DWIDTH 9 0
BBX 7 8 1 -1
BITMAP
10
FE
60
28
C8
68
32
7E
ENDCHAR

STARTCHAR 5B97
ENCODING 23447
SWIDTH 960 0
DWIDTH 9 0
BBX 7 7 1 -1
BITMAP
10
EC
38
FE
10
54
B2
ENDCHAR

STARTCHAR 5B98
ENCODING 23448
SWIDTH 960 0
DWIDTH 9 0
BBX 6 7 1 -1
BITMAP
10
EC
7C
44
78
7C
7C
ENDCHAR

STARTCHAR 5B99
ENCODING 23449
SWIDTH 960 0
DWIDTH 9 0
BBX 6 7 1 -1
BITMAP
10
6C
10
FC
7C
94
7C
ENDCHAR

STARTCHAR 5B9A
ENCODING 23450
SWIDTH 960 0
DWIDTH 9 0
BBX 7 7 1 -1
BITMAP
10
EC
7C
10
58
B0
9E
ENDCHAR

STARTCHAR 5B9B
ENCODING 23451
SWIDTH 960 0
DWIDTH 9 0
BBX 7 8 1 -1
BITMAP
10
10
6C
4C
B4
74
54
9E
ENDCHAR

STARTCHAR 5B9C
ENCODING 23452
SWIDTH 960 0
DWIDTH 9 0
BBX 7 7 1 -1
BITMAP
10
EE
38
48
78
78
FE
ENDCHAR

STARTCHAR 5BA2
ENCODING 23458
SWIDTH 960 0
DWIDTH 9 0
BBX 7 7 1 0
BITMAP
10
EE
78
B0
2E
5C
7C
ENDCHAR

STARTCHAR 5BA3
ENCODING 23459
SWIDTH 960 0
DWIDTH 9 0
BBX 7 7 1 -1
BITMAP
10
6E
38
7C
7C
7C
FE
ENDCHAR

STARTCHAR 5BA4
ENCODING 23460
SWIDTH 960 0
DWIDTH 9 0
BBX 7 7 1 -1
BITMAP
10
6C
38
7C
10
38
FE
ENDCHAR

STARTCHAR 5BA5
ENCODING 23461
SWIDTH 960 0
DWIDTH 9 0
BBX 7 7 1 -1
BITMAP
FE
92
FE
3C
FC
3C
04
ENDCHAR

STARTCHAR 5BA6
ENCODING 23462
SWIDTH 960 0
DWIDTH 9 0
BBX 7 7 1 -1
BITMAP
10
EE
78
7C
44
78
7E
ENDCHAR

STARTCHAR 5BAC
ENCODING 23468
SWIDTH 960 0
DWIDTH 9 0
BBX 8 6 0 0
BITMAP
7E
00
7F
7D
52
9D
ENDCHAR

STARTCHAR 5BAE
ENCODING 23470
SWIDTH 960 0
DWIDTH 9 0
BBX 7 7 1 -1
BITMAP
FE
80
7C
7C
20
DC
7C
ENDCHAR

STARTCHAR 5BB0
ENCODING 23472
SWIDTH 960 0
DWIDTH 9 0
BBX 7 8 1 -1
BITMAP
10
FE
10
7C
28
54
FE
10
ENDCHAR

STARTCHAR 5BB3
ENCODING 23475
SWIDTH 960 0
DWIDTH 9 0
BBX 7 7 1 -1
BITMAP
FE
10
38
38
7C
EC
FC
ENDCHAR

STARTCHAR 5BB4
ENCODING 23476
SWIDTH 960 0
DWIDTH 9 0
BBX 7 8 1 -1
BITMAP
10
FE
78
78
78
FE
28
74
ENDCHAR

STARTCHAR 5BB5
ENCODING 23477
SWIDTH 960 0
DWIDTH 9 0
BBX 7 7 1 0
BITMAP
FE
B0
52
EC
7C
7C
44
ENDCHAR

STARTCHAR 5BB6
ENCODING 23478
SWIDTH 960 0
DWIDTH 9 0
BBX 7 7 1 -1
BITMAP
10
EE
38
5A
7C
34
D2
ENDCHAR

STARTCHAR 5BB8
ENCODING 23480
SWIDTH 960 0
DWIDTH 9 0
BBX 7 7 1 -1
BITMAP
FE
80
78
58
7C
AC
36
ENDCHAR

STARTCHAR 5BB9
ENCODING 23481
SWIDTH 960 0
DWIDTH 9 0
BBX 7 8 1 -1
BITMAP
10
10
EE
54
28
46
7C
7C
ENDCHAR

STARTCHAR 5BBF
ENCODING 23487
SWIDTH 960 0
DWIDTH 9 0
BBX 7 8 1 -1
BITMAP
10
FE
80
4C
5E
E2
7E
5E
ENDCHAR

STARTCHAR 5BC0
ENCODING 23488
SWIDTH 960 0
DWIDTH 9 0
BBX 7 7 1 -1
BITMAP
FE
DE
B4
10
FE
58
96
ENDCHAR

STARTCHAR 5BC2
ENCODING 23490
SWIDTH 960 0
DWIDTH 9 0
BBX 7 8 1 -1
BITMAP
10
FE
02
2E
4C
6C
D4
5A
ENDCHAR

STARTCHAR 5BC3
ENCODING 23491
SWIDTH 960 0
DWIDTH 9 0
BBX 7 7 1 -1
BITMAP
FE
3A
48
B4
7C
38
DE
ENDCHAR

STARTCHAR 5BC4
ENCODING 23492
SWIDTH 960 0
DWIDTH 9 0
BBX 7 8 1 -1
BITMAP
10
FE
12
38
68
BE
F4
74
ENDCHAR

STARTCHAR 5BC5
ENCODING 23493
SWIDTH 960 0
DWIDTH 9 0
BBX 7 7 1 -1
BITMAP
FE
00
38
7C
7C
7C
46
ENDCHAR

STARTCHAR 5BC6
ENCODING 23494
SWIDTH 960 0
DWIDTH 9 0
BBX 7 8 1 -1
BITMAP
10
FE
32
AA
34
58
10
7C
ENDCHAR

STARTCHAR 5BC7
ENCODING 23495
SWIDTH 960 0
DWIDTH 9 0
BBX 7 7 1 -1
BITMAP
FE
82
06
EC
6C
A8
BE
ENDCHAR

STARTCHAR 5BCC
ENCODING 23500
SWIDTH 960 0
DWIDTH 9 0
BBX 7 8 1 -1
BITMAP
10
FE
7C
7C
7C
7C
7C
7C
ENDCHAR

STARTCHAR 5BD0
ENCODING 23504
SWIDTH 960 0
DWIDTH 9 0
BBX 7 7 1 0
BITMAP
FE
0A
5C
48
CC
DC
8A
ENDCHAR

STARTCHAR 5BD2
ENCODING 23506
SWIDTH 960 0
DWIDTH 9 0
BBX 8 7 0 -1
BITMAP
7F
94
1C
1C
2E
4A
1D
ENDCHAR

STARTCHAR 5BD3
ENCODING 23507
SWIDTH 960 0
DWIDTH 9 0
BBX 7 8 1 -1
BITMAP
10
FE
82
7C
7C
10
FE
AA
ENDCHAR

STARTCHAR 5BD4
ENCODING 23508
SWIDTH 960 0
DWIDTH 9 0
BBX 7 7 1 -1
BITMAP
FE
FE
7C
00
7C
5C
BE
ENDCHAR

STARTCHAR 5BD7
ENCODING 23511
SWIDTH 960 0
DWIDTH 9 0
BBX 7 7 1 -1
BITMAP
FE
28
72
10
FE
FE
84
ENDCHAR

STARTCHAR 5BDE
ENCODING 23518
SWIDTH 960 0
DWIDTH 9 0
BBX 7 8 1 -1
BITMAP
10
FE
FC
7C
7C
3C
70
4C
ENDCHAR

STARTCHAR 5BDF
ENCODING 23519
SWIDTH 960 0
DWIDTH 9 0
BBX 7 8 1 -1
BITMAP
10
FE
64
AC
42
90
7C
56
ENDCHAR

STARTCHAR 5BE1
ENCODING 23521
SWIDTH 960 0
DWIDTH 9 0
BBX 7 8 1 -1
BITMAP
10
FE
7C
44
7C
FE
BC
22
ENDCHAR

STARTCHAR 5BE2
ENCODING 23522
SWIDTH 960 0
DWIDTH 9 0
BBX 7 8 1 -1
BITMAP
10
FE
1E
C4
C8
FC
C8
96
ENDCHAR

STARTCHAR 5BE4
ENCODING 23524
SWIDTH 960 0
DWIDTH 9 0
BBX 7 7 1 -1
BITMAP
FE
22
28
2C
FE
B2
3E
ENDCHAR

STARTCHAR 5BE5
ENCODING 23525
SWIDTH 960 0
DWIDTH 9 0
BBX 7 8 1 -1
BITMAP
10
EE
7E
A4
D8
74
74
78
ENDCHAR

STARTCHAR 5BE6
ENCODING 23526
SWIDTH 960 0
DWIDTH 9 0
BBX 7 7 1 -1
BITMAP
FE
FE
54
7C
84
FC
7C
ENDCHAR

STARTCHAR 5BE7
ENCODING 23527
SWIDTH 960 0
DWIDTH 9 0
BBX 7 8 1 -1
BITMAP
10
FE
E0
BA
EC
FE
FE
10
ENDCHAR

STARTCHAR 5BE8
ENCODING 23528
SWIDTH 960 0
DWIDTH 9 0
BBX 7 8 1 -1
BITMAP
10
FE
7E
7C
FE
54
98
7C
ENDCHAR

STARTCHAR 5BE9
ENCODING 23529
SWIDTH 960 0
DWIDTH 9 0
BBX 7 8 1 -1
BITMAP
10
FE
3A
18
7C
7E
7C
7C
ENDCHAR

STARTCHAR 5BEB
ENCODING 23531
SWIDTH 960 0
DWIDTH 9 0
BBX 7 7 1 -1
BITMAP
FE
0C
44
44
78
BE
32
ENDCHAR

STARTCHAR 5BEC
ENCODING 23532
SWIDTH 960 0
DWIDTH 9 0
BBX 7 8 1 -1
BITMAP
10
FE
7E
00
FC
7C
7C
5E
ENDCHAR

STARTCHAR 5BEE
ENCODING 23534
SWIDTH 960 0
DWIDTH 9 0
BBX 7 8 1 -1
BITMAP
10
FE
7C
28
D4
7C
7C
56
ENDCHAR

STARTCHAR 5BEF
ENCODING 23535
SWIDTH 960 0
DWIDTH 9 0
BBX 7 8 1 -1
BITMAP
10
FE
80
7E
90
7E
6E
3E
ENDCHAR

STARTCHAR 5BF5
ENCODING 23541
SWIDTH 960 0
DWIDTH 9 0
BBX 7 8 1 -1
BITMAP
10
FE
4C
AC
EC
B0
F8
FC
ENDCHAR

STARTCHAR 5BF6
ENCODING 23542
SWIDTH 960 0
DWIDTH 9 0
BBX 7 7 1 -1
BITMAP
10
FE
6C
00
44
7C
7C
ENDCHAR

STARTCHAR 5BF8
ENCODING 23544
SWIDTH 960 0
DWIDTH 9 0
BBX 7 6 1 0
BITMAP
FE
08
08
28
08
18
ENDCHAR

STARTCHAR 5BFA
ENCODING 23546
SWIDTH 960 0
DWIDTH 9 0
BBX 7 7 1 -1
BITMAP
10
38
FE
00
7C
28
08
ENDCHAR

STARTCHAR 5C01
ENCODING 23553
SWIDTH 960 0
DWIDTH 9 0
BBX 7 7 1 -1
BITMAP
40
44
4E
44
EC
44
E4
ENDCHAR

STARTCHAR 5C04
ENCODING 23556
SWIDTH 960 0
DWIDTH 9 0
BBX 7 7 1 -1
BITMAP
40
A4
E6
D4
EC
64
A4
ENDCHAR

STARTCHAR 5C07
ENCODING 23559
SWIDTH 960 0
DWIDTH 9 0
BBX 7 7 1 -1
BITMAP
8E
D4
48
C4
CC
C4
04
ENDCHAR

STARTCHAR 5C08
ENCODING 23560
SWIDTH 960 0
DWIDTH 9 0
BBX 7 8 1 -1
BITMAP
10
FE
54
7C
3C
EA
7C
20
ENDCHAR

STARTCHAR 5C09
ENCODING 23561
SWIDTH 960 0
DWIDTH 9 0
BBX 8 7 0 -1
BITMAP
79
79
43
51
53
91
11
ENDCHAR

STARTCHAR 5C0A
ENCODING 23562
SWIDTH 960 0
DWIDTH 9 0
BBX 7 8 1 -1
BITMAP
38
84
38
FC
FC
FC
FE
28
ENDCHAR

STARTCHAR 5C0B
ENCODING 23563
SWIDTH 960 0
DWIDTH 9 0
BBX 6 7 2 -1
BITMAP
78
F8
7C
A4
18
F8
10
ENDCHAR

STARTCHAR 5C0D
ENCODING 23565
SWIDTH 960 0
DWIDTH 9 0
BBX 7 7 1 -1
BITMAP
60
64
8E
F4
4C
44
E4
ENDCHAR

STARTCHAR 5C0E
ENCODING 23566
SWIDTH 960 0
DWIDTH 9 0
BBX 8 7 0 0
BITMAP
1F
5F
11
3F
5F
FF
12
ENDCHAR

STARTCHAR 5C0F
ENCODING 23567
SWIDTH 960 0
DWIDTH 9 0
BBX 7 7 1 -1
BITMAP
10
14
94
92
10
10
30
ENDCHAR

STARTCHAR 5C11
ENCODING 23569
SWIDTH 960 0
DWIDTH 9 0
BBX 7 7 1 -1
BITMAP
10
54
92
14
28
10
E0
ENDCHAR

STARTCHAR 5C16
ENCODING 23574
SWIDTH 960 0
DWIDTH 9 0
BBX 7 7 1 -1
BITMAP
10
D6
30
10
FE
28
C4
ENDCHAR

STARTCHAR 5C19
ENCODING 23577
SWIDTH 960 0
DWIDTH 9 0
BBX 7 7 1 -1
BITMAP
54
92
EE
BA
AA
BA
86
ENDCHAR

STARTCHAR 5C24
ENCODING 23588
SWIDTH 960 0
DWIDTH 9 0
BBX 7 7 1 -1
BITMAP
18
10
7C
30
30
50
9E
ENDCHAR

STARTCHAR 5C28
ENCODING 23592
SWIDTH 960 0
DWIDTH 9 0
BBX 7 7 1 -1
BITMAP
60
44
6C
68
66
A8
3E
ENDCHAR

STARTCHAR 5C31
ENCODING 23601
SWIDTH 960 0
DWIDTH 9 0
BBX 8 7 0 -1
BITMAP
21
54
76
72
66
AA
23
ENDCHAR

STARTCHAR 5C38
ENCODING 23608
SWIDTH 960 0
DWIDTH 9 0
BBX 7 7 1 -1
BITMAP
7E
42
42
7C
40
80
80
ENDCHAR

STARTCHAR 5C39
ENCODING 23609
SWIDTH 960 0
DWIDTH 9 0
BBX 5 7 2 -1
BITMAP
F8
48
F8
48
F0
40
80
ENDCHAR

STARTCHAR 5C3A
ENCODING 23610
SWIDTH 960 0
DWIDTH 9 0
BBX 7 7 1 -1
BITMAP
7C
44
7C
50
50
8C
02
ENDCHAR

STARTCHAR 5C3B
ENCODING 23611
SWIDTH 960 0
DWIDTH 9 0
BBX 8 7 0 -1
BITMAP
7E
42
7C
5C
4C
54
A3
ENDCHAR

STARTCHAR 5C3C
ENCODING 23612
SWIDTH 960 0
DWIDTH 9 0
BBX 7 7 1 -1
BITMAP
FC
84
F8
94
98
90
1E
ENDCHAR

STARTCHAR 5C3E
ENCODING 23614
SWIDTH 960 0
DWIDTH 9 0
BBX 7 7 1 -1
BITMAP
7E
7E
44
58
98
BC
1E
ENDCHAR

STARTCHAR 5C3F
ENCODING 23615
SWIDTH 960 0
DWIDTH 9 0
BBX 7 7 1 -1
BITMAP
FE
7E
80
AC
B8
B4
42
ENDCHAR

STARTCHAR 5C40
ENCODING 23616
SWIDTH 960 0
DWIDTH 9 0
BBX 7 7 1 -1
BITMAP
7E
42
7C
7E
BA
BA
02
ENDCHAR

STARTCHAR 5C45
ENCODING 23621
SWIDTH 960 0
DWIDTH 9 0
BBX 6 7 1 -1
BITMAP
FC
7C
90
FC
BC
C4
38
ENDCHAR

STARTCHAR 5C46
ENCODING 23622
SWIDTH 960 0
DWIDTH 9 0
BBX 7 7 1 -1
BITMAP
FE
7E
88
9C
CA
C2
9C
ENDCHAR

STARTCHAR 5C48
ENCODING 23624
SWIDTH 960 0
DWIDTH 9 0
BBX 7 7 1 -1
BITMAP
7E
7E
4A
6A
8E
A8
3E
ENDCHAR

STARTCHAR 5C4B
ENCODING 23627
SWIDTH 960 0
DWIDTH 9 0
BBX 7 7 1 -1
BITMAP
FE
7E
BE
A4
9A
BC
7E
ENDCHAR

STARTCHAR 5C4D
ENCODING 23629
SWIDTH 960 0
DWIDTH 9 0
BBX 7 7 1 -1
BITMAP
FE
7E
80
BC
BA
AC
4E
ENDCHAR

STARTCHAR 5C4E
ENCODING 23630
SWIDTH 960 0
DWIDTH 9 0
BBX 7 7 1 -1
BITMAP
FE
7E
88
88
9C
BC
0A
ENDCHAR

STARTCHAR 5C51
ENCODING 23633
SWIDTH 960 0
DWIDTH 9 0
BBX 6 7 1 -1
BITMAP
FC
7C
A0
BC
BC
A4
3C
ENDCHAR

STARTCHAR 5C55
ENCODING 23637
SWIDTH 960 0
DWIDTH 9 0
BBX 7 7 1 -1
BITMAP
FE
7E
90
98
B4
A8
36
ENDCHAR

STARTCHAR 5C5B
ENCODING 23643
SWIDTH 960 0
DWIDTH 9 0
BBX 7 7 1 -1
BITMAP
FE
7E
84
A4
94
E4
44
ENDCHAR

STARTCHAR 5C60
ENCODING 23648
SWIDTH 960 0
DWIDTH 9 0
BBX 7 7 1 -1
BITMAP
FE
FC
94
BE
BE
9E
3E
ENDCHAR

STARTCHAR 5C62
ENCODING 23650
SWIDTH 960 0
DWIDTH 9 0
BBX 9 7 0 -1
BITMAP
7F00
7E00
7F80
4800
5E00
BF80
1F00
ENDCHAR

STARTCHAR 5C64
ENCODING 23652
SWIDTH 960 0
DWIDTH 9 0
BBX 7 7 1 -1
BITMAP
FE
FC
7E
D2
AC
BC
3C
ENDCHAR

STARTCHAR 5C65
ENCODING 23653
SWIDTH 960 0
DWIDTH 9 0
BBX 7 7 1 -1
BITMAP
FE
FC
54
AE
CE
D4
0E
ENDCHAR

STARTCHAR 5C6C
ENCODING 23660
SWIDTH 960 0
DWIDTH 9 0
BBX 9 7 0 -1
BITMAP
7F00
7F00
4800
7F00
5F80
AA80
9D00
ENDCHAR

STARTCHAR 5C6F
ENCODING 23663
SWIDTH 960 0
DWIDTH 9 0
BBX 7 7 1 0
BITMAP
20
7C
A4
A4
FC
20
1E
ENDCHAR

STARTCHAR 5C71
ENCODING 23665
SWIDTH 960 0
DWIDTH 9 0
BBX 6 7 1 -1
BITMAP
10
90
94
94
94
94
E8
ENDCHAR

STARTCHAR 5C79
ENCODING 23673
SWIDTH 960 0
DWIDTH 9 0
BBX 7 8 1 -1
BITMAP
40
60
FE
E0
E8
E8
F0
1E
ENDCHAR

ENDFONT
